<svg xmlns="http://www.w3.org/2000/svg" viewBox="0 0 180 252"><defs><style>.cls-1{fill:#f4f2e4;}.cls-2{opacity:0.46;}.cls-3{fill:#1e1a19;}.cls-4{fill:#522c16;}.cls-5{fill:#351e17;}.cls-6{fill:#cc672f;}.cls-7{fill:#f9bd93;}.cls-8{fill:#351e16;}.cls-9{fill:#cc672e;}.cls-10{fill:none;}</style></defs><g id="Calque_2" data-name="Calque 2"><g id="fond"><path class="cls-1" d="M180,12.72V239.29A17.5,17.5,0,0,1,163.17,252H17.5A17.5,17.5,0,0,1,0,234.5V17.5A17.5,17.5,0,0,1,17.5,0H163.17A17.51,17.51,0,0,1,180,12.72Z"/></g><g id="ombre"><g class="cls-2"><path class="cls-3" d="M33.11,173.63c1.72,6.8,15.82,6.64,20.69,8.87,5.54,2.53,15.86,9.18,31.07,10.1,16.94,1,42.39-2.73,43.2-15.39s-14.76-13.87-14.76-13.87S28.84,156.72,33.11,173.63Z"/></g><g class="cls-2"><path class="cls-3" d="M62.31,127.29c.2-.38-6.3-6.67-6.58-6.87-2.58-1.79-9.25-4.9-16.87-7.35-8.5-2.72-21.87-4.48-23.74,1S21,122.11,21,122.11,58.58,134.34,62.31,127.29Z"/></g><g class="cls-2"><path class="cls-3" d="M121,176.75s27.95-1,32-.06c3,.68-7.53,3.95-32,.06Z"/></g></g><g id="Calque_25" data-name="Calque 25"><path class="cls-4" d="M180,12.72V76.44c-23.47-8.83-87.69-39.81-55-66.93A113,113,0,0,0,134.73,0h28.44A17.51,17.51,0,0,1,180,12.72Z"/><path class="cls-4" d="M180,225.74v13.55A17.5,17.5,0,0,1,163.17,252H17.5A17.5,17.5,0,0,1,0,234.5V220.8C51.54,213,129.48,200.07,180,225.74Z"/></g><g id="Calque_11" data-name="Calque 11"><path class="cls-1" d="M162.59,14.44h-15.9c-.6,0-.83.22-.83.82V42c0,.58.24.81.82.81H162.6c.58,0,.82-.23.82-.81V15.26C163.42,14.66,163.19,14.44,162.59,14.44ZM158,15.81h4v5.37h-4Zm0,6.75h4v5.36h-4Zm-5.4-6.76h4v5.37h-4Zm4,6.76v5.37h-4V22.56Zm-9.42-6.76h4v5.37h-4Zm0,6.76h4v5.37h-4Zm14.83,18.82a.21.21,0,0,1,0,.06H147.21v-.27c0-2.19,0-4.39,0-6.58a.67.67,0,0,1,.16-.41c.44-.47.89-.91,1.34-1.36a.66.66,0,0,1,1,0c.53.53,1.06,1.06,1.6,1.58s.73.43,1.17,0l1.56-1.54a.67.67,0,0,1,1.09,0l1.62,1.6a.67.67,0,0,0,1.08,0l1.62-1.6a.67.67,0,0,1,1.09,0c.45.45.9.9,1.34,1.36a.43.43,0,0,1,.13.28C162.07,36.79,162.07,39.08,162.06,41.38Zm0-9-.57-.55a2,2,0,0,0-1.54-.62,2,2,0,0,0-1.38.61c-.41.4-.8.81-1.23,1.24l-1.13-1.14a2.06,2.06,0,0,0-3.14,0l-1.13,1.14c-.39-.39-.76-.77-1.13-1.13a2,2,0,0,0-3.11,0l-.48.48V29.31h14.84Z"/></g><g id="numéro_picto" data-name="numéro + picto"><path class="cls-4" d="M22.05,15l5.75,0h3.55a10.34,10.34,0,0,1,1.32.06,2.63,2.63,0,0,1,1,.36c.68.35,1,1.36,1,3s-.31,2.43-.94,2.76a2.75,2.75,0,0,1-.93.36,9.3,9.3,0,0,1-1.22.05H25c-.05.31-.18,1.26-.38,2.88a8.21,8.21,0,0,1,1.33-.08,9.21,9.21,0,0,1,6.46,2.7,8.75,8.75,0,0,1,2.87,6.62,9.37,9.37,0,0,1-2.72,6.73,9,9,0,0,1-6.77,2.81,11.75,11.75,0,0,1-6.35-1.77,6.53,6.53,0,0,1-.94-.72l-.3-.27a3.34,3.34,0,0,1-1.44-2.27,4,4,0,0,1,1.4-2.45,3.14,3.14,0,0,1,2.19-1.25,4.28,4.28,0,0,1,2.53,1.21,3,3,0,0,0,2.37.79,3.72,3.72,0,0,0,2.49-.71,2.52,2.52,0,0,0,.81-2,2.44,2.44,0,0,0-.89-2,3.07,3.07,0,0,0-2-.74,2.46,2.46,0,0,0-1.81.68,3.18,3.18,0,0,1-2.06.87A5.16,5.16,0,0,1,19.35,32a7.81,7.81,0,0,1-1.76-1.15,1.32,1.32,0,0,1-.42-.93c0-.32.26-2.35.76-6.08s.77-5.67.79-5.82a5.62,5.62,0,0,1,.27-.8,5,5,0,0,1,.55-1,2.81,2.81,0,0,1,1-.81A3.14,3.14,0,0,1,22.05,15Z"/></g><g id="Calque_23" data-name="Calque 23"><path class="cls-5" d="M59.1,128.11c-1.16.13-2.38-.32-3.47,0-.4.14-.75.38-1.14.55a5.23,5.23,0,0,0-.9.4.66.66,0,0,0-.32.78c.16.32.65.38,1,.39,2,0,4-.34,6,.11.47.11.92.26,1.38.38a8.55,8.55,0,0,0,2.72.23,33.56,33.56,0,0,1,3.86-.45,12.32,12.32,0,0,0,2.64.11,3.52,3.52,0,0,0,2-1.19c.12-.14.24-.3.2-.46a.64.64,0,0,0-.21-.31,3.47,3.47,0,0,0-1.31-.92,3.3,3.3,0,0,0-1.09-.14c-1.2,0-2.4.2-3.6.09-1-.09-1.91-.38-2.88-.47a12.75,12.75,0,0,0-2.14,0,46.14,46.14,0,0,0-4.7.63,1.92,1.92,0,0,0-1.15.49.54.54,0,0,0,.32.89Z"/></g><g id="nom"><path class="cls-1" d="M40.12,238a.75.75,0,0,1-.79-.79v-6.67a.72.72,0,0,1,.22-.56.77.77,0,0,1,.57-.21H44.6a.7.7,0,0,1,.11.23.83.83,0,0,1,0,.32.7.7,0,0,1-.14.46.48.48,0,0,1-.39.16H40.77v2.25h3.42a.62.62,0,0,1,.12.23,1.14,1.14,0,0,1,0,.33.64.64,0,0,1-.15.46.49.49,0,0,1-.38.15H40.77v2.46h3.9a1,1,0,0,1,.1.23.88.88,0,0,1,.06.33.68.68,0,0,1-.14.46.5.5,0,0,1-.39.16Zm3-11.21a.91.91,0,0,1,.57.19.53.53,0,0,1,.2.42.61.61,0,0,1-.1.36,1.88,1.88,0,0,1-.32.33l-1.21,1a.87.87,0,0,1-.52-.16.43.43,0,0,1-.18-.36.64.64,0,0,1,.23-.47Z"/><path class="cls-1" d="M49.28,232.6a2.32,2.32,0,0,0-.8.14,1.81,1.81,0,0,0-.63.43,2.29,2.29,0,0,0-.42.7,2.75,2.75,0,0,0-.15.95,2.22,2.22,0,0,0,.55,1.63,1.94,1.94,0,0,0,1.45.56,2.51,2.51,0,0,0,.88-.13,2.56,2.56,0,0,0,.64-.33,1,1,0,0,1,.28.26.56.56,0,0,1,.11.37c0,.28-.18.51-.55.7a3.1,3.1,0,0,1-1.44.28,4.22,4.22,0,0,1-1.36-.2,2.75,2.75,0,0,1-1.06-.62,2.89,2.89,0,0,1-.7-1.05,3.9,3.9,0,0,1-.25-1.47,4,4,0,0,1,.26-1.48,3.06,3.06,0,0,1,.72-1.05,3,3,0,0,1,1.07-.63,3.86,3.86,0,0,1,1.28-.21,4,4,0,0,1,.81.08,2.29,2.29,0,0,1,.61.22,1.36,1.36,0,0,1,.4.33.58.58,0,0,1,.14.38.6.6,0,0,1-.1.35.72.72,0,0,1-.25.24,4.63,4.63,0,0,0-.63-.32A2.6,2.6,0,0,0,49.28,232.6Z"/><path class="cls-1" d="M53.55,238.06a.92.92,0,0,1-.58-.15.59.59,0,0,1-.19-.5v-8.22l.27-.07a1.48,1.48,0,0,1,.38,0,.94.94,0,0,1,.58.15.61.61,0,0,1,.19.5V238l-.28.07A2.1,2.1,0,0,1,53.55,238.06Z"/><path class="cls-1" d="M58.5,231.45a3.3,3.3,0,0,1,2,.55,2,2,0,0,1,.74,1.72v3.16a.74.74,0,0,1-.14.48,1.63,1.63,0,0,1-.39.32,3.93,3.93,0,0,1-.9.35,5,5,0,0,1-1.29.15,3.47,3.47,0,0,1-2.05-.52,1.72,1.72,0,0,1-.74-1.51,1.66,1.66,0,0,1,.58-1.37A3,3,0,0,1,58,234.2l1.89-.19v-.3a1,1,0,0,0-.39-.87,1.85,1.85,0,0,0-1.08-.27,3.63,3.63,0,0,0-1,.15,5.71,5.71,0,0,0-.89.34,1,1,0,0,1-.23-.26.71.71,0,0,1-.1-.35.6.6,0,0,1,.12-.38.92.92,0,0,1,.36-.25,3.1,3.1,0,0,1,.86-.28A5.72,5.72,0,0,1,58.5,231.45Zm0,5.62a3,3,0,0,0,.83-.1,1.65,1.65,0,0,0,.5-.2v-1.72l-1.48.15a2,2,0,0,0-.93.28.71.71,0,0,0-.31.64.83.83,0,0,0,.33.7A1.86,1.86,0,0,0,58.53,237.07Z"/><path class="cls-1" d="M63,229.69a.79.79,0,0,1,.24-.59.87.87,0,0,1,.63-.24.8.8,0,0,1,.84.83.84.84,0,0,1-.23.59.82.82,0,0,1-.61.24.87.87,0,0,1-.63-.24A.81.81,0,0,1,63,229.69ZM64.54,238a1.05,1.05,0,0,1-.26.07,2.13,2.13,0,0,1-.39,0,.94.94,0,0,1-.58-.15.59.59,0,0,1-.19-.5v-5.73l.28-.07a1.48,1.48,0,0,1,.38,0,.92.92,0,0,1,.58.15.63.63,0,0,1,.18.51Z"/><path class="cls-1" d="M67.89,238a1.15,1.15,0,0,1-.27.07,2,2,0,0,1-.37,0,.92.92,0,0,1-.58-.15.59.59,0,0,1-.19-.5V233a1,1,0,0,1,.13-.55,1.33,1.33,0,0,1,.44-.4,3.77,3.77,0,0,1,1-.41,5.13,5.13,0,0,1,1.34-.16c.79,0,1.19.22,1.19.68a1,1,0,0,1,0,.3,1.17,1.17,0,0,1-.13.25l-.33-.05a3,3,0,0,0-.44,0,3.84,3.84,0,0,0-1,.12,2.73,2.73,0,0,0-.75.29Z"/><path class="cls-1" d="M76.82,231.45a3.3,3.3,0,0,1,2,.55,2,2,0,0,1,.74,1.72v3.16a.74.74,0,0,1-.14.48,1.63,1.63,0,0,1-.39.32,3.93,3.93,0,0,1-.9.35,5,5,0,0,1-1.29.15,3.47,3.47,0,0,1-2-.52,1.72,1.72,0,0,1-.74-1.51,1.66,1.66,0,0,1,.58-1.37,3,3,0,0,1,1.65-.58l1.89-.19v-.3a1,1,0,0,0-.39-.87,1.88,1.88,0,0,0-1.08-.27,3.58,3.58,0,0,0-1,.15,5.71,5.71,0,0,0-.89.34,1,1,0,0,1-.23-.26.62.62,0,0,1-.1-.35.6.6,0,0,1,.12-.38.79.79,0,0,1,.36-.25,3.1,3.1,0,0,1,.86-.28A5.72,5.72,0,0,1,76.82,231.45Zm0,5.62a3,3,0,0,0,.83-.1,1.65,1.65,0,0,0,.5-.2v-1.72l-1.48.15a2,2,0,0,0-.93.28.71.71,0,0,0-.31.64.83.83,0,0,0,.33.7A1.86,1.86,0,0,0,76.85,237.07Z"/><path class="cls-1" d="M81.39,231.65l.27-.06a2.17,2.17,0,0,1,.38,0,.88.88,0,0,1,.57.15.63.63,0,0,1,.18.51v3.35a1.33,1.33,0,0,0,.42,1.11,1.76,1.76,0,0,0,1.14.33,3,3,0,0,0,.8-.09,2.16,2.16,0,0,0,.51-.2v-5.07l.28-.06a2.13,2.13,0,0,1,.37,0,1,1,0,0,1,.59.15.63.63,0,0,1,.19.51v4.56a1.12,1.12,0,0,1-.1.49,1,1,0,0,1-.38.37,4.3,4.3,0,0,1-.93.36,4.87,4.87,0,0,1-1.34.16,3.45,3.45,0,0,1-2.18-.61,2.34,2.34,0,0,1-.77-2Z"/><path class="cls-1" d="M94.78,232.6a2.28,2.28,0,0,0-.8.14,1.65,1.65,0,0,0-.63.43,2,2,0,0,0-.42.7,2.52,2.52,0,0,0-.16.95,2.22,2.22,0,0,0,.56,1.63,1.92,1.92,0,0,0,1.45.56,2.59,2.59,0,0,0,.88-.13,2.67,2.67,0,0,0,.63-.33,1.22,1.22,0,0,1,.29.26.62.62,0,0,1,.1.37c0,.28-.18.51-.54.7a3.17,3.17,0,0,1-1.45.28,4.22,4.22,0,0,1-1.36-.2,2.75,2.75,0,0,1-1.06-.62,2.89,2.89,0,0,1-.7-1.05,4.11,4.11,0,0,1-.25-1.47,3.79,3.79,0,0,1,.27-1.48,2.91,2.91,0,0,1,.71-1.05,3,3,0,0,1,1.07-.63,3.86,3.86,0,0,1,1.28-.21,4,4,0,0,1,.81.08,2.5,2.5,0,0,1,.62.22,1.5,1.5,0,0,1,.4.33.64.64,0,0,1,.14.38.68.68,0,0,1-.1.35.94.94,0,0,1-.25.24,4.63,4.63,0,0,0-.63-.32A2.64,2.64,0,0,0,94.78,232.6Z"/><path class="cls-1" d="M102.08,232.93a1.56,1.56,0,0,0-1-.34,2,2,0,0,0-.79.14,2.69,2.69,0,0,0-.63.34V238a1.05,1.05,0,0,1-.26.07,2.22,2.22,0,0,1-.38,0,.94.94,0,0,1-.58-.15.59.59,0,0,1-.19-.5v-8.22l.27-.07a1.58,1.58,0,0,1,.38,0,.94.94,0,0,1,.58.15.61.61,0,0,1,.18.5v2.14a4,4,0,0,1,.72-.29,3,3,0,0,1,.93-.13,2.82,2.82,0,0,1,1.9.62,2.36,2.36,0,0,1,.73,1.9v4a1.15,1.15,0,0,1-.27.07,2.21,2.21,0,0,1-.37,0,1,1,0,0,1-.59-.15.62.62,0,0,1-.18-.5V234A1.36,1.36,0,0,0,102.08,232.93Z"/><path class="cls-1" d="M111.84,234.81a4.05,4.05,0,0,1-.23,1.39,3.06,3.06,0,0,1-.65,1.06,2.75,2.75,0,0,1-1,.67,3.49,3.49,0,0,1-1.32.23,3.54,3.54,0,0,1-1.33-.23,2.84,2.84,0,0,1-1-.67,3,3,0,0,1-.64-1.06,3.83,3.83,0,0,1-.23-1.39,3.88,3.88,0,0,1,.23-1.4,3,3,0,0,1,.65-1,2.79,2.79,0,0,1,1-.67,3.52,3.52,0,0,1,1.32-.24,3.47,3.47,0,0,1,1.31.24,2.75,2.75,0,0,1,1,.67,3.25,3.25,0,0,1,.65,1.06A4,4,0,0,1,111.84,234.81Zm-3.21-2.22a1.57,1.57,0,0,0-1.29.58,2.5,2.5,0,0,0-.47,1.64,2.53,2.53,0,0,0,.46,1.63,1.77,1.77,0,0,0,2.6,0,2.59,2.59,0,0,0,.46-1.63,2.55,2.55,0,0,0-.47-1.63A1.53,1.53,0,0,0,108.63,232.59Z"/><path class="cls-1" d="M116.48,232.6a2.28,2.28,0,0,0-.8.14,1.81,1.81,0,0,0-.63.43,2.29,2.29,0,0,0-.42.7,2.75,2.75,0,0,0-.15.95,2.22,2.22,0,0,0,.55,1.63,1.92,1.92,0,0,0,1.45.56,2.55,2.55,0,0,0,.88-.13,2.75,2.75,0,0,0,.64-.33,1.17,1.17,0,0,1,.28.26.62.62,0,0,1,.11.37c0,.28-.18.51-.55.7a3.13,3.13,0,0,1-1.44.28A4.18,4.18,0,0,1,115,238a2.68,2.68,0,0,1-1.06-.62,2.77,2.77,0,0,1-.7-1.05,3.9,3.9,0,0,1-.25-1.47,4,4,0,0,1,.26-1.48,3.06,3.06,0,0,1,.72-1.05,3,3,0,0,1,1.06-.63,4,4,0,0,1,1.29-.21,3.87,3.87,0,0,1,.8.08,2.36,2.36,0,0,1,.62.22,1.5,1.5,0,0,1,.4.33.64.64,0,0,1,.14.38.6.6,0,0,1-.1.35.82.82,0,0,1-.25.24,4.63,4.63,0,0,0-.63-.32A2.64,2.64,0,0,0,116.48,232.6Z"/><path class="cls-1" d="M125.78,234.81a3.83,3.83,0,0,1-.23,1.39,3,3,0,0,1-.64,1.06,2.84,2.84,0,0,1-1,.67,3.54,3.54,0,0,1-1.33.23,3.49,3.49,0,0,1-1.32-.23,2.75,2.75,0,0,1-1-.67,3.06,3.06,0,0,1-.65-1.06,4.05,4.05,0,0,1-.23-1.39,4.11,4.11,0,0,1,.23-1.4,3.11,3.11,0,0,1,.65-1,2.75,2.75,0,0,1,1-.67,3.47,3.47,0,0,1,1.31-.24,3.52,3.52,0,0,1,1.32.24,2.79,2.79,0,0,1,1,.67,3.09,3.09,0,0,1,.65,1.06A3.79,3.79,0,0,1,125.78,234.81Zm-3.21-2.22a1.55,1.55,0,0,0-1.28.58,2.51,2.51,0,0,0-.48,1.64,2.59,2.59,0,0,0,.46,1.63,1.77,1.77,0,0,0,2.6,0,3.12,3.12,0,0,0,0-3.26A1.56,1.56,0,0,0,122.57,232.59Z"/><path class="cls-1" d="M128.18,238.06a.92.92,0,0,1-.58-.15.59.59,0,0,1-.19-.5v-8.22l.27-.07a1.48,1.48,0,0,1,.38,0,.94.94,0,0,1,.58.15.58.58,0,0,1,.19.5V238a1.42,1.42,0,0,1-.28.07A2.1,2.1,0,0,1,128.18,238.06Z"/><path class="cls-1" d="M133.13,231.45a3.3,3.3,0,0,1,2,.55,2,2,0,0,1,.74,1.72v3.16a.74.74,0,0,1-.14.48,1.45,1.45,0,0,1-.39.32,3.93,3.93,0,0,1-.9.35,5,5,0,0,1-1.29.15,3.49,3.49,0,0,1-2-.52,1.72,1.72,0,0,1-.74-1.51,1.66,1.66,0,0,1,.58-1.37,3,3,0,0,1,1.66-.58l1.88-.19v-.3a1,1,0,0,0-.39-.87,1.84,1.84,0,0,0-1.07-.27,3.65,3.65,0,0,0-1.05.15,5.71,5.71,0,0,0-.89.34,1,1,0,0,1-.23-.26.71.71,0,0,1-.1-.35.6.6,0,0,1,.12-.38.92.92,0,0,1,.36-.25,3.1,3.1,0,0,1,.86-.28A5.72,5.72,0,0,1,133.13,231.45Zm0,5.62a3,3,0,0,0,.83-.1,1.65,1.65,0,0,0,.5-.2v-1.72l-1.48.15a2,2,0,0,0-.93.28.71.71,0,0,0-.31.64.83.83,0,0,0,.33.7A1.86,1.86,0,0,0,133.16,237.07Z"/><path class="cls-1" d="M139.4,236.81a1.34,1.34,0,0,0,.8.2,2.12,2.12,0,0,0,.49-.06,2.35,2.35,0,0,0,.45-.17,2.2,2.2,0,0,1,.17.25.79.79,0,0,1,.07.32.66.66,0,0,1-.36.58,2,2,0,0,1-1.09.23,2.64,2.64,0,0,1-1.62-.45,1.75,1.75,0,0,1-.6-1.49v-6.33l.27-.07a2.22,2.22,0,0,1,.38,0,.94.94,0,0,1,.58.15.62.62,0,0,1,.18.5v1.34h2.1a1.3,1.3,0,0,1,.1.23,1.13,1.13,0,0,1,.05.32c0,.38-.17.58-.5.58h-1.75v3.22A.79.79,0,0,0,139.4,236.81Z"/></g><g id="Calque_14" data-name="Calque 14"><path class="cls-3" d="M18.45,115.56c.17.08.21,0,.25,0l.12-.12.25-.24.5-.47c.34-.31.69-.6,1-.9a22.73,22.73,0,0,1,2.16-1.64A10.34,10.34,0,0,1,25.13,111a4.73,4.73,0,0,1,2.45-.18,17.43,17.43,0,0,1,5,1.72,16.18,16.18,0,0,1,2.24,1.34,7.3,7.3,0,0,1,1.7,1.58l2.07-1.64A9.52,9.52,0,0,0,36,111.92a20.92,20.92,0,0,0-2.66-1.2,18.61,18.61,0,0,0-5.64-1.24,4.57,4.57,0,0,0-.74,0h-.37l-.4.07-.38.07-.37.12a4.19,4.19,0,0,0-.7.26,13.21,13.21,0,0,0-2.45,1.51,23.14,23.14,0,0,0-2.1,1.85c-.34.33-.65.67-1,1l-.46.52-.23.27-.11.14S18.36,115.41,18.45,115.56Z"/><path class="cls-3" d="M28.25,113.23c-.09-.16-.05-.21,0-.25l.11-.13.24-.27.47-.51c.32-.33.64-.67,1-1a23.18,23.18,0,0,1,2.15-1.79,12.73,12.73,0,0,1,2.49-1.44,5.41,5.41,0,0,1,.71-.25l.37-.1.39-.06.39-.06h.37a4.67,4.67,0,0,1,.75,0,19,19,0,0,1,5.59,1.39,21.17,21.17,0,0,1,2.63,1.27,9.63,9.63,0,0,1,2.52,2L46.3,113.6A7.57,7.57,0,0,0,44.64,112a16.56,16.56,0,0,0-2.21-1.4,17.47,17.47,0,0,0-4.92-1.85,4.66,4.66,0,0,0-2.46.11A10.66,10.66,0,0,0,32.66,110a25.64,25.64,0,0,0-2.21,1.59c-.35.28-.71.57-1.06.87l-.51.45-.26.23-.12.12S28.42,113.3,28.25,113.23Z"/></g><g id="Calque_22" data-name="Calque 22"><path class="cls-5" d="M85.63,172.78l.34,0,0-.13Z"/><path class="cls-5" d="M85.08,174.38h.1v-.11Z"/><path class="cls-5" d="M86,172.67a3.87,3.87,0,0,1,.21-1.5l.78.06c.23-.26.08-.55.12-.82.19,0,.39,0,.41-.11.18-.35,0-.62-.36-.73C86.06,171.07,83.94,171.42,86,172.67Z"/><path class="cls-5" d="M84.35,173.62l1,.1a1.67,1.67,0,0,0,.27-.93A2.58,2.58,0,0,0,84.35,173.62Z"/><path class="cls-5" d="M70.36,132.73s0,0-.07-.17a.87.87,0,0,1,.07.17s0,0,.06.06a7.3,7.3,0,0,0-1.19-1.86l-.25-.15a7.36,7.36,0,0,1,2,4.74A7.12,7.12,0,0,0,70.36,132.73Z"/><path class="cls-5" d="M68.78,130.78l-.13-.13C68.75,130.78,68.77,130.79,68.78,130.78Z"/><path class="cls-5" d="M54.37,155.62a5,5,0,0,0-.59,2.53,12.08,12.08,0,0,1,2-4.62A18.45,18.45,0,0,0,54.37,155.62Z"/><path class="cls-5" d="M54.86,161.45c-.21-.82-.49-1.46-.67-2.24a5.18,5.18,0,0,0,.5,2.09Z"/><path class="cls-5" d="M54.14,160.58a14.1,14.1,0,0,1-.36-2.43A4.17,4.17,0,0,0,54.14,160.58Z"/><path class="cls-5" d="M66.2,142c.55-.58.87-.94,1-1.14l.27-.42-.1.1a17.84,17.84,0,0,1-1.71,1.78L65,143C65.43,142.69,65.83,142.35,66.2,142Z"/><path class="cls-5" d="M67.24,140.87c-.54.89.71-.79,0,0Z"/><path class="cls-5" d="M64.15,145.24l-.1.08-.28.24Z"/><path class="cls-5" d="M55.54,150.87c.56-.49,1.13-1,1.69-1.42a18.32,18.32,0,0,0-3.12,2.91c.13-.14.3-.24.43-.37A5.45,5.45,0,0,1,55.54,150.87Z"/><path class="cls-5" d="M68.21,141.23a40,40,0,0,1-4.16,4.09c-3,2.4-6,4.62-7.93,7.3A17.45,17.45,0,0,0,53.66,157a5.62,5.62,0,0,0-.22,2.37,3.32,3.32,0,0,0,.82,1.77,3.75,3.75,0,0,0-.12-.6,3.11,3.11,0,0,0,.55.72,8.46,8.46,0,0,0,3.39,3.51,21.34,21.34,0,0,0,5.38,2.06c.61.17,1.17,0,1.8.14s1.3.22,1.95.31a.09.09,0,0,0,0-.07c1.37.17,2.77.27,4.22.32a39.44,39.44,0,0,0,4.37-.06c1.29,0,2.59.1,4,.11.53,0,.47.51.8.65a15.38,15.38,0,0,0,4.07,1.56l0,.41a1.87,1.87,0,0,1,.69,0c-1,1.48-3.11,1.83-1.09,3.05h0l-.34.11h0v0a2.58,2.58,0,0,0-1.22.81l1,.1a1.1,1.1,0,0,0-.14.55l-.1.1-.26,0a1.35,1.35,0,0,0-.14.3c-.91.48-2.25.61-2.06,1.18.16.3.79.14,1.5.06l.13.15c-.92,0-.11.92-.67,1-.72-.1-1.46-.07-2.19-.18l-8.5-1.16-.39-.06a21.08,21.08,0,0,1-4.08-1.05l.32-.11a25.07,25.07,0,0,0-3.3-1,21,21,0,0,1-8.35-3.32,17.72,17.72,0,0,1-3.72-3.67,12.7,12.7,0,0,1-2.27-5,14.31,14.31,0,0,0,1.87,4.24A11,11,0,0,0,52.36,168c-.41-.55-.8-1.1-1.15-1.67a17.63,17.63,0,0,1-2-7.32c.08-.22.14-.22.19-.44a19.27,19.27,0,0,1,1.58-4.1s.32-.55.11-.44a19,19,0,0,1,2.57-2.9c.38-.35.72-.72,1.06-1.09,1.64-1.3,3.35-2.36,5-3.46A57,57,0,0,0,64.62,143,26.91,26.91,0,0,0,67,140.87,27.29,27.29,0,0,1,63.57,144c-1.27.91-2.53,1.75-3.52,2.51l-.71.53q2.23-1.49,4.23-3c.74-.54,1.49-1.11,2.17-1.71l0,0c-.52.49-1.07,1-1.64,1.43-1.11.83-2.22,1.59-3.14,2.3l-.33.27-.7.53c.9-.62,1.78-1.25,2.63-1.89.52-.4,1-.8,1.54-1.21l1-.75-.09.09c-.26.24-.91,1-.44.76a25.68,25.68,0,0,0,3.16-3,15,15,0,0,0,1-1.25l.33-.51a7.7,7.7,0,0,1-1.2,1.75c-.73.86-1.56,1.65-1.49,1.59l.6-.53-.5.54c-.38.38-.94.84-1.19,1.1-.89.9-2.08,1.76-3.2,2.7-.69.59-1.52,1.31-2.32,2.07,0,0-.42.36-.24.29a8,8,0,0,0-1.93,1.84l-.05.06a2.2,2.2,0,0,0-.19.21,12,12,0,0,0-2.72,3.46c-.28.42-.57.85-.83,1.3.18-.29.5-.69.66-1l.17-.3a24.74,24.74,0,0,1,2.45-3.1l.27-.36.21-.18,0-.09c.88-.91,2-1.82,2.78-2.53,1.56-1.3,3.33-2.54,4.92-3.87-.77.69-1.54,1.35-2.3,2,1-.79,1.86-1.56,2.7-2.33l.39-.35c.28-.24.54-.49.81-.74l-.76.67c.49-.47,1-.95,1.4-1.44a10.06,10.06,0,0,0,2.78-4.64,6.71,6.71,0,0,0-.89-5.18l.2.15a7.35,7.35,0,0,1,.91,4.77,7,7,0,0,0,0-2.7s0,0,0,.07a6.58,6.58,0,0,0-.73-1.94,3.74,3.74,0,0,1,.46.61,5.32,5.32,0,0,1,.45,1.41,7.94,7.94,0,0,1-2,6.53,33.08,33.08,0,0,1-4.51,4.28A34.29,34.29,0,0,0,68.21,141.23Zm12.15,31.25-.59.14.07.09A.72.72,0,0,0,80.36,172.48ZM76.25,172a14.19,14.19,0,0,0,4.38.11l0-.1A32.37,32.37,0,0,0,76.25,172ZM72,169l0,0V169Zm-18.85-5.73a16.37,16.37,0,0,0,3.21,3.17c.38.3,1,.32,1.49.66a13,13,0,0,0,1.87.61l-.34-.36c1,.56,1.79.31,2.8.84a.41.41,0,0,1,.42-.16,11.62,11.62,0,0,0,2.26.53,11.52,11.52,0,0,0,2.4.22c.17,0,.59-.21,1-.25l1.26.11,0-.1a5.85,5.85,0,0,0-1-.08,19.8,19.8,0,0,1-3.29-.14,32.25,32.25,0,0,1-6.84-1.56,10.94,10.94,0,0,1-1.35-.5c-1.36-.58-2.39-1.93-3.29-2.51C53.47,163.63,53.33,163.35,53.14,163.26Zm-3.48-1.14a16.85,16.85,0,0,0,3.26,5.95,9.08,9.08,0,0,0,2.91,2.2c1.15.54,2.13.6,2.06,0a3.7,3.7,0,0,1-2.71-.88,11.5,11.5,0,0,1-3-3C50.53,163.9,50.34,161.23,49.66,162.12Zm8.1-14-2,1.42C56.42,149,57.09,148.56,57.76,148.11ZM53,154.56a18.74,18.74,0,0,1,5-5.46c1.44-1.16,3.17-2.21,4.39-3.31l0,0-.13.12c-.53.37-1,.63-1.43.92l.07-.05-.13.09c-.3.19-.61.4-1,.66l-.47.37a23.59,23.59,0,0,0-5.13,4.51,12.8,12.8,0,0,0-1.86,3.3C52.44,155.34,52.78,154.89,53,154.56Z"/><path class="cls-5" d="M65.78,143.56q.87-.8,1.68-1.68c.42-.46.8-.93,1.17-1.42a8,8,0,0,0,1.71-4.14A6.29,6.29,0,0,0,69.16,132c-.1,0-.16,0-.16.12a6.43,6.43,0,0,1,1.1,4.51,6.79,6.79,0,0,1-.71,2.29,9.83,9.83,0,0,1-1.44,2l0,.06a29.52,29.52,0,0,1-4,3.88c-1.35,1.22-2.81,2.32-4.18,3.54C61.79,146.74,63.8,145.25,65.78,143.56Z"/><path class="cls-5" d="M54.19,159.21a4.73,4.73,0,0,1,0-.75,5.71,5.71,0,0,1,.14-.79,13.49,13.49,0,0,1,2.07-4.46,19.92,19.92,0,0,0-2,3.08A4.43,4.43,0,0,0,54.19,159.21Z"/><path class="cls-5" d="M57.27,152c-.3.39-.58.78-.85,1.17a36,36,0,0,1,4-4.25c2.36-2.22,5-4.18,7.23-6.62.25-.27.5-.55.73-.83a56.38,56.38,0,0,1-6.72,6A26.16,26.16,0,0,0,56,153.28l-.15.25a36.6,36.6,0,0,1,4.94-5.11A28.87,28.87,0,0,0,57.27,152Z"/><polygon class="cls-5" points="65.22 144.08 65.62 143.74 66.06 143.32 65.78 143.56 65.22 144.08"/><path class="cls-5" d="M60.73,146.78l-.06,0-1.43,1-2,1.6C58.5,148.47,59.78,147.55,60.73,146.78Z"/><path class="cls-5" d="M55.94,149l-.65.42-.24.26.46-.31Z"/><path class="cls-5" d="M49.21,159a11.36,11.36,0,0,1,2-5.34,17.49,17.49,0,0,1,3.48-3.63l.33-.33a12.58,12.58,0,0,0-4.53,4.74c-.2.39-.38,1-.57,1.46a9.52,9.52,0,0,0-.61,6.18,11,11,0,0,1-.14-3Z"/></g><g id="perso"><g id="Calque_13" data-name="Calque 13"><path class="cls-5" d="M51.73,118.11c-11.09,4.79-17.51-5.83-19.34-9.5a3,3,0,0,1-.07-2.59c1.26-2.9,4.54-6.68,13-6.74,9.88-.08,21.08,8.65,21.08,8.65Z"/></g><path class="cls-6" d="M55.43,126.63s-19.61-6.85-21.9-10.23c0,0-2.71-3.4-1.35-10,0,4.22,8.15,7.42,10,6.8S52,116.09,52,116.09Z"/><path class="cls-7" d="M64.74,127.45c-4.44,1-7.94.56-10.4-1.45-3.93-3.22-3.77-9.09-3.77-9.34,1.1-6.17,4.88-7.55,9-8.53l1.15-.26,1.17-.27c.54-.13,1.1-.27,1.64-.43l.13,0c3.2-.76,8,3.91,9.3,9.09.65,2.52,1.22,8.65-7.37,11Z"/><path class="cls-6" d="M50.89,116.67c0-.28.11-.56.17-.82l-.3-.08c-.07.28-.13.58-.19.89,0,.06,0,.42,0,1l.33.15C50.88,117.1,50.89,116.67,50.89,116.67Zm0,0c0-.28.11-.56.17-.82l-.3-.08c-.07.28-.13.58-.19.89,0,.06,0,.42,0,1l.33.15C50.88,117.1,50.89,116.67,50.89,116.67Zm0,0c0-.28.11-.56.17-.82l-.3-.08c-.07.28-.13.58-.19.89,0,.06,0,.42,0,1l.33.15C50.88,117.1,50.89,116.67,50.89,116.67Zm0,0c0-.28.11-.56.17-.82l-.3-.08c-.07.28-.13.58-.19.89,0,.06,0,.42,0,1l.33.15C50.88,117.1,50.89,116.67,50.89,116.67Zm22.37-.52c-1.17-4.58-5-8.77-8.2-9.34h0l-.24,0a3.42,3.42,0,0,0-1.2.06l-.15,0c-.47.14-1,.27-1.63.42l-1.16.27-1.15.27c-4,.94-7.63,2.25-9,7.64a1.46,1.46,0,0,1,0,.2c-.06.28-.13.58-.18.89v.09s0,.36,0,.84a11.11,11.11,0,0,0,.1,1.13,11.7,11.7,0,0,0,3.63,7.5h0a.63.63,0,0,0,.12.11,8.65,8.65,0,0,0,3.25,1.66h0a6.33,6.33,0,0,0,1,.22h.05a3,3,0,0,0,.43.08h.16a11.05,11.05,0,0,0,1.75.08c.2,0,.41,0,.62,0a16.07,16.07,0,0,0,2-.24c.45-.07.92-.17,1.4-.28l.82-.21h0l.51-.14C74.5,124.86,73.91,118.72,73.26,116.15ZM65.5,126.93l-.83.21-.61.13c-.24.06-.48.1-.71.14a11.05,11.05,0,0,1-1.22.16,12.07,12.07,0,0,1-1.55.1,11.2,11.2,0,0,1-1.32-.07h0a8.82,8.82,0,0,1-3.9-1.29h0c-3.16-2-4.07-5.71-4.33-7.9,0-.22,0-.43-.06-.62,0-.69,0-1.12,0-1.12,0-.28.11-.56.17-.82l0-.13h0c1.26-5.16,4.7-6.37,8.53-7.28L62,107.9c.55-.13,1.11-.27,1.66-.43l.11,0a3,3,0,0,1,1.31,0,4.94,4.94,0,0,1,1.33.47l0,0c5.48,2.77,11.76,15.16-.4,18.86ZM50.89,116.67c0-.28.11-.56.17-.82l-.3-.08c-.07.28-.13.58-.19.89,0,.06,0,.42,0,1l.33.15C50.88,117.1,50.89,116.67,50.89,116.67Zm0,0c0-.28.11-.56.17-.82l-.3-.08c-.07.28-.13.58-.19.89,0,.06,0,.42,0,1l.33.15C50.88,117.1,50.89,116.67,50.89,116.67Z"/><path class="cls-5" d="M65.1,122.35s5.49-4.48-.93-8.74-9,5.49-6.61,7S61.72,124.38,65.1,122.35Z"/><path class="cls-3" d="M153.41,177.29c-.39-.16-.41-.31-.39-.46l0-.45,0-.9-.08-1.79-.19-3.58c-.13-2.39-.29-4.78-.51-7.15A72,72,0,0,0,149.81,149c-1.22-4.3-4.11-7.93-7.42-11A28.24,28.24,0,0,0,137,134.2a13.69,13.69,0,0,0-2.8-1.13,3,3,0,0,0-1.82-.13l-1.59-5.75a8.61,8.61,0,0,1,5.22.62,19.38,19.38,0,0,1,3.67,2,34.61,34.61,0,0,1,5.83,5.12,35.43,35.43,0,0,1,4.51,6.16,24.83,24.83,0,0,1,1.66,3.49,25.64,25.64,0,0,1,1,3.72,96.45,96.45,0,0,1,1.32,14.56c.09,2.41.08,4.82.06,7.23,0,1.2-.07,2.41-.12,3.61l-.08,1.8,0,.9,0,.45C153.84,177,153.81,177.14,153.41,177.29Z"/></g><g id="Calque_15" data-name="Calque 15"><path class="cls-5" d="M44.14,112.87s6.71,3.33,7.54,3,.91-2.19,1.24-2.54,1.34-.57,1.28-2c0-.39,1.5-1.32,2-1.39a.65.65,0,0,1,.39.13,2.46,2.46,0,0,0,3-.3c1-1,2.31-1.63,2.54-1.39a1.21,1.21,0,0,0,2-.22,2.55,2.55,0,0,1,1.31-.91c.37-.09.4-.21-1-.61-2.56-.72-17.44,3.92-17,5S44.14,112.87,44.14,112.87Z"/></g><g id="Calque_18" data-name="Calque 18"><path class="cls-8" d="M114.16,128.09s-10.79-5.46-22-.93S67.4,151.54,68.27,155.93s35.1,11.12,37.63,8.42S129.48,136.22,114.16,128.09Z"/><path class="cls-5" d="M120.24,135.17a10.41,10.41,0,0,0-5.74-7.71h0a27.23,27.23,0,0,0-4.83-1.75l-.69-.18-.69-.16a27.65,27.65,0,0,0-16.35,1.13c-6.8,2.75-14.42,11-19.31,18.24-3.35,5-5.41,9.44-5,11.33a1.35,1.35,0,0,0,.07.27h0a2.13,2.13,0,0,0,.57.85c1,1,3.4,2.42,9.91,4.28.65.19,1.36.38,2.12.58h.05c2.07.54,4.42,1.1,6.92,1.6.82.18,1.65.34,2.48.5a77.74,77.74,0,0,0,12.69,1.52c2,0,3.49-.25,4-.84,0,0,.63-.71,1.58-1.86C111.94,158.13,121.85,144.82,120.24,135.17ZM90,162.77c-.86-.15-1.73-.32-2.6-.5-.22,0-.38-.09-.6-.14h0c-3-.62-6-1.36-8.81-2.19-8.38-2.46-8.91-4-8.94-4.15-.32-1.58,1.49-5.45,4.45-9.86.3-.45.61-.91.94-1.37s.47-.66.72-1c4.72-6.44,11.42-13.35,17.37-15.75a24.33,24.33,0,0,1,9.17-1.73,29,29,0,0,1,6.23.69,7,7,0,0,1,.69.15l.7.17a27.2,27.2,0,0,1,4.6,1.62,8.92,8.92,0,0,1,5,6.68c1.51,9.09-8.58,22.81-12.57,27.48-.34.4-.64.73-.88,1C104.55,164.74,97.79,164.22,90,162.77Z"/></g><g id="Calque_17" data-name="Calque 17"><path class="cls-9" d="M114.61,181.22a14.54,14.54,0,0,1-2.88-.24L71.2,175.17l-.11-.06c-4.13-2.26-5-13.23-2.94-21.16,1.63-6.38,4.72-9.89,8.68-9.89.29,0,.58,0,.88.05a58.42,58.42,0,0,0,7.45.56c13.44,0,21.5-7.38,24.63-22.57,5.22-25.26,8-36.43,20.52-36.43h.16c12.93.11,16.3,5.82,20.33,15.21,4.52,10.54.13,48.33-12,65.53C129.78,179.3,119.77,181.22,114.61,181.22Z"/><path class="cls-6" d="M116.24,98.71a2.56,2.56,0,0,0-.11.24l-.09.21c-.08.21-.15.39-.2.56a1.15,1.15,0,0,0-.06.17c0,.13-.07.24-.1.32a.25.25,0,0,0,0-.07c.06-.15.22-.51.44-1h0q.2-.53.36-1C116.41,98.35,116.32,98.53,116.24,98.71Zm0,0a2.56,2.56,0,0,0-.11.24l-.09.21c-.08.21-.15.39-.2.56a1.15,1.15,0,0,0-.06.17c0,.13-.07.24-.1.32a.25.25,0,0,0,0-.07c.06-.15.22-.51.44-1h0q.2-.53.36-1C116.41,98.35,116.32,98.53,116.24,98.71Zm0,0a2.56,2.56,0,0,0-.11.24l-.09.21c-.08.21-.15.39-.2.56a1.15,1.15,0,0,0-.06.17c0,.13-.07.24-.1.32a.25.25,0,0,0,0-.07c.06-.15.22-.51.44-1h0q.2-.53.36-1C116.41,98.35,116.32,98.53,116.24,98.71Zm0,0a2.56,2.56,0,0,0-.11.24l-.09.21c-.08.21-.15.39-.2.56a1.15,1.15,0,0,0-.06.17c0,.13-.07.24-.1.32a.25.25,0,0,0,0-.07c.06-.15.22-.51.44-1h0q.2-.53.36-1C116.41,98.35,116.32,98.53,116.24,98.71Zm35.21,1.89a40.21,40.21,0,0,0-4.86-9l0,0a15.84,15.84,0,0,0-2.37-2.47l-.13-.12a12.74,12.74,0,0,0-1.37-1l-.21-.13a0,0,0,0,0,0,0l0,0-.29-.18c-.28-.16-.57-.33-.88-.48l-.35-.16s0,0,0,0h0a1.3,1.3,0,0,0-.26-.14,15.6,15.6,0,0,0-2.36-.87,18.43,18.43,0,0,0-1.81-.44,31.14,31.14,0,0,0-6-.57h-.17c-.56,0-1.11,0-1.64.07h-.06a12.9,12.9,0,0,0-6.43,2.29,17.1,17.1,0,0,0-5.08,6.08c-.06.12-.13.24-.19.37a56.74,56.74,0,0,0-4.12,11.6s0,0,0,0c-.18.66-.35,1.33-.51,2l0,.19c-.1.3-.16.62-.24.93-1,4-1.89,8.5-2.9,13.39-.25,1.2-.53,2.34-.83,3.42-.06.24-.13.47-.2.7s-.14.48-.22.71C103,142.06,92.75,144,85.16,144a57.36,57.36,0,0,1-7.36-.55,7.89,7.89,0,0,0-1-.06,6.77,6.77,0,0,0-1.75.22A5.72,5.72,0,0,0,74,144a6.56,6.56,0,0,0-1.35.78c-2.27,1.64-4,4.71-5.15,9a37,37,0,0,0-1.08,8.54c-.07,4.55.71,8.86,2.37,11.44a5.62,5.62,0,0,0,2,2l.23.13.26,0,15.32,2.19,1.58.23,23.51,3.36a15.11,15.11,0,0,0,3,.25A25.66,25.66,0,0,0,128,178l.32-.2c.62-.39,1.19-.81,1.82-1.28h.05a40.69,40.69,0,0,0,9.24-9.67c3.82-5.44,6.88-12.92,9.14-21,.47-1.66.9-3.35,1.29-5.05h0C153.67,124.49,154.29,107.23,151.45,100.6Zm-23.91,76c-.53.34-1.06.64-1.58.92a24,24,0,0,1-11.35,3,13.5,13.5,0,0,1-2.72-.23l-23.67-3.39-1.68-.24-1.79-.25-.25,0-11.42-1.63H73l-1.55-.22a2.68,2.68,0,0,1-.28-.18h0c-2.27-1.58-3.42-6.59-3.34-12.05a37.37,37.37,0,0,1,.41-5.05c.05-.33.11-.66.17-1,.81-4.43,2.47-8.41,5-10.29a5.62,5.62,0,0,1,3.41-1.16,5.32,5.32,0,0,1,.79,0,60.17,60.17,0,0,0,7.54.56,26.57,26.57,0,0,0,12-2.53h0a20.2,20.2,0,0,0,5-3.57h0a28.34,28.34,0,0,0,7-12.17l.21-.69c.07-.23.14-.47.2-.7.31-1.1.59-2.25.84-3.47,1.81-8.76,3.33-15.84,5.08-21.31.15-.49.31-1,.48-1.43l0,0a1.43,1.43,0,0,1,.09-.27h0q.2-.53.36-1a.43.43,0,0,1,0-.07q.15-.43.33-.84a29.64,29.64,0,0,1,1.61-3.47l.1-.18.1-.17a1.18,1.18,0,0,1,.11-.19l.13-.23a1.82,1.82,0,0,1,.15-.23c2.65-4.32,6.09-6.39,11.22-6.39h.16a26.73,26.73,0,0,1,7.43.94,2.19,2.19,0,0,1,.34.1h0a3.19,3.19,0,0,1,.33.11,14.14,14.14,0,0,1,3.25,1.54l.15.1.16.1a17.79,17.79,0,0,1,5.4,6.4c.05.09.1.18.14.27h0a1.59,1.59,0,0,1,.13.22h0c.8,1.49,1.55,3.15,2.34,5,2.55,6,2.14,22.21-1.34,38-.37,1.68-.77,3.36-1.22,5-2.21,8.32-5.32,16.17-9.33,21.87a38.31,38.31,0,0,1-10.16,10.19C127.91,176.32,127.73,176.44,127.54,176.55Zm-11.3-77.84a2.56,2.56,0,0,0-.11.24l-.09.21c-.08.21-.15.39-.2.56a1.15,1.15,0,0,0-.06.17c0,.13-.07.24-.1.32a.25.25,0,0,0,0-.07c.06-.15.22-.51.44-1h0q.2-.53.36-1C116.41,98.35,116.32,98.53,116.24,98.71Zm0,0a2.56,2.56,0,0,0-.11.24l-.09.21c-.08.21-.15.39-.2.56a1.15,1.15,0,0,0-.06.17c0,.13-.07.24-.1.32a.25.25,0,0,0,0-.07c.06-.15.22-.51.44-1h0q.2-.53.36-1C116.41,98.35,116.32,98.53,116.24,98.71Z"/></g><g id="Calque_21" data-name="Calque 21"><path class="cls-7" d="M123.68,125.58c-2.52,0-4.42-4.13-4.42-9.61s1.9-9.61,4.42-9.61,4.42,4.13,4.42,9.61S126.2,125.58,123.68,125.58Z"/><path class="cls-6" d="M123.68,105.65c-3.37,0-5.13,5.19-5.13,10.32s1.76,10.32,5.13,10.32,5.13-5.19,5.13-10.32S127.05,105.65,123.68,105.65Zm0,19.22c-2.05,0-3.71-4-3.71-8.9v-.23c0-.23,0-.46,0-.68a18.65,18.65,0,0,1,.43-3.34c.06-.25.12-.49.19-.73l.09-.28s0,0,0-.08c.67-2.16,1.75-3.56,3-3.56,2,0,3.71,4,3.71,8.9S125.73,124.87,123.68,124.87Z"/><path class="cls-7" d="M141.39,126c-2.26,0-4-3.67-4-8.53s1.71-8.54,4-8.54,4,3.67,4,8.54S143.66,126,141.39,126Z"/><path class="cls-6" d="M141.39,108.2c-3.07,0-4.68,4.65-4.68,9.25s1.61,9.24,4.68,9.24,4.68-4.65,4.68-9.24S144.47,108.2,141.39,108.2Zm0,17.07c-1.52,0-2.8-2.5-3.15-5.89a2.83,2.83,0,0,1-.05-.5c0-.21,0-.41,0-.63s0-.53,0-.8,0-.54,0-.8,0-.43,0-.63a2.83,2.83,0,0,1,.05-.5c.35-3.39,1.63-5.9,3.15-5.9,1.8,0,3.26,3.51,3.26,7.83S143.19,125.27,141.39,125.27Z"/></g><g id="Calque_19" data-name="Calque 19"><path class="cls-8" d="M141.84,89.3c-3.67,3.18-5.47,4.61-15.26,4.21s-10.78,6.71-11,6.92,4.68-9.89-3.36,7.2c1.32-8.77,2.93-11.07,3.22-12.59.33-1.74,3.66-7.4,10.05-9.46a18.85,18.85,0,0,1,11.67,0S144.84,86.72,141.84,89.3Z"/><path class="cls-5" d="M142.69,88a.43.43,0,0,0,0-.11.47.47,0,0,0-.06-.15,1.68,1.68,0,0,0-.41-.55l-.34-.25h0a13.93,13.93,0,0,0-4.59-1.48,19.16,19.16,0,0,0-11.78,0c-6.34,2-9.8,7.61-10.17,9.59a10.53,10.53,0,0,1-.49,1.5,48.9,48.9,0,0,0-2.74,11.1l-.18,1.21.12-.25.4-.85,1.19-2.53h0c.83-1.78,1.48-3.17,2-4.24l.55-1.16c.52-1.12.77-1.66.88-1.94a.41.41,0,0,1,0-.09h0a.62.62,0,0,1,0-.1,8.8,8.8,0,0,1,6-3.72c.3-.06.6-.1.9-.13a10.19,10.19,0,0,1,1.1-.09c.52,0,1,0,1.54,0,1.07,0,2,.06,2.93.06,4.38,0,6.8-.51,8.79-1.59l.15-.08.31-.18.15-.1a19.25,19.25,0,0,0,2.52-1.91l.14-.11,0,0,.14-.13.21-.18.19-.17a2.21,2.21,0,0,0,.42-.56h0a1.09,1.09,0,0,0,.14-.69A.09.09,0,0,0,142.69,88Zm-.36,0a.64.64,0,0,1,0,.2.8.8,0,0,1-.09.36,2.11,2.11,0,0,1-.44.56l-.11.1-.32.28-.21.18a19,19,0,0,1-2.45,1.87l-.15.1-.31.18-.16.08c-2.25,1.2-5.24,1.72-11.53,1.47a16.48,16.48,0,0,0-3.54.22c-.22,0-.42.08-.64.14h0a4.44,4.44,0,0,0-.6.16h0a8.8,8.8,0,0,0-4.88,3.39,9.87,9.87,0,0,0-1.37,2.86c0,.09,0,.16,0,.19s0,0,0,0l-1.31,2.81h0s0,0,0,0c-.44.92-.93,2-1.53,3.25.06-.35.12-.68.17-1,0,0,0,0,0,0a44.58,44.58,0,0,1,2.34-8.76,10.53,10.53,0,0,0,.51-1.55,5.56,5.56,0,0,1,.46-1.27.25.25,0,0,0,0-.07,17,17,0,0,1,6-6.4,15.52,15.52,0,0,1,3.39-1.58,18,18,0,0,1,3-.71h.06a19.8,19.8,0,0,1,2.69-.18,19.18,19.18,0,0,1,5.1.68c.43.13.67.22.69.23.29,0,.68.11,1.12.21a13.82,13.82,0,0,1,2.7.84l.31.15h0a2.47,2.47,0,0,1,.46.31.35.35,0,0,1,.1.08l.12.09a1.14,1.14,0,0,1,.15.17A.9.9,0,0,1,142.33,88Z"/><path class="cls-8" d="M141.75,87s12.8,9,1,13.19c0,0-.09,0-.07,0,3.9-6.74,1-8-1.18-10.5,4.37,2.08,1.81,8-3.12,9.8-.07,0-.14,0-.12-.08,1.89-5.08,1-8-1.14-9.34,0,0,6,6.94-2.06,8.5-.2,0-.37-.11-.32-.27,1.79-5.14-17.64-4.7-17.64-4.7S139.93,86.12,141.75,87Z"/><path class="cls-5" d="M147.89,94.83h0a7.13,7.13,0,0,0-1.3-3.22l0,0a20.83,20.83,0,0,0-4.36-4.41l-.34-.25h0a1,1,0,0,0-.45-.08h0a2.66,2.66,0,0,0-.4,0l-.34,0a12.24,12.24,0,0,0-1.32.2h0c-.43.07-.9.17-1.4.28-5.34,1.18-14.56,4.08-18.81,5.45l-1.08.35-.91.29s0,0-.07,0l-.89.29-.22.07h.18l.81,0h1.59c.83,0,2,0,3.27.08h0l.58,0h0l.65,0c4.43.25,9.94,1,11.32,2.85a1.52,1.52,0,0,1,.21,1.49.33.33,0,0,0,.07.35.46.46,0,0,0,.45.14,5.82,5.82,0,0,0,3.75-1.92,17.73,17.73,0,0,1-.76,2.53.24.24,0,0,0,.06.25.27.27,0,0,0,.28.06c3-1.06,5.35-3.8,5.48-6.39a4.68,4.68,0,0,0,0-.53c.82,1.5.83,3.52-1.39,7.36l-.06.13.08.09a.25.25,0,0,0,.19.09l.08,0c2.92-1,4.6-2.44,5-4.21h0c0-.12.05-.23.07-.35A3.65,3.65,0,0,0,147.89,94.83Zm-.36.94c-.24,1.73-1.76,3.13-4.53,4.17,2.47-4.41,1.95-6.5.71-8.11a3.85,3.85,0,0,0-2-2.21l-.17-.09h0l-.16-.08-.63-.3.42.48.11.13,0,0,.07.08c.27.3.55.59.82.86A14.69,14.69,0,0,1,143.39,92a3.73,3.73,0,0,1,.15,1.26c-.13,2.4-2.29,5-5.06,6,1.31-3.62,1.15-6,.42-7.46a.64.64,0,0,0-.08-.14.8.8,0,0,0-.08-.16,4.52,4.52,0,0,0-1.55-1.58l-1-.63.78.89a11.07,11.07,0,0,1,1.15,1.68l.09.15.08.15a4.92,4.92,0,0,1,.64,3.72c-.43,1.25-1.75,2.1-3.92,2.52a.14.14,0,0,1-.12,0,1.86,1.86,0,0,0-.25-1.81c-1.26-1.73-5.57-2.51-9.61-2.86l-1.09-.09h0l-.88,0c-1.71-.1-3.26-.12-4.35-.13h-.47l.58-.19c6.69-2.16,15.23-4.73,19.77-5.7.5-.1.94-.19,1.33-.25a7.38,7.38,0,0,1,1.36-.14.91.91,0,0,1,.38.06l.13.08a.35.35,0,0,1,.1.08l.12.09.44.35,0,0a0,0,0,0,1,0,0l.22.18c1.41,1.17,3.85,3.46,4.62,5.84a0,0,0,0,1,0,0,4.31,4.31,0,0,1,.21,1.8S147.53,95.74,147.53,95.77Z"/></g><g id="Calque_20" data-name="Calque 20"><path class="cls-3" d="M133.78,148.42a12.81,12.81,0,0,0,.3-6.16,5.9,5.9,0,0,0-1.35-2.53,6.27,6.27,0,0,0-2.43-1.54,9.47,9.47,0,0,0-5.84-.28,8.29,8.29,0,0,0-4.38,4,.08.08,0,0,1-.12,0,.08.08,0,0,1,0-.09,7.34,7.34,0,0,1,4.07-5.18c2.25-.95,4.69-.44,6.75.31a7.21,7.21,0,0,1,2.92,1.91,6.36,6.36,0,0,1,1.47,3.15,11.44,11.44,0,0,1-1.11,6.48.13.13,0,0,1-.17.06.12.12,0,0,1-.07-.15Z"/><ellipse class="cls-3" cx="140.67" cy="117.45" rx="2.54" ry="6.49"/><ellipse class="cls-3" cx="123" cy="115.74" rx="3.03" ry="7.75"/></g><g id="Calque_16" data-name="Calque 16"><path class="cls-3" d="M87.27,187.47c-.4-.14-.42-.29-.42-.44l0-.45,0-.9-.09-1.8c0-1.21-.1-2.41-.12-3.61,0-2.41,0-4.82,0-7.23A95.06,95.06,0,0,1,88,158.48a28.38,28.38,0,0,1,1-3.73,26.15,26.15,0,0,1,1.61-3.52A32.37,32.37,0,0,1,95,145a28.29,28.29,0,0,1,5.95-5,16.54,16.54,0,0,1,3.74-1.77,12.25,12.25,0,0,1,2.24-.53l1.3-.06a.83.83,0,0,1,.67.59,2.46,2.46,0,0,1,.2.73,11.61,11.61,0,0,1,0,1.18l-.08.27a12,12,0,0,0-.46,1.12l-.24.65c-.13.37-.17.49-.23.47a2.63,2.63,0,0,1-.49.05,7.27,7.27,0,0,0-1.23.37,20.18,20.18,0,0,0-2.72,1.35,36.29,36.29,0,0,0-5.26,4c-3.3,3-6.31,6.53-7.57,10.84a75.3,75.3,0,0,0-2.33,13.94c-.22,2.37-.39,4.76-.52,7.14l-.21,3.59-.08,1.79,0,.9V187C87.68,187.17,87.66,187.31,87.27,187.47Z"/><path class="cls-5" d="M59.62,120.75c.15.34.24.68.39,1a4.62,4.62,0,0,1,0,.93,1.86,1.86,0,0,0,0,.41l.09.47a6.23,6.23,0,0,1,.14,1,8.68,8.68,0,0,1-1.16,4l-.24-.09a10,10,0,0,0,.43-3.78,6.63,6.63,0,0,0-.23-.9l-.16-.5a2.8,2.8,0,0,1-.08-.58,3,3,0,0,1,0-1c.2-.32.35-.64.55-1Z"/><path class="cls-5" d="M60.41,120.61a2.81,2.81,0,0,1,.46,1,5.11,5.11,0,0,1,0,1,2.8,2.8,0,0,1-.08.57l-.15.49a5,5,0,0,0-.23.92,9.69,9.69,0,0,0,.54,3.78l-.24.09a9,9,0,0,1-1-3.94,6.4,6.4,0,0,1,.14-1l.09-.47a3,3,0,0,0,0-.42c0-.29-.08-.61-.09-.95a2.62,2.62,0,0,1,.32-1Z"/><path class="cls-5" d="M66.53,120.41a7.78,7.78,0,0,1,.28,1.87,4.59,4.59,0,0,1-.21,1.84,11.29,11.29,0,0,0-.47,1.63,3.9,3.9,0,0,0,.17,1.64l-.24.07a4.06,4.06,0,0,1-.41-1.75A11.7,11.7,0,0,1,65.9,124a5.05,5.05,0,0,0,0-1.6,7.21,7.21,0,0,0-.35-1.53Z"/><path class="cls-5" d="M63.74,122.89a7.47,7.47,0,0,0-.35,1.54,4.72,4.72,0,0,0,0,1.59,13.35,13.35,0,0,1,.24,1.76,4.13,4.13,0,0,1-.41,1.75l-.24-.08a3.59,3.59,0,0,0,.17-1.64,11.67,11.67,0,0,0-.47-1.63,4.77,4.77,0,0,1-.21-1.84,7.71,7.71,0,0,1,.28-1.86Z"/></g><g id="ombre-2" data-name="ombre"><path class="cls-10" d="M17.5,0A17.5,17.5,0,0,0,0,17.5V0Z"/><path class="cls-10" d="M180,12.72V239.29A17.5,17.5,0,0,1,163.17,252H17.5A17.5,17.5,0,0,1,0,234.5V17.5A17.5,17.5,0,0,1,17.5,0H163.17A17.51,17.51,0,0,1,180,12.72Z"/></g></g></svg>