<svg xmlns="http://www.w3.org/2000/svg" viewBox="0 0 180.16 252"><defs><style>.cls-1{fill:#f4f2e4;}.cls-2,.cls-3{fill:#f6b54d;}.cls-3{stroke:#f6b54d;stroke-miterlimit:10;}.cls-4{fill:#ee763f;}.cls-5{opacity:0.46;}.cls-6{fill:#191917;}.cls-7{fill:#b78052;}.cls-8{fill:#d69f6e;}.cls-9{fill:#c95628;}.cls-10{fill:#f5b7a6;}.cls-11{fill:#1e1a19;}.cls-12{opacity:0.24;}.cls-13{opacity:0.22;}.cls-14{opacity:0.17;}.cls-15{opacity:0.32;}.cls-16{fill:#fcd8b6;}</style></defs><g id="Calque_2" data-name="Calque 2"><g id="fond"><path class="cls-1" d="M180,13.56V238.43c0,.24-.07.48-.12.71s-.08.41-.13.61-.14.57-.22.86l-.16.52c-.09.26-.18.53-.29.79s-.16.41-.25.61-.19.43-.3.64a6.09,6.09,0,0,1-.32.62c-.22.41-.46.8-.72,1.19a11.76,11.76,0,0,1-.85,1.15,6.4,6.4,0,0,1-.42.49c-.15.18-.31.35-.47.51a5.66,5.66,0,0,1-.49.49l-.51.47-.51.43c-.23.19-.47.37-.71.54s-.66.45-1,.66-.52.3-.78.44a2.91,2.91,0,0,1-.35.18l-.75.35a3.38,3.38,0,0,1-.44.18l-.45.18-.58.2-.2.06c-.21.07-.43.13-.64.18s-.33.09-.5.12h-.07l-.48.1q-.36.08-.72.12a14.69,14.69,0,0,1-2.22.16H15.82L0,236.18V15.81A15.81,15.81,0,0,1,15.82,0H164.35A15.81,15.81,0,0,1,180,13.56Z"/><path class="cls-1" d="M180,13.56V238.43c0,.24-.07.48-.12.71s-.08.41-.13.61-.14.57-.22.86l-.16.52c-.09.26-.18.53-.29.79s-.16.41-.25.61-.19.43-.3.64a6.09,6.09,0,0,1-.32.62c-.22.41-.46.8-.72,1.19a11.76,11.76,0,0,1-.85,1.15,6.4,6.4,0,0,1-.42.49c-.15.18-.31.35-.47.51a5.66,5.66,0,0,1-.49.49l-.51.47-.51.43c-.23.19-.47.37-.71.54s-.66.45-1,.66-.52.3-.78.44a2.91,2.91,0,0,1-.35.18l-.75.35a3.38,3.38,0,0,1-.44.18l-.45.18-.58.2-.2.06c-.21.07-.43.13-.64.18s-.33.09-.5.12h-.07l-.48.1q-.36.08-.72.12a14.69,14.69,0,0,1-2.22.16H15.82L0,236.18V15.81A15.81,15.81,0,0,1,15.82,0H164.35A15.81,15.81,0,0,1,180,13.56Z"/></g><g id="Calque_11" data-name="Calque 11"><path class="cls-2" d="M55.45,47.81c6.93,9-25.7,12.8-55.45-.33V15.81A15.81,15.81,0,0,1,15.82,0H57.25C48,13.4,41.92,30.16,55.45,47.81Z"/><path class="cls-2" d="M180.16,220.65v15.53a15.18,15.18,0,0,1-.16,2.25c0,.24-.07.48-.12.71s-.08.41-.13.61-.14.57-.22.86l-.16.52c-.09.26-.18.53-.29.79s-.16.41-.25.61-.19.43-.3.64a6.09,6.09,0,0,1-.32.62c-.22.41-.46.8-.72,1.19a11.76,11.76,0,0,1-.85,1.15,6.4,6.4,0,0,1-.42.49c-.15.18-.31.35-.47.51a5.66,5.66,0,0,1-.49.49l-.51.47-.51.43c-.23.19-.47.37-.71.54s-.66.45-1,.66-.52.3-.78.44a2.91,2.91,0,0,1-.35.18l-.75.35a3.38,3.38,0,0,1-.44.18l-.45.18-.58.2-.2.06c-.21.07-.43.13-.64.18s-.33.09-.5.12h-.07l-.48.1q-.36.08-.72.12a14.69,14.69,0,0,1-2.22.16H15.82A15.82,15.82,0,0,1,0,236.18V218.06c46.37,6.85,144.48,4.58,180,2.6Z"/></g><g id="numéro_picto" data-name="numéro + picto"><path class="cls-1" d="M35.28,36.12a5,5,0,0,1,2.22.36,1.78,1.78,0,0,1,.88,1.09,6.78,6.78,0,0,1,.23,1.93,5.89,5.89,0,0,1-.25,1.91,1.53,1.53,0,0,1-.81,1,5,5,0,0,1-2.34.46H20.43a3.1,3.1,0,0,1-2.34-1,3.3,3.3,0,0,1-1-2.38,5.82,5.82,0,0,1,1.42-3.76,14,14,0,0,1,3.42-3c1.34-.81,2.67-1.62,4-2.41a15.91,15.91,0,0,0,3.42-2.71,4.66,4.66,0,0,0,1.42-3.21,2.61,2.61,0,0,0-.27-1,4.36,4.36,0,0,0-.58-1,3,3,0,0,0-1-.74,4.21,4.21,0,0,0-1.88-.34,2.84,2.84,0,0,0-2.1.89A3.06,3.06,0,0,0,24,24l-.16.87v.23a10,10,0,0,1-.05,1.25,2.72,2.72,0,0,1-.36.94c-.38.61-1.36.91-2.95.91-1.76,0-2.81-.48-3.14-1.44a7.23,7.23,0,0,1-.19-1.92,10.24,10.24,0,0,1,2.82-7,9.46,9.46,0,0,1,7.37-3.12,9.47,9.47,0,0,1,7.39,3.15A10.49,10.49,0,0,1,37.51,25a9.18,9.18,0,0,1-.94,4.08,10,10,0,0,1-2.27,3.1,17.83,17.83,0,0,1-5,3.36l-.94.38v.19Z"/></g><g id="nom"><path class="cls-1" d="M52.06,237.93a.77.77,0,0,1-.14.47,1.44,1.44,0,0,1-.44.33,3.43,3.43,0,0,1-1,.31,6.67,6.67,0,0,1-1.27.12,5.87,5.87,0,0,1-1.77-.25,3.46,3.46,0,0,1-1.39-.78,3.56,3.56,0,0,1-.9-1.34,5.07,5.07,0,0,1-.33-1.92,4.88,4.88,0,0,1,.34-1.9,3.69,3.69,0,0,1,2.27-2.15,5,5,0,0,1,1.66-.27,6,6,0,0,1,1.07.1,4.15,4.15,0,0,1,.84.27,1.6,1.6,0,0,1,.54.37.69.69,0,0,1,.19.44.68.68,0,0,1-.12.4,1,1,0,0,1-.3.26,5.88,5.88,0,0,0-.87-.43,3.26,3.26,0,0,0-1.26-.2,3.11,3.11,0,0,0-1.14.2,2.51,2.51,0,0,0-.91.59,2.7,2.7,0,0,0-.6,1,3.69,3.69,0,0,0-.22,1.34,4.14,4.14,0,0,0,.22,1.39,2.87,2.87,0,0,0,.61,1,2.48,2.48,0,0,0,.92.56,3.66,3.66,0,0,0,1.16.18,4.14,4.14,0,0,0,.81-.07,1.94,1.94,0,0,0,.59-.19v-2.16H48.77a.67.67,0,0,1-.12-.24,1.12,1.12,0,0,1,0-.32.62.62,0,0,1,.14-.46.49.49,0,0,1,.38-.15h2.28a.7.7,0,0,1,.47.17.65.65,0,0,1,.18.48Z"/><path class="cls-1" d="M54.73,239.05a1,1,0,0,1-.59-.14.63.63,0,0,1-.19-.51v-8.21l.27-.07a1.58,1.58,0,0,1,.38,0,1,1,0,0,1,.59.15.61.61,0,0,1,.19.5V239l-.28.07A2.13,2.13,0,0,1,54.73,239.05Z"/><path class="cls-1" d="M59.68,232.45a3.25,3.25,0,0,1,2,.55,2,2,0,0,1,.75,1.72v3.16a.78.78,0,0,1-.14.48,1.57,1.57,0,0,1-.39.31A3.59,3.59,0,0,1,61,239a4.89,4.89,0,0,1-1.28.15,3.55,3.55,0,0,1-2.05-.52,1.71,1.71,0,0,1-.74-1.52,1.66,1.66,0,0,1,.57-1.36,3,3,0,0,1,1.66-.58L61,235v-.3a1,1,0,0,0-.39-.87,1.88,1.88,0,0,0-1.08-.27,3.58,3.58,0,0,0-1,.15,5.71,5.71,0,0,0-.89.34.87.87,0,0,1-.23-.27.57.57,0,0,1-.1-.34.6.6,0,0,1,.12-.38.8.8,0,0,1,.36-.26,3.47,3.47,0,0,1,.86-.28A6.83,6.83,0,0,1,59.68,232.45Zm0,5.62a3.28,3.28,0,0,0,.82-.1,1.62,1.62,0,0,0,.51-.2v-1.72l-1.48.15a2.1,2.1,0,0,0-.93.27.73.73,0,0,0-.32.65.84.84,0,0,0,.34.7A1.86,1.86,0,0,0,59.71,238.07Z"/><path class="cls-1" d="M67.36,233.6a2.07,2.07,0,0,0-.8.14,1.69,1.69,0,0,0-.63.43,2,2,0,0,0-.42.69,2.84,2.84,0,0,0-.16,1,2.22,2.22,0,0,0,.56,1.63,2,2,0,0,0,1.45.56,2.59,2.59,0,0,0,.88-.13,2.67,2.67,0,0,0,.63-.33.92.92,0,0,1,.29.26.61.61,0,0,1,.11.36c0,.28-.19.52-.55.71a3.16,3.16,0,0,1-1.44.28,4.46,4.46,0,0,1-1.36-.2,2.92,2.92,0,0,1-1.07-.62,2.87,2.87,0,0,1-.69-1.05,3.9,3.9,0,0,1-.25-1.47,3.8,3.8,0,0,1,.26-1.48A2.91,2.91,0,0,1,66,232.66a3.92,3.92,0,0,1,1.29-.21,3.34,3.34,0,0,1,.8.08,2.36,2.36,0,0,1,.62.22,1.33,1.33,0,0,1,.4.33.64.64,0,0,1,.14.38.62.62,0,0,1-.1.35.68.68,0,0,1-.25.23,4.62,4.62,0,0,0-.63-.31A2.4,2.4,0,0,0,67.36,233.6Z"/><path class="cls-1" d="M71.68,236.52a1.81,1.81,0,0,0,.74,1.15,2.49,2.49,0,0,0,1.4.37,2.91,2.91,0,0,0,1-.18,2.83,2.83,0,0,0,.76-.38.69.69,0,0,1,.38.61.61.61,0,0,1-.18.43,1.64,1.64,0,0,1-.48.34,3.06,3.06,0,0,1-.72.22,4.88,4.88,0,0,1-.88.08,4.57,4.57,0,0,1-1.43-.21,2.85,2.85,0,0,1-1.82-1.72,4.21,4.21,0,0,1-.25-1.48,3.73,3.73,0,0,1,.25-1.43,2.94,2.94,0,0,1,.66-1,3,3,0,0,1,1-.63,3.47,3.47,0,0,1,1.22-.21,3.22,3.22,0,0,1,1.18.21,2.72,2.72,0,0,1,.92.58,2.5,2.5,0,0,1,.6.89,2.9,2.9,0,0,1,.21,1.12.65.65,0,0,1-.17.49.76.76,0,0,1-.47.21Zm1.68-3a1.68,1.68,0,0,0-1.24.5,2,2,0,0,0-.52,1.44l3.33-.47a1.74,1.74,0,0,0-.45-1A1.47,1.47,0,0,0,73.36,233.54Z"/><path class="cls-1" d="M82.78,232.45a3.25,3.25,0,0,1,2,.55,2,2,0,0,1,.75,1.72v3.16a.78.78,0,0,1-.14.48,1.57,1.57,0,0,1-.39.31,3.59,3.59,0,0,1-.91.36,4.89,4.89,0,0,1-1.28.15,3.55,3.55,0,0,1-2-.52,1.71,1.71,0,0,1-.74-1.52,1.66,1.66,0,0,1,.57-1.36,3,3,0,0,1,1.66-.58l1.89-.19v-.3a1,1,0,0,0-.39-.87,1.88,1.88,0,0,0-1.08-.27,3.58,3.58,0,0,0-1,.15,5.71,5.71,0,0,0-.89.34.87.87,0,0,1-.23-.27.57.57,0,0,1-.1-.34.6.6,0,0,1,.12-.38.8.8,0,0,1,.36-.26,3.47,3.47,0,0,1,.86-.28A6.83,6.83,0,0,1,82.78,232.45Zm-1.71-2.1c0-.09,0-.16,0-.22a.62.62,0,0,1,.63-.65.81.81,0,0,1,.63.31l1.22,1.52a.68.68,0,0,1-.2.45.55.55,0,0,1-.4.16.57.57,0,0,1-.31-.07,1.31,1.31,0,0,1-.26-.19Zm1.74,7.72a3.28,3.28,0,0,0,.82-.1,1.62,1.62,0,0,0,.51-.2v-1.72l-1.48.15a2.19,2.19,0,0,0-.94.27.75.75,0,0,0-.31.65.84.84,0,0,0,.34.7A1.86,1.86,0,0,0,82.81,238.07Z"/><path class="cls-1" d="M90.92,239.05a1,1,0,0,1-.58-.14.6.6,0,0,1-.19-.51v-8.21a1.68,1.68,0,0,1,.27-.07,1.48,1.48,0,0,1,.38,0,.94.94,0,0,1,.58.15.58.58,0,0,1,.19.5V239l-.28.07A2.13,2.13,0,0,1,90.92,239.05Z"/><path class="cls-1" d="M93.92,233.23a.76.76,0,0,1-.24.3.63.63,0,0,1-.35.09.81.81,0,0,1-.31-.05l-.26-.12q0-.3.09-.66c0-.24.06-.48.1-.74l.09-.75q0-.37.06-.69a2.11,2.11,0,0,1,.3-.1,1.42,1.42,0,0,1,.36,0,.89.89,0,0,1,.5.14.57.57,0,0,1,.19.48,3.61,3.61,0,0,1,0,.52c0,.2-.08.4-.13.6s-.11.4-.17.58A2.46,2.46,0,0,1,93.92,233.23Z"/><path class="cls-1" d="M101.06,235.8a4.11,4.11,0,0,1-.23,1.4,3.13,3.13,0,0,1-.64,1.06,2.9,2.9,0,0,1-1,.66,3.81,3.81,0,0,1-2.66,0,2.9,2.9,0,0,1-1-.66,3.13,3.13,0,0,1-.64-1.06,4.35,4.35,0,0,1,0-2.79,3,3,0,0,1,.65-1.06,2.88,2.88,0,0,1,1-.67,3.85,3.85,0,0,1,2.62,0,2.9,2.9,0,0,1,1,.68,3,3,0,0,1,.65,1.06A4,4,0,0,1,101.06,235.8Zm-3.21-2.22a1.59,1.59,0,0,0-1.29.59,2.53,2.53,0,0,0-.47,1.63,2.56,2.56,0,0,0,.46,1.64,1.77,1.77,0,0,0,2.6,0,2.56,2.56,0,0,0,.46-1.64,2.59,2.59,0,0,0-.47-1.63A1.56,1.56,0,0,0,97.85,233.58Z"/><path class="cls-1" d="M104,239a1.88,1.88,0,0,1-.64.1,1,1,0,0,1-.58-.14.6.6,0,0,1-.19-.51V234a1,1,0,0,1,.13-.54,1.24,1.24,0,0,1,.44-.4,3.46,3.46,0,0,1,1-.41,5.13,5.13,0,0,1,1.34-.16c.79,0,1.19.22,1.19.67a1.06,1.06,0,0,1,0,.31,1.46,1.46,0,0,1-.13.25l-.33-.06-.44,0a4.2,4.2,0,0,0-1,.11,3.46,3.46,0,0,0-.76.29Z"/><path class="cls-1" d="M110.12,232.45a3.27,3.27,0,0,1,2,.55,2,2,0,0,1,.75,1.72v3.16a.73.73,0,0,1-.15.48,1.35,1.35,0,0,1-.38.31,3.75,3.75,0,0,1-.91.36,5,5,0,0,1-1.29.15,3.57,3.57,0,0,1-2-.52,1.74,1.74,0,0,1-.74-1.52,1.67,1.67,0,0,1,.58-1.36,3,3,0,0,1,1.66-.58l1.88-.19v-.3a1,1,0,0,0-.39-.87,1.82,1.82,0,0,0-1.07-.27,3.58,3.58,0,0,0-1,.15,5.47,5.47,0,0,0-.9.34.87.87,0,0,1-.23-.27.64.64,0,0,1-.09-.34.66.66,0,0,1,.11-.38.93.93,0,0,1,.36-.26,3.42,3.42,0,0,1,.87-.28A6.72,6.72,0,0,1,110.12,232.45Zm0,5.62a3.37,3.37,0,0,0,.83-.1,1.65,1.65,0,0,0,.5-.2v-1.72l-1.48.15a2.19,2.19,0,0,0-.93.27.73.73,0,0,0-.31.65.81.81,0,0,0,.34.7A1.82,1.82,0,0,0,110.14,238.07Z"/><path class="cls-1" d="M118.59,233.9a1.53,1.53,0,0,0-1-.32,2.49,2.49,0,0,0-.85.13,3.52,3.52,0,0,0-.64.27v5a1.88,1.88,0,0,1-.64.1,1,1,0,0,1-.58-.14.6.6,0,0,1-.19-.51v-4.46a1,1,0,0,1,.12-.51,1.38,1.38,0,0,1,.41-.37,3.87,3.87,0,0,1,1-.42,4.47,4.47,0,0,1,1.38-.19,3.22,3.22,0,0,1,2.06.59,2.14,2.14,0,0,1,.74,1.78V239a1.68,1.68,0,0,1-.27.07,2.25,2.25,0,0,1-.38,0,1,1,0,0,1-.58-.14.6.6,0,0,1-.19-.51v-3.53A1.21,1.21,0,0,0,118.59,233.9Z"/><path class="cls-1" d="M126.39,238.38a2.3,2.3,0,0,1-.63.27,3.28,3.28,0,0,1-.89.11,3.86,3.86,0,0,1-1.13-.17,2.75,2.75,0,0,1-.94-.54,2.69,2.69,0,0,1-.64-1,4,4,0,0,1-.24-1.46,3.62,3.62,0,0,1,.24-1.38,2.87,2.87,0,0,1,.66-1,3.06,3.06,0,0,1,1-.6,3.87,3.87,0,0,1,1.31-.2,4,4,0,0,1,1.22.17,3.1,3.1,0,0,1,.91.4,1.05,1.05,0,0,1,.36.33.78.78,0,0,1,.13.46v5.34a2.73,2.73,0,0,1-.23,1.16,2.23,2.23,0,0,1-.65.8,2.8,2.8,0,0,1-1,.44,4.75,4.75,0,0,1-1.22.14,4.66,4.66,0,0,1-1.19-.13,3.35,3.35,0,0,1-.73-.27.77.77,0,0,1-.42-.68.71.71,0,0,1,.1-.39.82.82,0,0,1,.24-.25,3.21,3.21,0,0,0,.83.4,3.55,3.55,0,0,0,1.09.17,2.18,2.18,0,0,0,1.32-.34,1.28,1.28,0,0,0,.47-1.12Zm-1.31-.73a1.93,1.93,0,0,0,.77-.14,2.26,2.26,0,0,0,.53-.32v-3.28a2.34,2.34,0,0,0-.5-.22,2.16,2.16,0,0,0-.71-.11,1.76,1.76,0,0,0-1.32.51,2,2,0,0,0-.51,1.51,2.93,2.93,0,0,0,.14,1,1.74,1.74,0,0,0,.37.64,1.4,1.4,0,0,0,.54.35A2.22,2.22,0,0,0,125.08,237.65Z"/><path class="cls-1" d="M130.72,236.52a1.89,1.89,0,0,0,.74,1.15,2.51,2.51,0,0,0,1.4.37,3,3,0,0,0,1-.18,2.9,2.9,0,0,0,.75-.38.67.67,0,0,1,.38.61.65.65,0,0,1-.17.43,1.64,1.64,0,0,1-.48.34,3.39,3.39,0,0,1-.72.22,5,5,0,0,1-.89.08,4.62,4.62,0,0,1-1.43-.21,3,3,0,0,1-1.1-.65,3,3,0,0,1-.71-1.07,4,4,0,0,1-.25-1.48,3.93,3.93,0,0,1,.24-1.43,3,3,0,0,1,.67-1,2.85,2.85,0,0,1,1-.63,3.51,3.51,0,0,1,1.22-.21,3.23,3.23,0,0,1,1.19.21,2.82,2.82,0,0,1,.92.58,2.61,2.61,0,0,1,.59.89,2.9,2.9,0,0,1,.21,1.12.64.64,0,0,1-.16.49.79.79,0,0,1-.47.21Zm1.68-3a1.7,1.7,0,0,0-1.24.5,2.08,2.08,0,0,0-.52,1.44L134,235a1.67,1.67,0,0,0-.44-1A1.49,1.49,0,0,0,132.4,233.54Z"/><path class="cls-3" d="M164,19a6.63,6.63,0,0,0-.17-1.47,5.61,5.61,0,0,0-5.19-4.35c-1.59-.05-3.2,0-4.79,0a4.26,4.26,0,0,0-.8.09,5.68,5.68,0,0,0-4.59,5.67V34.18a1.56,1.56,0,0,0,1.7,1.69c1.22,0,2.43,0,3.64,0h.35v6.62a1.46,1.46,0,0,0,1.15,1.57,5.8,5.8,0,0,0,1.86,0,1.48,1.48,0,0,0,1.15-1.6c0-2.08,0-4.16,0-6.25,0-.1,0-.21,0-.34h.33c1.2,0,2.41,0,3.61,0A1.64,1.64,0,0,0,164,34.15C164,29.09,164,24,164,19ZM157.24,39.3v3.11c0,.52-.16.68-.67.68h-.83a.51.51,0,0,1-.56-.54c0-.29,0-.57,0-.86,0-1.84,0-3.69,0-5.53,0-.23.07-.3.3-.29.5,0,1,0,1.52,0,.21,0,.26.06.26.27C157.24,37.19,157.24,38.25,157.24,39.3Zm5.7-5.18c0,.55-.16.7-.71.7h-12c-.53,0-.69-.16-.69-.68V24.76A2.13,2.13,0,0,0,151,25a2.07,2.07,0,0,0,1.6-2.07c0-.64,0-1.27,0-1.9,0-.44.19-.62.62-.63h.3c.42,0,.6.19.61.61,0,.77,0,1.55.05,2.31a2,2,0,0,0,2,1.74,2.06,2.06,0,0,0,2-1.73,5.7,5.7,0,0,0,0-.83,1,1,0,0,1,1-1,1,1,0,0,1,1,1.06c0,1,0,1.95,0,2.92a2.1,2.1,0,0,0,2.6,2.15Zm0-8.24c0,.59-.38.84-.92.6a1,1,0,0,1-.62-.95c0-1,0-2.05,0-3.08a2.07,2.07,0,0,0-4.1-.45,7.15,7.15,0,0,0,0,.93,1,1,0,0,1-.62,1,1,1,0,0,1-1.06-.14,1.06,1.06,0,0,1-.38-.88V21a1.56,1.56,0,0,0-1.67-1.67,4.56,4.56,0,0,0-.64,0A1.56,1.56,0,0,0,151.55,21c0,.67,0,1.33,0,2a1,1,0,0,1-.57.93,1,1,0,0,1-1.07-.11,1,1,0,0,1-.41-.8c0-1.54,0-3.09,0-4.63a4.54,4.54,0,0,1,3.82-4.08,5.14,5.14,0,0,1,.88-.07c1.31,0,2.63,0,3.94,0a4.64,4.64,0,0,1,4.69,3.9,5.21,5.21,0,0,1,.06.88c0,1.12,0,2.24,0,3.36Z"/></g><g id="ombre"><path class="cls-4" d="M57.87,203.52s5.32.45,7.75,2.06,14.19.88,14.77-1S85,203.76,86.2,203s-12.64-2.71-15-2.07-12.35.72-13.37.4S50.18,203.44,57.87,203.52Z"/></g><g id="Calque_9" data-name="Calque 9"><g class="cls-5"><ellipse class="cls-6" cx="92.11" cy="203.61" rx="39.75" ry="10.16"/></g></g><g id="Calque_15" data-name="Calque 15"><path class="cls-7" d="M90.69,136.19s-.34,60.47,0,65.39,8.29,6.89,8.67-2,1.52-66.93,1.24-68.48-9.91-1.27-9.91-1.27Z"/><path class="cls-7" d="M90.65,136.21s-.34,60.46,0,65.39,8.29,6.89,8.68-2,1.51-66.94,1.23-68.49-9.91-1.26-9.91-1.26Z"/><path class="cls-7" d="M90.62,136.22s-.35,60.47,0,65.39,8.28,6.89,8.67-2,1.51-66.94,1.23-68.48-9.9-1.27-9.9-1.27Z"/><path class="cls-7" d="M90.58,136.23s-.34,60.47,0,65.39,8.29,6.89,8.67-2,1.52-66.94,1.24-68.49-9.91-1.26-9.91-1.26Z"/><path class="cls-7" d="M90.54,136.25s-.34,60.47,0,65.39,8.29,6.89,8.68-2,1.51-66.94,1.23-68.49-9.91-1.26-9.91-1.26Z"/><path class="cls-7" d="M90.51,136.26s-.35,60.47,0,65.39,8.28,6.89,8.67-2,1.51-66.93,1.23-68.48-9.9-1.27-9.9-1.27Z"/><path class="cls-7" d="M90.47,136.27s-.34,60.47,0,65.4,8.29,6.89,8.67-2,1.52-66.94,1.24-68.49S90.47,130,90.47,130Z"/><path class="cls-7" d="M90.43,136.29s-.34,60.47,0,65.39,8.29,6.89,8.68-2,1.51-66.94,1.23-68.48S90.43,130,90.43,130Z"/><path class="cls-7" d="M90.4,136.3s-.35,60.47,0,65.39,8.28,6.89,8.67-2,1.51-66.93,1.23-68.48S90.4,130,90.4,130Z"/><path class="cls-7" d="M90.36,136.32s-.34,60.46,0,65.39,8.29,6.89,8.67-2,1.52-66.94,1.24-68.49S90.36,130,90.36,130Z"/><path class="cls-7" d="M90.32,136.33s-.34,60.47,0,65.39,8.29,6.89,8.68-2,1.51-66.94,1.23-68.48S90.32,130,90.32,130Z"/><path class="cls-7" d="M90.29,136.34s-.35,60.47,0,65.39,8.28,6.89,8.67-2,1.51-66.94,1.23-68.49-9.9-1.26-9.9-1.26Z"/><path class="cls-7" d="M90.25,136.36s-.34,60.47,0,65.39,8.29,6.89,8.67-2,1.52-66.94,1.24-68.49S90.25,130,90.25,130Z"/><path class="cls-7" d="M90.21,136.37s-.34,60.47,0,65.39,8.29,6.89,8.68-2,1.51-66.93,1.23-68.48S90.21,130,90.21,130Z"/><path class="cls-7" d="M90.18,136.38s-.35,60.47,0,65.4,8.28,6.89,8.67-2,1.52-66.94,1.23-68.49-9.9-1.26-9.9-1.26Z"/><path class="cls-7" d="M90.14,136.4s-.34,60.47,0,65.39,8.29,6.89,8.67-2,1.52-66.94,1.24-68.48-9.91-1.27-9.91-1.27Z"/><path class="cls-7" d="M90.1,136.41s-.34,60.47,0,65.39,8.29,6.89,8.68-2,1.51-66.93,1.23-68.48-9.91-1.27-9.91-1.27Z"/><path class="cls-7" d="M90.07,136.43s-.35,60.46,0,65.39,8.28,6.89,8.67-2,1.52-66.94,1.23-68.49-9.9-1.26-9.9-1.26Z"/><path class="cls-7" d="M90,136.44s-.34,60.47,0,65.39,8.29,6.89,8.67-2,1.52-66.94,1.24-68.48S90,130.11,90,130.11Z"/><path class="cls-7" d="M90,136.45s-.34,60.47,0,65.39,8.29,6.9,8.68-2,1.51-66.94,1.23-68.49S90,130.13,90,130.13Z"/><path class="cls-7" d="M90,136.47s-.35,60.47,0,65.39,8.28,6.89,8.67-2,1.52-66.94,1.23-68.48-9.9-1.27-9.9-1.27Z"/><path class="cls-7" d="M89.92,136.48s-.34,60.47,0,65.39,8.29,6.89,8.68-2,1.51-66.93,1.23-68.48-9.91-1.27-9.91-1.27Z"/><path class="cls-7" d="M89.88,136.5s-.34,60.46,0,65.39,8.29,6.89,8.68-2,1.51-66.94,1.23-68.49-9.91-1.26-9.91-1.26Z"/><path class="cls-7" d="M89.85,136.51s-.35,60.47,0,65.39,8.28,6.89,8.67-2S100,133,99.75,131.45s-9.9-1.27-9.9-1.27Z"/><path class="cls-7" d="M89.81,136.52s-.34,60.47,0,65.39,8.29,6.89,8.68-2S100,133,99.72,131.46s-9.91-1.27-9.91-1.27Z"/><path class="cls-7" d="M89.77,136.54s-.34,60.47,0,65.39,8.29,6.89,8.68-2S100,133,99.68,131.47s-9.91-1.26-9.91-1.26Z"/><path class="cls-7" d="M89.74,136.55s-.35,60.47,0,65.39,8.28,6.89,8.67-2,1.52-66.94,1.23-68.48-9.9-1.27-9.9-1.27Z"/><path class="cls-7" d="M89.7,136.56S89.36,197,89.7,202s8.29,6.9,8.68-2,1.51-66.94,1.23-68.49-9.91-1.26-9.91-1.26Z"/><path class="cls-7" d="M89.66,136.58s-.34,60.47,0,65.39,8.29,6.89,8.68-2,1.51-66.94,1.23-68.48-9.91-1.27-9.91-1.27Z"/><path class="cls-7" d="M89.63,136.59s-.35,60.47,0,65.39,8.28,6.89,8.67-2,1.52-66.93,1.23-68.48-9.9-1.27-9.9-1.27Z"/><path class="cls-7" d="M89.59,136.61s-.34,60.46,0,65.39,8.29,6.89,8.68-2,1.51-66.94,1.23-68.49-9.91-1.26-9.91-1.26Z"/><path class="cls-7" d="M89.55,136.62s-.34,60.47,0,65.39,8.29,6.89,8.68-2,1.51-66.94,1.23-68.48-9.91-1.27-9.91-1.27Z"/><path class="cls-7" d="M89.52,136.63s-.35,60.47,0,65.39,8.28,6.89,8.67-2,1.52-66.93,1.23-68.48-9.9-1.27-9.9-1.27Z"/><path class="cls-7" d="M89.48,136.65s-.34,60.47,0,65.39,8.29,6.89,8.68-2,1.51-66.94,1.23-68.49-9.91-1.26-9.91-1.26Z"/><path class="cls-7" d="M89.44,136.66s-.34,60.47,0,65.39,8.29,6.89,8.68-2,1.51-66.94,1.23-68.48-9.91-1.27-9.91-1.27Z"/><path class="cls-7" d="M89.41,136.67s-.35,60.47,0,65.4,8.28,6.89,8.67-2,1.52-66.94,1.23-68.49-9.9-1.26-9.9-1.26Z"/><path class="cls-7" d="M89.37,136.69s-.34,60.47,0,65.39,8.29,6.89,8.68-2,1.51-66.94,1.23-68.48-9.91-1.27-9.91-1.27Z"/><path class="cls-7" d="M89.33,136.7s-.34,60.47,0,65.39,8.29,6.89,8.68-2,1.51-66.93,1.23-68.48-9.91-1.27-9.91-1.27Z"/><path class="cls-7" d="M89.3,136.72s-.35,60.46,0,65.39,8.28,6.89,8.67-2,1.52-66.94,1.23-68.49-9.9-1.26-9.9-1.26Z"/><path class="cls-7" d="M89.26,136.73s-.34,60.47,0,65.39,8.29,6.89,8.68-2,1.51-66.94,1.23-68.48-9.91-1.27-9.91-1.27Z"/><path class="cls-7" d="M89.22,136.74s-.34,60.47,0,65.39,8.29,6.89,8.68-2,1.51-66.94,1.23-68.49-9.91-1.26-9.91-1.26Z"/><path class="cls-7" d="M89.19,136.76s-.35,60.47,0,65.39,8.28,6.89,8.67-2,1.52-66.94,1.24-68.49-9.91-1.26-9.91-1.26Z"/><path class="cls-7" d="M89.15,136.77s-.34,60.47,0,65.39,8.29,6.89,8.68-2,1.51-66.93,1.23-68.48-9.91-1.27-9.91-1.27Z"/><path class="cls-7" d="M89.11,136.78s-.34,60.47,0,65.4,8.29,6.89,8.68-2S99.3,133.27,99,131.72s-9.91-1.26-9.91-1.26Z"/><path class="cls-7" d="M89.08,136.8s-.35,60.47,0,65.39,8.28,6.89,8.67-2,1.52-66.94,1.24-68.48-9.91-1.27-9.91-1.27Z"/><path class="cls-7" d="M89,136.81s-.34,60.47,0,65.39,8.29,6.89,8.68-2S99.23,133.3,99,131.75,89,130.48,89,130.48Z"/><path class="cls-7" d="M89,136.83s-.35,60.46,0,65.39,8.28,6.89,8.67-2,1.51-66.94,1.23-68.49S89,130.5,89,130.5Z"/><path class="cls-7" d="M89,136.84s-.35,60.47,0,65.39,8.28,6.89,8.67-2,1.52-66.94,1.24-68.48S89,130.51,89,130.51Z"/><path class="cls-7" d="M88.93,136.85s-.34,60.47,0,65.39,8.29,6.89,8.68-2,1.51-66.94,1.23-68.49-9.91-1.26-9.91-1.26Z"/><path class="cls-7" d="M88.9,136.87s-.35,60.47,0,65.39,8.28,6.89,8.67-2,1.51-66.94,1.23-68.49-9.9-1.26-9.9-1.26Z"/><path class="cls-7" d="M88.86,136.88s-.35,60.47,0,65.39,8.28,6.89,8.67-2,1.52-66.93,1.24-68.48-9.91-1.27-9.91-1.27Z"/><path class="cls-7" d="M88.82,136.89s-.34,60.47,0,65.4,8.29,6.89,8.68-2,1.51-66.94,1.23-68.49-9.91-1.26-9.91-1.26Z"/></g><g id="Calque_14" data-name="Calque 14"><path class="cls-8" d="M88.82,136.89s-.34,60.47,0,65.4,8.29,6.89,8.68-2,1.51-66.94,1.23-68.49-9.91-1.26-9.91-1.26Z"/></g><g id="Calque_10" data-name="Calque 10"><path class="cls-9" d="M114.11,143c-13.11,1.46-42.59-1.84-50.39-2.76A2.13,2.13,0,0,1,61.86,138c.32-10,1.9-55.24,4.07-62.74,2.43-8.44,15-13.13,26.25-9.38s21.37,7.5,22.87,23.63S114.11,143,114.11,143Z"/><path class="cls-9" d="M66.12,75.22c2.44-8.44,15-13.13,26.25-9.38s21.38,7.5,22.88,23.63-.94,53.44-.94,53.44c-13.16,1.46-42.79-1.87-50.43-2.78a2.09,2.09,0,0,1-1.82-2.19C62.38,127.94,64,82.71,66.12,75.22Z"/><path class="cls-9" d="M66.32,75.14c2.44-8.44,15-13.12,26.25-9.37s21.37,7.5,22.87,23.62-.93,53.44-.93,53.44c-13.2,1.47-43-1.89-50.47-2.78a2.08,2.08,0,0,1-1.78-2.2C62.58,127.8,64.15,82.63,66.32,75.14Z"/><path class="cls-9" d="M66.51,75.06c2.44-8.43,15-13.12,26.25-9.37s21.38,7.5,22.88,23.62-.94,53.44-.94,53.44c-13.24,1.47-43.16-1.91-50.5-2.78a2.08,2.08,0,0,1-1.75-2.22C62.78,127.67,64.35,82.55,66.51,75.06Z"/><path class="cls-9" d="M66.71,75c2.44-8.44,15-13.13,26.25-9.38s21.37,7.5,22.87,23.63-.93,53.44-.93,53.44c-13.28,1.47-43.36-1.94-50.54-2.79a2.08,2.08,0,0,1-1.71-2.24C63,127.54,64.55,82.47,66.71,75Z"/><path class="cls-9" d="M66.91,74.91c2.43-8.44,15-13.12,26.25-9.37S114.53,73,116,89.16s-.94,53.44-.94,53.44c-13.32,1.48-43.54-1.95-50.58-2.79a2.07,2.07,0,0,1-1.66-2.26C63.18,127.4,64.75,82.39,66.91,74.91Z"/><path class="cls-9" d="M67.1,74.83c2.44-8.43,15-13.12,26.25-9.37s21.38,7.5,22.88,23.62-.94,53.44-.94,53.44c-13.36,1.49-43.74-2-50.62-2.79A2.08,2.08,0,0,1,63,137.45C63.37,127.27,64.94,82.31,67.1,74.83Z"/><path class="cls-9" d="M67.3,74.76c2.44-8.44,15-13.13,26.25-9.38s21.37,7.5,22.87,23.63-.93,53.44-.93,53.44c-13.4,1.48-43.93-2-50.66-2.8a2.08,2.08,0,0,1-1.59-2.3C63.57,127.13,65.14,82.22,67.3,74.76Z"/><path class="cls-9" d="M67.49,74.68c2.44-8.44,15-13.12,26.25-9.37s21.38,7.5,22.88,23.62-.94,53.44-.94,53.44c-13.44,1.49-44.12-2-50.69-2.8a2.07,2.07,0,0,1-1.55-2.31C63.77,127,65.34,82.14,67.49,74.68Z"/><path class="cls-9" d="M67.69,74.6c2.44-8.43,15-13.12,26.25-9.37s21.38,7.5,22.88,23.62-.94,53.44-.94,53.44c-13.48,1.5-44.31-2-50.73-2.81a2.06,2.06,0,0,1-1.52-2.32C64,126.86,65.54,82.06,67.69,74.6Z"/><path class="cls-9" d="M67.89,74.53c2.43-8.44,15-13.13,26.25-9.38s21.37,7.5,22.87,23.63-.94,53.44-.94,53.44c-13.52,1.5-44.5-2.07-50.76-2.82-.88-.1-1.52-1.08-1.48-2.34C64.17,126.73,65.73,82,67.89,74.53Z"/><path class="cls-9" d="M68.08,74.45c2.44-8.44,15-13.12,26.25-9.37s21.38,7.5,22.88,23.62-.94,53.44-.94,53.44c-13.56,1.51-44.69-2.09-50.8-2.82-.86-.1-1.48-1.08-1.44-2.36C64.37,126.59,65.93,81.9,68.08,74.45Z"/><path class="cls-9" d="M68.28,74.37c2.44-8.43,15-13.12,26.25-9.37s21.37,7.5,22.87,23.62-.93,53.44-.93,53.44c-13.61,1.51-44.88-2.11-50.85-2.82-.83-.1-1.44-1.08-1.4-2.38C64.56,126.46,66.13,81.82,68.28,74.37Z"/><path class="cls-9" d="M68.48,74.3c2.43-8.44,15-13.13,26.25-9.38s21.37,7.5,22.87,23.63-.94,53.44-.94,53.44c-13.64,1.51-45.07-2.14-50.88-2.83-.81-.1-1.4-1.08-1.36-2.4C64.76,126.32,66.33,81.73,68.48,74.3Z"/><path class="cls-9" d="M68.67,74.22c2.44-8.44,15-13.12,26.25-9.37s21.38,7.5,22.88,23.62-.94,53.44-.94,53.44c-13.69,1.52-45.26-2.16-50.92-2.83-.79-.1-1.36-1.09-1.32-2.41C65,126.19,66.53,81.65,68.67,74.22Z"/><path class="cls-9" d="M68.87,74.14c2.44-8.43,15-13.12,26.25-9.37s21.37,7.5,22.87,23.62-.93,53.44-.93,53.44c-13.73,1.53-45.46-2.18-51-2.83-.77-.09-1.33-1.09-1.28-2.43C65.16,126.05,66.72,81.57,68.87,74.14Z"/><path class="cls-9" d="M69.06,74.07c2.44-8.44,15-13.13,26.25-9.38s21.38,7.5,22.88,23.63-.94,53.44-.94,53.44c-13.76,1.52-45.64-2.21-51-2.84-.75-.09-1.29-1.09-1.25-2.45C65.36,125.92,66.92,81.49,69.06,74.07Z"/><path class="cls-9" d="M69.26,74c2.44-8.44,15-13.12,26.25-9.37s21.38,7.5,22.88,23.62-.94,53.44-.94,53.44c-13.81,1.53-45.84-2.23-51-2.85-.73-.08-1.26-1.08-1.21-2.46C65.56,125.79,67.12,81.41,69.26,74Z"/><path class="cls-9" d="M69.46,73.91c2.43-8.43,15-13.12,26.25-9.37s21.37,7.5,22.87,23.62-.94,53.44-.94,53.44c-13.84,1.54-46-2.25-51.06-2.85-.71-.08-1.22-1.08-1.17-2.48C65.75,125.65,67.32,81.33,69.46,73.91Z"/><path class="cls-9" d="M69.65,73.84c2.44-8.44,15-13.13,26.25-9.38s21.38,7.5,22.88,23.63-.94,53.44-.94,53.44c-13.89,1.54-46.21-2.28-51.11-2.86-.68-.08-1.17-1.09-1.13-2.5C66,125.52,67.51,81.25,69.65,73.84Z"/><path class="cls-9" d="M69.85,73.76c2.44-8.44,15-13.12,26.25-9.37S117.47,71.89,119,88s-.93,53.44-.93,53.44c-13.93,1.55-46.41-2.3-51.15-2.86-.66-.08-1.14-1.09-1.09-2.51C66.15,125.38,67.71,81.16,69.85,73.76Z"/><path class="cls-9" d="M70.05,73.68c2.43-8.43,15-13.12,26.25-9.37s21.37,7.5,22.87,23.62-.94,53.44-.94,53.44c-14,1.55-46.59-2.32-51.18-2.86-.64-.08-1.1-1.09-1-2.53C66.35,125.25,67.91,81.08,70.05,73.68Z"/><path class="cls-9" d="M70.24,73.61c2.44-8.44,15-13.13,26.25-9.38s21.38,7.5,22.88,23.63-.94,53.44-.94,53.44c-14,1.55-46.79-2.35-51.22-2.87-.62-.08-1.06-1.09-1-2.55C66.55,125.11,68.11,81,70.24,73.61Z"/><path class="cls-9" d="M70.44,73.53c2.44-8.44,15-13.12,26.25-9.37s21.37,7.5,22.87,23.62-.93,53.44-.93,53.44c-14,1.56-47-2.36-51.26-2.87-.6-.07-1-1.09-1-2.57C66.74,125,68.3,80.92,70.44,73.53Z"/><path class="cls-9" d="M70.63,73.45c2.44-8.43,15-13.12,26.25-9.37s21.38,7.5,22.88,23.62-.94,53.44-.94,53.44c-14.09,1.57-47.17-2.38-51.29-2.87-.58-.07-1-1.1-.94-2.59C66.94,124.84,68.5,80.84,70.63,73.45Z"/><path class="cls-9" d="M70.83,73.38c2.44-8.44,15-13.13,26.25-9.38S118.46,71.5,120,87.63s-.94,53.43-.94,53.43c-14.13,1.58-47.36-2.4-51.33-2.88-.56-.06-1-1.09-.91-2.6C67.14,124.71,68.7,80.76,70.83,73.38Z"/><path class="cls-9" d="M71,73.3c2.43-8.44,15-13.12,26.25-9.37s21.37,7.5,22.87,23.62-.94,53.44-.94,53.44c-14.17,1.57-47.54-2.43-51.37-2.89-.53-.06-.91-1.09-.86-2.61C67.34,124.57,68.9,80.67,71,73.3Z"/><path class="cls-9" d="M71.22,73.22c2.44-8.43,15-13.12,26.25-9.37s21.38,7.5,22.88,23.62-.94,53.44-.94,53.44C105.2,142.49,71.67,138.46,68,138c-.51-.06-.87-1.09-.82-2.63C67.54,124.44,69.09,80.59,71.22,73.22Z"/><path class="cls-9" d="M71.42,73.15c2.44-8.44,15-13.13,26.25-9.38S119,71.27,120.54,87.4s-.93,53.43-.93,53.43c-14.26,1.59-47.93-2.47-51.45-2.89-.49-.06-.84-1.09-.78-2.65C67.74,124.3,69.29,80.51,71.42,73.15Z"/><path class="cls-9" d="M71.62,73.07c2.43-8.44,15-13.12,26.25-9.37s21.37,7.5,22.87,23.62-.94,53.44-.94,53.44c-14.29,1.59-48.12-2.5-51.48-2.9-.47-.06-.8-1.1-.75-2.67C67.93,124.17,69.49,80.43,71.62,73.07Z"/><path class="cls-9" d="M71.81,73c2.44-8.43,15-13.12,26.25-9.37s21.38,7.5,22.88,23.62-.94,53.44-.94,53.44c-14.34,1.59-48.31-2.52-51.52-2.9-.45-.06-.76-1.1-.71-2.69C68.13,124,69.69,80.35,71.81,73Z"/><path class="cls-9" d="M72,72.92c2.44-8.44,15-13.13,26.25-9.38s21.37,7.5,22.87,23.63-.93,53.43-.93,53.43c-14.38,1.6-48.51-2.54-51.56-2.9-.43,0-.73-1.1-.67-2.71C68.33,123.9,69.89,80.27,72,72.92Z"/><path class="cls-9" d="M72.2,72.84c2.44-8.44,15-13.12,26.25-9.37s21.38,7.5,22.88,23.62-.94,53.44-.94,53.44C106,142.13,71.7,138,68.8,137.62c-.41-.05-.69-1.1-.64-2.72C68.53,123.77,70.08,80.19,72.2,72.84Z"/><path class="cls-9" d="M72.4,72.76c2.44-8.43,15-13.12,26.25-9.37S120,70.89,121.53,87s-.94,53.44-.94,53.44c-14.46,1.61-48.88-2.59-51.64-2.92-.38,0-.64-1.09-.59-2.73C68.73,123.63,70.28,80.1,72.4,72.76Z"/><path class="cls-9" d="M72.6,72.69c2.43-8.44,15-13.13,26.25-9.38s21.37,7.5,22.87,23.63-.94,53.43-.94,53.43c-14.49,1.62-49.07-2.61-51.67-2.92-.36,0-.61-1.1-.55-2.75C68.93,123.5,70.48,80,72.6,72.69Z"/><path class="cls-9" d="M72.79,72.61c2.44-8.44,15-13.12,26.25-9.37s21.38,7.5,22.88,23.62S121,140.3,121,140.3c-14.54,1.61-49.26-2.64-51.71-2.93-.34,0-.57-1.1-.52-2.77C69.12,123.36,70.68,79.94,72.79,72.61Z"/><path class="cls-9" d="M73,72.53c2.44-8.43,15-13.12,26.25-9.37s21.37,7.5,22.87,23.62-.93,53.44-.93,53.44c-14.58,1.62-49.46-2.66-51.75-2.93-.32,0-.53-1.1-.48-2.79C69.32,123.23,70.87,79.86,73,72.53Z"/><path class="cls-9" d="M73.19,72.46c2.43-8.44,15-13.13,26.25-9.38s21.37,7.5,22.87,23.63-.94,53.43-.94,53.43c-14.62,1.63-49.64-2.68-51.78-2.93-.3,0-.5-1.1-.44-2.81C69.52,123.09,71.07,79.78,73.19,72.46Z"/><path class="cls-9" d="M73.38,72.38c2.44-8.44,15-13.12,26.25-9.37s21.38,7.5,22.88,23.62-.94,53.44-.94,53.44c-14.66,1.63-49.84-2.71-51.82-2.94-.28,0-.46-1.1-.4-2.82C69.72,123,71.27,79.7,73.38,72.38Z"/><path class="cls-9" d="M73.58,72.3c2.44-8.43,15-13.12,26.25-9.37s21.37,7.5,22.87,23.62-.93,53.44-.93,53.44c-14.7,1.63-50-2.73-51.86-2.94-.26,0-.43-1.11-.37-2.84C69.92,122.82,71.47,79.61,73.58,72.3Z"/><path class="cls-9" d="M73.77,72.23c2.44-8.44,15-13.13,26.25-9.38s21.38,7.5,22.88,23.63-.94,53.43-.94,53.43c-14.74,1.64-50.21-2.75-51.9-2.95-.23,0-.38-1.1-.32-2.85C70.12,122.69,71.66,79.53,73.77,72.23Z"/><path class="cls-9" d="M74,72.15c2.44-8.44,15-13.12,26.25-9.37s21.38,7.5,22.88,23.62-.94,53.44-.94,53.44c-14.78,1.64-50.41-2.77-51.94-3-.21,0-.34-1.1-.28-2.87C70.31,122.55,71.86,79.45,74,72.15Z"/><path class="cls-9" d="M74.17,72.07c2.43-8.43,15-13.12,26.25-9.37s21.37,7.5,22.87,23.62-.94,53.44-.94,53.44c-14.82,1.65-50.59-2.79-52-3-.19,0-.31-1.1-.25-2.89C70.51,122.42,72.06,79.37,74.17,72.07Z"/><path class="cls-9" d="M74.36,72c2.44-8.44,15-13.13,26.25-9.38s21.38,7.5,22.88,23.63-.94,53.43-.94,53.43c-14.86,1.66-50.79-2.81-52-3-.17,0-.27-1.1-.21-2.91C70.71,122.29,72.26,79.29,74.36,72Z"/><path class="cls-9" d="M74.56,71.92c2.44-8.44,15-13.12,26.25-9.37s21.37,7.5,22.87,23.62-.93,53.44-.93,53.44c-14.91,1.65-51-2.84-52-3-.15,0-.23-1.11-.17-2.92C70.91,122.15,72.45,79.21,74.56,71.92Z"/><path class="cls-9" d="M74.76,71.84c2.43-8.43,15-13.12,26.25-9.37s21.37,7.5,22.87,23.62-.94,53.44-.94,53.44c-14.94,1.66-51.17-2.86-52.08-3a8.35,8.35,0,0,1-.14-2.94C71.11,122,72.65,79.12,74.76,71.84Z"/><path class="cls-9" d="M75,71.77c2.44-8.44,15-13.13,26.25-9.38s21.38,7.5,22.88,23.63-.94,53.43-.94,53.43c-15,1.67-51.36-2.88-52.12-3a10,10,0,0,1-.1-3C71.31,121.88,72.85,79,75,71.77Z"/><path class="cls-9" d="M75.15,71.69c2.44-8.44,15-13.12,26.25-9.37s21.37,7.5,22.87,23.62-.93,53.44-.93,53.44c-15,1.67-51.55-2.91-52.17-3a13.57,13.57,0,0,1,0-3C71.5,121.75,73.05,79,75.15,71.69Z"/><path class="cls-9" d="M75.34,71.61c2.44-8.43,15-13.12,26.25-9.37s21.38,7.5,22.88,23.62-.94,53.44-.94,53.44c-15.06,1.67-51.74-2.93-52.2-3a17.46,17.46,0,0,1,0-3C71.7,121.61,73.25,78.88,75.34,71.61Z"/><path class="cls-9" d="M75.54,71.54c2.44-8.44,15-13.13,26.25-9.38s21.38,7.5,22.88,23.63-.94,53.43-.94,53.43c-15.11,1.68-51.93-2.95-52.24-3a26.84,26.84,0,0,1,0-3C71.9,121.48,73.44,78.8,75.54,71.54Z"/><path class="cls-9" d="M75.74,71.46c2.43-8.44,15-13.13,26.25-9.38s21.37,7.5,22.87,23.63-.94,53.44-.94,53.44c-15.14,1.68-52.12-3-52.27-3s0-1.11.06-3C72.1,121.34,73.64,78.72,75.74,71.46Z"/><path class="cls-9" d="M124.12,139.07c-15.19,1.69-52.31-3-52.31-3s1.69-56.25,4.12-64.69,15-13.12,26.25-9.37,21.38,7.5,22.88,23.62S124.12,139.07,124.12,139.07Z"/></g><g id="gllace"><path class="cls-4" d="M114.11,143c-13.49,1.5-44.28-2-51-2.84a1.43,1.43,0,0,1-1.27-1.47c.27-8.52,1.87-55.7,4.09-63.37,2.43-8.44,15-13.13,26.25-9.38s21.37,7.5,22.87,23.63S114.11,143,114.11,143Z"/></g><g id="Calque_17" data-name="Calque 17"><ellipse class="cls-10" cx="95.93" cy="93.36" rx="3.83" ry="9.77"/><ellipse class="cls-10" cx="77.6" cy="91.44" rx="3.64" ry="9.29"/></g><g id="Calque_16" data-name="Calque 16"><path class="cls-11" d="M94.46,125.92h-.13a.53.53,0,0,1-.28-.14,29.61,29.61,0,0,0-2.58-2.34c-.4.74-1.26,1.8-1.93,2a.77.77,0,0,1-.82-.27c-.37-.5-1-1.38-1.52-2l-.51,1.08c-.38.81-.84,1-1.19.93s-.93-.34-1.29-1.6a2,2,0,0,0-.41-.86l-.13.19-1,1.74a1.14,1.14,0,0,1-1.12.7c-.57-.08-1-.64-1.27-1.68l-.49-1.83a2,2,0,0,0-.43-.93l-.11.15-1.51,2.41a1.1,1.1,0,0,1-1.06.63c-.5-.06-.9-.5-1.18-1.32l-1-2.91a.5.5,0,0,1,.31-.63.5.5,0,0,1,.64.31l1,2.91a1.41,1.41,0,0,0,.34.63l.1-.15,1.52-2.41a1.07,1.07,0,0,1,1.09-.63c.55.09,1,.65,1.25,1.68l.49,1.83a2,2,0,0,0,.43.93l.13-.19,1-1.74a1.12,1.12,0,0,1,1.11-.7c.55.07,1,.61,1.25,1.6.19.67.39.84.43.87s.08-.12.19-.35l.85-1.83a.53.53,0,0,1,.4-.28.5.5,0,0,1,.45.19s1.27,1.63,1.92,2.49a4.59,4.59,0,0,0,1.28-1.63.57.57,0,0,1,.38-.45c.27-.1.66-.22,3.52,2.6.27-.13.87-.71,1.35-2.46a.5.5,0,0,1,.61-.35.49.49,0,0,1,.35.61C96.1,125.63,94.9,125.92,94.46,125.92Z"/><ellipse class="cls-11" cx="96.76" cy="93.33" rx="3.34" ry="8.53"/><ellipse class="cls-11" cx="78.63" cy="91.5" rx="3.15" ry="8.06"/></g><g id="Calque_18" data-name="Calque 18"><g class="cls-12"><path class="cls-10" d="M120.16,126.09s-2.43.66-2.06-7,.34-18.94,1-11.44,1.62,3.19,2,10.22S120.45,127.12,120.16,126.09Z"/></g><g class="cls-13"><path class="cls-10" d="M121,99.35s-2.43.56-2.06-6.07a55.13,55.13,0,0,1,.48-5.79c.15-1,.91-1.23,1.22-.39.52,1.41,1,1,1.3,5.13C122.31,98.3,121.28,100.24,121,99.35Z"/></g><g class="cls-14"><path class="cls-10" d="M102.46,64a18.22,18.22,0,0,1,6.16,2.1A24,24,0,0,1,113.87,70a25.89,25.89,0,0,1,4,5.19,11.22,11.22,0,0,1,.76,1.46l.71,1.48c.41,1,.75,2,1.1,3.08a0,0,0,0,1,0,0s0,0,0,0l-1.38-3c-.54-.93-1-1.93-1.58-2.82l-.85-1.38c-.28-.46-.64-.86-.95-1.3a29,29,0,0,0-2.06-2.49,23.93,23.93,0,0,0-5.09-4,18.19,18.19,0,0,0-6-2.27,0,0,0,0,1,0,0Z"/></g><g class="cls-14"><path class="cls-10" d="M103,65.8a17,17,0,0,1,11.18,7.07c.37.53.68,1.1,1,1.66,0,0,0,0,0,0a0,0,0,0,1,0,0c-.84-1-1.62-2-2.52-2.87a28.32,28.32,0,0,0-2.78-2.59,18,18,0,0,0-3.24-2A13.54,13.54,0,0,0,103,65.85s0,0,0,0Z"/></g><g class="cls-14"><path class="cls-10" d="M97.27,63.14a11.64,11.64,0,0,0-3.81-1,20.85,20.85,0,0,0-3.95,0,34.18,34.18,0,0,0-3.91.61l-1.93.42c-.64.19-1.28.36-1.92.52h0a0,0,0,0,1,0,0c.62-.22,1.25-.44,1.88-.64l1.93-.52A27.48,27.48,0,0,1,89.49,62a20.35,20.35,0,0,1,4,.08,11.54,11.54,0,0,1,3.82,1.08v0Z"/></g><g class="cls-14"><path class="cls-10" d="M94,64a30.53,30.53,0,0,1,7.3,1.65A29.61,29.61,0,0,1,108,69a30.26,30.26,0,0,1,3,2.27A30.54,30.54,0,0,1,113.56,74a25.32,25.32,0,0,1,3.76,6.48s0,0,0,0,0,0,0,0a33,33,0,0,0-4.1-6.18,26.86,26.86,0,0,0-2.53-2.7,29.25,29.25,0,0,0-2.89-2.31,29.68,29.68,0,0,0-6.56-3.48A30.9,30.9,0,0,0,94,64a0,0,0,0,1,0,0S94,64,94,64Z"/></g><g class="cls-15"><path class="cls-10" d="M68.4,84.79a40.78,40.78,0,0,1,.75-6.69A14.24,14.24,0,0,1,71.91,72c.19-.22.37-.44.56-.65l.65-.57a10,10,0,0,1,1.4-1A16.88,16.88,0,0,1,76.07,69a15.39,15.39,0,0,1,1.63-.51A24.28,24.28,0,0,1,84.44,68s0,0,0,0a0,0,0,0,1,0,0,34.51,34.51,0,0,0-6.61.91,10.62,10.62,0,0,0-5.61,3.25,13.75,13.75,0,0,0-2.82,5.94,42.5,42.5,0,0,0-1,6.64s0,0,0,0S68.39,84.81,68.4,84.79Z"/></g><g class="cls-15"><path class="cls-10" d="M66.88,86.14a58.05,58.05,0,0,1,.8-7.55,16.49,16.49,0,0,1,2.81-7l.6-.75c.22-.23.46-.44.69-.66A10.05,10.05,0,0,1,73.32,69a16.14,16.14,0,0,1,1.73-.83,14.74,14.74,0,0,1,1.82-.57A31.08,31.08,0,0,1,84.44,67s0,0,0,0,0,0,0,0a35,35,0,0,0-7.51.85,16.13,16.13,0,0,0-1.79.56,14.57,14.57,0,0,0-1.69.81,10.32,10.32,0,0,0-1.52,1.1c-.23.21-.47.41-.69.64l-.59.72a16.26,16.26,0,0,0-2.85,6.93,57.36,57.36,0,0,0-.89,7.52s0,0,0,0A0,0,0,0,1,66.88,86.14Z"/></g><g class="cls-15"><path class="cls-10" d="M70.34,80.27A23,23,0,0,1,71,75.76a8.23,8.23,0,0,1,2.42-3.86,10.31,10.31,0,0,1,4-2.12A21.11,21.11,0,0,1,82,69.1a0,0,0,0,1,0,0s0,0,0,0a26.91,26.91,0,0,0-4.46.9,10.86,10.86,0,0,0-4,2,8.1,8.1,0,0,0-2.43,3.74,22.59,22.59,0,0,0-.78,4.48,0,0,0,0,1,0,0A0,0,0,0,1,70.34,80.27Z"/></g><path class="cls-16" d="M108.15,85.51c0-.06-.07-.07-.08,0a9.33,9.33,0,0,1-.8,3c-.57.87-.86,2.86.74,3s1.18-2.28.83-3S108.41,87.71,108.15,85.51Z"/><path class="cls-16" d="M105.76,129.88s-.06,0-.06,0a6.77,6.77,0,0,1-.59,2.15c-.41.63-.62,2.08.54,2.17s.86-1.65.61-2.17A4.57,4.57,0,0,1,105.76,129.88Z"/><path class="cls-16" d="M106,82.31s0,0,0,0a5.58,5.58,0,0,1-.48,1.75c-.34.52-.51,1.7.44,1.77s.7-1.35.49-1.77A3.89,3.89,0,0,1,106,82.31Z"/><path class="cls-16" d="M70.49,107.5c0-.06-.07-.07-.08,0a9.4,9.4,0,0,1-.8,3c-.58.87-.87,2.86.73,3s1.19-2.27.84-3S70.74,109.7,70.49,107.5Z"/><path class="cls-4" d="M71.74,171.08c0-.09-.11-.1-.12,0a13.37,13.37,0,0,1-1.14,4.18c-.81,1.24-1.22,4.06,1,4.24s1.68-3.23,1.18-4.24S72.09,174.2,71.74,171.08Z"/><path class="cls-4" d="M72.59,141.88s-.06-.06-.07,0a7.4,7.4,0,0,1-.65,2.39c-.46.7-.7,2.31.6,2.41s1-1.84.67-2.41A5.18,5.18,0,0,1,72.59,141.88Z"/><path class="cls-16" d="M84.69,73.91c0-.06-.08-.07-.09,0a9.07,9.07,0,0,1-.8,2.95c-.57.87-.86,2.86.74,3s1.19-2.28.84-3S84.94,76.11,84.69,73.91Z"/><path class="cls-4" d="M62.47,139.9a2.85,2.85,0,0,0,2,1.56c1.34.14,5.08-.31,5.77,0,.84.38,1.3.27,1.37,1.19a1,1,0,0,0,2,.43,5.92,5.92,0,0,1,4.67-2c1.62.14,1.83,1.26,5.63,1.54a13.57,13.57,0,0,0,6.66-1.19s8.39,2.46,13.52,2.32a40.72,40.72,0,0,0,9.77-1.59Z"/></g></g></svg>