<svg xmlns="http://www.w3.org/2000/svg" viewBox="0 0 324 426.91"><defs><style>.cls-1{fill:#f4f2e4;}.cls-2{fill:#522c16;}.cls-3{fill:#1e1a18;}.cls-4{fill:#84807e;}.cls-5{fill:#ededed;}.cls-22,.cls-6{fill:#d3d3d3;}.cls-6{stroke:#d3d3d3;stroke-miterlimit:10;stroke-width:0.25px;}.cls-7{fill:#c4c4c4;}.cls-8{fill:#e2af93;}.cls-9{fill:#adadad;}.cls-10{fill:#dbdbdb;}.cls-11{fill:#c96a55;}.cls-12{fill:#a14738;}.cls-13{fill:#d8d8d8;}.cls-14{fill:#f4c6a8;}.cls-15{fill:#c99a81;}.cls-16{fill:#8a634e;}.cls-17{fill:#161515;}.cls-18{fill:#fff;}.cls-19{fill:#e84721;}.cls-20{fill:#353533;}.cls-21{fill:#999998;}.cls-23{fill:#b5b5b5;}</style></defs><g id="Calque_2" data-name="Calque 2"><g id="Calque_37" data-name="Calque 37"><path class="cls-1" d="M27,0C12,.75,0,12.46,0,26.79V23c.05-.4.13-.81.2-1.2a8.6,8.6,0,0,1,.25-1,9.91,9.91,0,0,1,.4-1.46l.27-.88c.18-.44.32-.9.52-1.34s.29-.69.45-1A11.2,11.2,0,0,1,2.65,15a6.41,6.41,0,0,1,.57-1.05c.4-.69.83-1.35,1.3-2A23.6,23.6,0,0,1,6,10c.25-.29.49-.56.77-.83a11.63,11.63,0,0,1,.85-.87l.43-.42.45-.41c.29-.27.6-.54.92-.79s.61-.49.92-.73.84-.63,1.28-.92,1.17-.76,1.8-1.11c.46-.27.93-.51,1.4-.75a4.3,4.3,0,0,1,.61-.3q.67-.31,1.35-.6a7.1,7.1,0,0,1,.81-.3l.81-.31,1.05-.34.36-.1c.37-.12.77-.22,1.13-.3s.61-.15.9-.2a.36.36,0,0,1,.14,0c.27-.07.56-.12.87-.17s.84-.15,1.28-.2A24.32,24.32,0,0,1,27,0Z"/><path class="cls-1" d="M324,23V400.13c0,14.32-12,26-27,26.75l-1.47,0H28.15c-14.34,0-26.19-10-28.15-23V26.79C0,12.46,12,.75,27,0l1.47,0H295.85C310.19,0,322,10,324,23Z"/><path class="cls-1" d="M28.49,0,27,0c.37,0,.75,0,1.13,0Z"/></g><g id="Calque_23" data-name="Calque 23"><g id="Calque_20" data-name="Calque 20"><circle class="cls-2" cx="162" cy="213.45" r="100.74"/></g></g><g id="Calque_24" data-name="Calque 24"><path class="cls-2" d="M324,23V138.71c-46.05-18.14-154.49-72.92-96.56-121A207.64,207.64,0,0,0,245.57,0h50.28C310.19,0,322,10,324,23Z"/><path class="cls-1" d="M265.78,52.67V28.22c0-1.1.41-1.52,1.52-1.52h29.14c1.11,0,1.53.42,1.53,1.52v49c0,1.06-.43,1.49-1.5,1.49H267.28c-1.07,0-1.5-.43-1.5-1.49Zm29.68,23.54a.35.35,0,0,0,0-.1q0-6.31,0-12.64a.91.91,0,0,0-.25-.52c-.81-.84-1.64-1.66-2.46-2.49a1.23,1.23,0,0,0-2,0l-3,2.94a1.21,1.21,0,0,1-2,0l-3-2.93a1.24,1.24,0,0,0-2,0L278,63.28c-.81.8-1.35.81-2.15,0l-2.93-2.9a1.2,1.2,0,0,0-1.89,0c-.83.83-1.67,1.65-2.46,2.5a1.25,1.25,0,0,0-.31.75q0,6,0,12.07v.49ZM268.27,59.65l.87-.89a3.74,3.74,0,0,1,5.72,0l2.06,2.07L279,58.76a3.76,3.76,0,0,1,5.77,0c.68.67,1.35,1.35,2.07,2.07l2.25-2.26a3.69,3.69,0,0,1,2.52-1.12,3.6,3.6,0,0,1,2.83,1.13l1,1V54h-27.2Zm0-30.45v9.85h7.37V29.2Zm9.9,0V39h7.37V29.2Zm17.27,9.86V29.22h-7.37v9.84ZM275.65,51.45V41.6h-7.37v9.85Zm9.92-9.85H278.2v9.84h7.37Zm2.52,9.83h7.37V41.59h-7.37Z"/><path class="cls-2" d="M38.76,27.72l10.53.07h6.52a20.07,20.07,0,0,1,2.42.1,5.56,5.56,0,0,1,1.8.66q1.88,1,1.87,5.54c0,2.78-.57,4.46-1.73,5.06a5,5,0,0,1-1.7.66,17,17,0,0,1-2.25.11H44.09c-.09.55-.32,2.31-.69,5.26a15.61,15.61,0,0,1,2.42-.13,16.91,16.91,0,0,1,11.86,5,16,16,0,0,1,5.26,12.13,17.1,17.1,0,0,1-5,12.33,16.51,16.51,0,0,1-12.4,5.17A21.52,21.52,0,0,1,33.9,76.37a11.28,11.28,0,0,1-1.73-1.32l-.55-.48C29.86,73,29,71.66,29,70.41s.85-2.75,2.56-4.5c1.39-1.53,2.72-2.29,4-2.29s2.84.74,4.64,2.22c.83,1,2.28,1.45,4.33,1.45A6.82,6.82,0,0,0,49.12,66a4.63,4.63,0,0,0,1.49-3.64A4.55,4.55,0,0,0,49,58.66a5.66,5.66,0,0,0-3.71-1.35,4.52,4.52,0,0,0-3.33,1.25,5.81,5.81,0,0,1-3.77,1.59,9.46,9.46,0,0,1-4.37-1.31,14.39,14.39,0,0,1-3.22-2.12,2.41,2.41,0,0,1-.76-1.7q0-.9,1.38-11.15t1.46-10.68a8.54,8.54,0,0,1,.48-1.45,8.78,8.78,0,0,1,1-1.87A5.09,5.09,0,0,1,36,28.38,5.78,5.78,0,0,1,38.76,27.72Z"/><path class="cls-2" d="M99.19,408.18a211.26,211.26,0,0,0-19.12,18.73H28.15c-14.34,0-26.19-10-28.15-23V286.11C44.38,303.12,158.26,359.11,99.19,408.18Z"/><path class="cls-1" d="M60.86,373.17q0,12.22,0,24.45c0,1.1-.41,1.52-1.52,1.52H30.19c-1.11,0-1.53-.42-1.53-1.52v-49c0-1.06.43-1.49,1.5-1.49h29.2c1.06,0,1.49.43,1.49,1.49Q60.86,360.89,60.86,373.17ZM31.17,349.63a.35.35,0,0,0,0,.1q0,6.31,0,12.64a.84.84,0,0,0,.24.52c.81.84,1.64,1.66,2.47,2.49a1.22,1.22,0,0,0,2,0l3-2.94a1.21,1.21,0,0,1,2,0c1,1,2,2,3,2.93a1.24,1.24,0,0,0,2,0l2.86-2.83c.81-.8,1.35-.81,2.15,0l2.93,2.9a1.21,1.21,0,0,0,1.9,0c.82-.83,1.66-1.65,2.46-2.5a1.24,1.24,0,0,0,.3-.75c0-4,0-8.05,0-12.07v-.49Zm27.19,16.56-.87.89a3.74,3.74,0,0,1-5.72,0L49.71,365l-2.07,2.08a3.76,3.76,0,0,1-5.77,0c-.68-.67-1.35-1.35-2.06-2.07l-2.26,2.26A3.68,3.68,0,0,1,35,368.38a3.6,3.6,0,0,1-2.83-1.13l-1-1v5.64h27.2Zm0,30.45v-9.85H51v9.85Zm-9.9,0V386.8H41.07v9.84Zm-17.27-9.86v9.84h7.37v-9.84ZM51,374.39v9.85h7.36v-9.85Zm-9.93,9.85h7.37V374.4H41.06Zm-2.52-9.83H31.18v9.84h7.36Z"/><path class="cls-2" d="M287.87,398.12l-10.53-.07h-6.51a20.15,20.15,0,0,1-2.43-.1,5.56,5.56,0,0,1-1.8-.66q-1.87-1-1.87-5.54c0-2.78.58-4.46,1.73-5.06a5,5,0,0,1,1.7-.66,17.14,17.14,0,0,1,2.25-.11h12.13c.09-.55.32-2.31.69-5.26a15.44,15.44,0,0,1-2.42.13,16.87,16.87,0,0,1-11.85-5,16,16,0,0,1-5.27-12.13,17.1,17.1,0,0,1,5-12.33,16.51,16.51,0,0,1,12.4-5.17,21.52,21.52,0,0,1,11.65,3.26,11.28,11.28,0,0,1,1.73,1.32l.55.48c1.76,1.53,2.64,2.91,2.64,4.16s-.86,2.75-2.57,4.5q-2.07,2.29-4,2.29T286.42,360c-.83-1-2.27-1.45-4.33-1.45a6.82,6.82,0,0,0-4.58,1.31A4.63,4.63,0,0,0,276,363.5a4.55,4.55,0,0,0,1.63,3.68,5.66,5.66,0,0,0,3.71,1.35,4.52,4.52,0,0,0,3.33-1.25,5.83,5.83,0,0,1,3.77-1.59,9.43,9.43,0,0,1,4.37,1.31,14.14,14.14,0,0,1,3.22,2.12,2.42,2.42,0,0,1,.77,1.7q0,.9-1.39,11.15T294,392.65a7.69,7.69,0,0,1-.48,1.45,8.78,8.78,0,0,1-1,1.87,5.09,5.09,0,0,1-1.8,1.49A5.75,5.75,0,0,1,287.87,398.12Z"/></g><g id="Calque_32" data-name="Calque 32"><path class="cls-3" d="M224.72,95.24c4.42.31.49,2.09,4,2.13s3.17,2.18,4.45,2,2.73,1.78,3.58,3.26,6.39,3.7,6.39,3.7l-3,4.31s-2.35,1.9-4.47-1.71-13-9.2-13-9.2Z"/><path class="cls-4" d="M222.66,99.69,220,97.75l3.23-5.32a2.61,2.61,0,0,0-.05.72c.05,1.2,2.09,2.13,2.09,2.13Z"/><circle class="cls-5" cx="227.08" cy="99.32" r="0.87"/><circle class="cls-5" cx="231.73" cy="102.24" r="0.87"/><circle class="cls-5" cx="236.95" cy="106.19" r="0.87"/><path class="cls-6" d="M226.32,87.61l-.61-.71c-.59-.7-1.21-1.36-1.83-2-.4-.39-.8-.77-1.2-1.13l-.62-.56h0a10.71,10.71,0,0,1-4.2-1.31c-2.58-1.69-1.42-2.4-2.11-2.77s-4.1,1.84-4.37-1c-.18-1.77-1.65-2.07-2.69-2l-.07.16c-2,4.23-5.71,12.94-3,14.87,0,0,.46.94,3.38,1.41a27,27,0,0,1,11.27,5.18,26.21,26.21,0,0,1,6.19-9c.17-.15.32-.29.47-.41C226.7,88.09,226.5,87.85,226.32,87.61Zm-18.48,3.22a1.92,1.92,0,0,1-1.5-.91,1.88,1.88,0,0,1-.3-1.07v-.09a1.94,1.94,0,1,1,1.8,2.07Z"/><path class="cls-7" d="M228.22,87.29a12.76,12.76,0,0,0-1.32,1c-.2-.25-.4-.49-.58-.73l-.61-.71c-.59-.7-1.21-1.36-1.83-2-.4-.39-.8-.77-1.2-1.13l-.62-.56h0c-.31-.28-.63-.54-.94-.78s-.63-.51-.94-.74a.28.28,0,0,0-.09-.07c-.6-.45-1.19-.86-1.77-1.27l-.93-.59c-.46-.29-.91-.56-1.35-.82s-.89-.5-1.31-.72c-1-.54-2-1-2.87-1.37a3.89,3.89,0,0,0-.49-.2c-.88-.37-1.66-.66-2.31-.88a13.59,13.59,0,0,1,4.28-.37h0a39.68,39.68,0,0,1,11.76,7.85A20.54,20.54,0,0,1,228.22,87.29Z"/><path class="cls-2" d="M222.05,83.23a10.71,10.71,0,0,1-4.2-1.31c-2.58-1.69-1.42-2.4-2.11-2.77s-4.1,1.84-4.37-1a2.49,2.49,0,0,0-2.8-2.13c.05-.11.09-.21.14-.3l0-.11c.53-1.08.88-1.76.88-1.76s1.57.56,3.69,1.52a13.59,13.59,0,0,0-4.28.37c.65.22,1.43.51,2.31.88a3.89,3.89,0,0,1,.49.2c.87.37,1.84.83,2.87,1.37.85.45,1.74,1,2.66,1.54l.93.59c.58.41,1.17.82,1.77,1.27a.28.28,0,0,1,.09.07l.94.74C221.42,82.69,221.74,83,222.05,83.23Z"/><path class="cls-2" d="M225.1,83.27a10.76,10.76,0,0,1-3,0h0c-.31-.28-.63-.54-.94-.78l-.94-.74a.28.28,0,0,0-.09-.07c-.6-.45-1.19-.86-1.77-1.27l-.93-.59c-.46-.29-.91-.56-1.35-.82s-.89-.5-1.31-.72c-1-.54-2-1-2.87-1.37a3.89,3.89,0,0,0-.49-.2c-.88-.37-1.66-.66-2.31-.88a13.59,13.59,0,0,1,4.28-.37h0A39.68,39.68,0,0,1,225.1,83.27Z"/></g><g id="Calque_31" data-name="Calque 31"><ellipse class="cls-8" cx="231.31" cy="105.05" rx="6.13" ry="3.92" transform="translate(83.66 311.78) rotate(-78.89)"/><ellipse class="cls-8" cx="123.28" cy="108.3" rx="6.13" ry="3.92" transform="translate(-6.74 208.41) rotate(-78.89)"/><path class="cls-9" d="M180.07,238.13a15.37,15.37,0,0,1-3.09,5.43,46.6,46.6,0,0,1-5.35,5.38,126.67,126.67,0,0,1-35.58-1.27c.63-.58,1.27-1.14,1.92-1.69a95.66,95.66,0,0,1,22.37-14.11S183.88,223.9,180.07,238.13Z"/></g><g id="Calque_33" data-name="Calque 33"><path class="cls-9" d="M210.24,285.61a61.38,61.38,0,0,1-11-1.4l-3.47-4.86a17,17,0,0,0-5.63-4.94c-3.17-1.73-9.71-5.82-23.11-15.44-36-25.86-20.9-29.53-20.9-29.53,10.83-10.37,26.07-.53,26.07-.53s21.78,33.16,28.13,40.84C203.28,273.31,207,279.72,210.24,285.61Z"/><path class="cls-10" d="M216.92,298.62s.17,2.52-5.31,2.94l-12.35-17.35a61.38,61.38,0,0,0,11,1.4C214,292.48,216.92,298.62,216.92,298.62Z"/></g><g id="Calque_35" data-name="Calque 35"><path class="cls-9" d="M144.62,267.86l-1.17.77c-5.95,3.95-11,4.52-11.77,12.09-.22,2.12-.39,4.52-.53,7.07C124.32,265.76,144.62,267.86,144.62,267.86Z"/><path class="cls-10" d="M171.63,248.94c-7.85,6.85-19.34,13.89-27,18.92,0,0-20.3-2.1-13.47,19.93-.93,16.68-.59,39.89-5.6,34-5.21-3.75-8.38-21.8-5.27-47.61,1.26-10.59,8.09-19.58,15.77-26.52A126.67,126.67,0,0,0,171.63,248.94Z"/></g><g id="Calque_34" data-name="Calque 34"><path class="cls-11" d="M214.45,296.37c1-1.59,1.79-.21,3.85,1.74a14.53,14.53,0,0,1,2.55,3.36l2,2.27-3.73,6.87-1.5-1.74a52,52,0,0,1-3.92,12c-1.62,3.38-2.89,4.88-5.39,5.14a12.68,12.68,0,0,1-5.92-1.18,30.52,30.52,0,0,1-4.75-3.61,14.19,14.19,0,0,1-3.24-3.57c-.94-1.79-.51-3.46.93-4.24a23.54,23.54,0,0,1,9.87-3.83,8.08,8.08,0,0,0,4.17-1.51,9.06,9.06,0,0,0,3-5.53l-.9-1.14a8,8,0,0,1,1.71-1.19C214.29,299.75,214.84,297.25,214.45,296.37Z"/><path class="cls-12" d="M219.62,299.59a6.8,6.8,0,0,1,.85,1.24c1.5,2.87-1.37,3.71-3,8.78-.24.75-.11.54-.56,2.17a49.75,49.75,0,0,1-3.42,9.43c-1.08,2.06-1.65,3.11-2.79,3.89a6.5,6.5,0,0,1-4.9.95,10.12,10.12,0,0,1-3.44-1.25,23.8,23.8,0,0,1-4.75-3.61,15.33,15.33,0,0,0,7.62-.26c3.62-1.23,5.07-3.94,6.53-6.67C214.45,309.21,216.91,304.67,219.62,299.59Z"/><path class="cls-11" d="M129,319.64c2.33.21,4,2.44,4.16,5.18a9.08,9.08,0,0,1-.65,3.78l-.23,2.79-9.59-.46.17-2.12a64.36,64.36,0,0,1-14.32,1.57c-4.52,0-7-.55-9.57-2.72a19.14,19.14,0,0,1-4.42-5.94,26.57,26.57,0,0,1-1.15-5.92c-.17-2-.28-3.44.21-4.52.74-1.63,2.62-2,4.65-1a49.59,49.59,0,0,1,12.53,7.4,17,17,0,0,0,5.21,3.18,13.52,13.52,0,0,0,7.72.37l.19-1.32a5,5,0,0,0,2.57.52A5.84,5.84,0,0,0,129,319.64Z"/><path class="cls-12" d="M133,326.66a4.08,4.08,0,0,1-.32,1.32c-1.18,2.62-4.58.35-10.63,1-.9.11-.59.14-2.46.43a64.4,64.4,0,0,1-11.6.94c-2.84-.11-4.3-.18-6.06-.89a12.52,12.52,0,0,1-5.36-4.08,13.15,13.15,0,0,1-2.07-3.69,20.64,20.64,0,0,1-1.15-5.92,28.12,28.12,0,0,0,7.28,6.88c4.43,2.78,8.2,2.94,12,3.1C119.64,326.08,126,326.37,133,326.66Z"/></g><g id="Calque_28" data-name="Calque 28"><path class="cls-8" d="M176.05,147.07s-2,16.38,5.6,22.57c-11.47,10.58-23.16-.09-23.16-.09,6.06-3.86,3.52-22.84,3.52-22.84S170.18,152.07,176.05,147.07Z"/><path class="cls-13" d="M136.2,172c-19.33-12.45-18.62-22.6-20.5-31.7l0,.06C116.42,141.77,129.46,167.66,136.2,172Z"/><path class="cls-5" d="M233.79,109.6,227.29,143s-.26,4.64-4.1,10.92l-11.36,10.55a96.1,96.1,0,0,1-14.61,8.25c-1.54.91-4,8.7-4.18,9.18a0,0,0,0,0,0,0c-14.75,25.74,0,55.27,0,55.27-21.36,19.62-37.47,3-37.47,3-8.68,3.32-24.06-2.38-22.48-3.17s5.7-7.75,5.7-7.75c15.19-29.9-2.85-57.41-2.85-57.41-.87-.73-1.69-1.46-2.49-2.2-5.92-5.41-17-27.92-17.72-29.33l0-.06A46.6,46.6,0,0,1,119,111.15l6.64,1.89c-1.74,2.06-1.11,20.41,1.9,30,2.12,6.76,14.19,14.11,21.1,17.86A24.73,24.73,0,0,0,159,163.8c47.42,2.87,58.84-25.92,58.84-25.92l9.33-31.16Z"/><path class="cls-5" d="M133.45,169.69c-5.92-5.41-17-27.92-17.72-29.33Z"/><path class="cls-13" d="M223.19,153.93c-3.12,5.14-8.64,11.36-18.33,17-2,1.14-4.12,2.27-6.45,3.36a50.45,50.45,0,0,0-5.37,7.59c.14-.48,1.27-9.53,2.81-10.44,1-.61,7.9-2.63,15-7.64Z"/></g><g id="Calque_27" data-name="Calque 27"><path class="cls-14" d="M155.57,124.54s1.34,1.55.86,2.81"/><path class="cls-15" d="M156.43,128.35a.91.91,0,0,1-.35-.07,1,1,0,0,1-.58-1.29c.18-.46-.31-1.35-.69-1.8a1,1,0,0,1,1.52-1.3c.17.2,1.7,2,1,3.81A1,1,0,0,1,156.43,128.35Z"/><path class="cls-14" d="M165.08,101.54a19,19,0,0,0-11.75,9.77,45.44,45.44,0,0,0-4.67,21.25c.51,15,10.93,26.88,20.62,27.25,8.38.32,17.63-14.94,17.94-18.95s8.07-21-2.86-32.1C176.94,101.25,170.86,100,165.08,101.54Z"/><ellipse class="cls-16" cx="156.53" cy="121.72" rx="7.24" ry="4.31" transform="matrix(0.06, -1, 1, 0.06, 24.92, 270.02)"/><ellipse class="cls-17" cx="157.36" cy="121.77" rx="7.24" ry="3.48" transform="translate(25.64 270.9) rotate(-86.28)"/><ellipse class="cls-16" cx="171.8" cy="125.18" rx="7.24" ry="4.31" transform="translate(45.35 296.05) rotate(-89.57)"/><ellipse class="cls-17" cx="172.63" cy="125.19" rx="7.24" ry="3.48" transform="translate(46.16 296.88) rotate(-89.57)"/></g><g id="Calque_26" data-name="Calque 26"><path class="cls-14" d="M187.67,120.38s2.29-2.84,3-.24.45,10.5-5.43,15.51"/><path class="cls-15" d="M185.27,136.65a1,1,0,0,1-.65-1.76,16.14,16.14,0,0,0,5.11-14.48,1,1,0,0,0-.14-.35,3.44,3.44,0,0,0-1.14,1,1,1,0,0,1-1.56-1.26c.38-.47,1.71-2,3.15-1.67a2.19,2.19,0,0,1,1.62,1.78c.92,3.28.19,11.49-5.74,16.55A1,1,0,0,1,185.27,136.65Z"/><path class="cls-14" d="M185,125.05s-1.34,1.55-.86,2.8"/><path class="cls-15" d="M184.13,128.85a1,1,0,0,1-.94-.64c-.66-1.76.87-3.61,1.05-3.82a1,1,0,0,1,1.51,1.31c-.38.45-.86,1.33-.69,1.8a1,1,0,0,1-.58,1.29A1,1,0,0,1,184.13,128.85Z"/></g><g id="Calque_29" data-name="Calque 29"><path class="cls-2" d="M159.33,140.33c.09-2.1,2.21,1.43,3.62,1.27s2.41-2.2,2.71-2.11c2.43.66,1,2.54,2.85,2.43s5.24-2,5.29-.74-1,3.44,0,4.24,3.68,1.88,2.6,3.69-2.63,1.71-3.58,3.19a4,4,0,0,1-5.33,1c-1.41-1-3.4-2.33-5-.66-1.77,1.87-5.43,1.65-5-1.83.32-2.88.4-2.37-2-3.93-2.56-1.7-2.7-4-.22-4.91S159.22,142.77,159.33,140.33Z"/><path class="cls-18" d="M171.9,150.39q-2.79.06-5.85,0-3.59-.12-6.81-.39a8.72,8.72,0,0,1-1.16-3.2,7.32,7.32,0,0,1,.47-3.76,31.76,31.76,0,0,0,4.31.56,29,29,0,0,0,6.7-.37,9.93,9.93,0,0,1,2,3.48A8.12,8.12,0,0,1,171.9,150.39Z"/><path class="cls-19" d="M170.26,144.08c-.61.17-1.35.35-2.2.5a23.93,23.93,0,0,1-3.46.33h-.92a23.4,23.4,0,0,1-3.07-.25,24.28,24.28,0,0,1-2.42-.47,7.41,7.41,0,0,0-.15,2.17,7.58,7.58,0,0,0,.43,2,23.22,23.22,0,0,0,3,.61,22.2,22.2,0,0,0,3.48.19,20.79,20.79,0,0,0,3-.29,19.54,19.54,0,0,0,3.85-1,9.25,9.25,0,0,0-.64-2.07A9.86,9.86,0,0,0,170.26,144.08Z"/><path class="cls-2" d="M164.46,153.18s.85-.82,1.48,0,.63,1.19,0,1.14S163.88,154.16,164.46,153.18Z"/><path class="cls-2" d="M162.44,154.5s.42-.41.74,0,.32.59,0,.57S162.15,155,162.44,154.5Z"/></g><g id="Calque_36" data-name="Calque 36"><ellipse class="cls-20" cx="162.07" cy="182.88" rx="1.31" ry="1.59"/><ellipse class="cls-20" cx="164.03" cy="197.73" rx="1.31" ry="1.59"/><ellipse class="cls-20" cx="163.07" cy="213.42" rx="1.31" ry="1.59"/><ellipse class="cls-20" cx="165.35" cy="229.88" rx="1.31" ry="1.59"/><path class="cls-13" d="M161.46,244.64q-2.36-8.12-3.93-16.43a94.9,94.9,0,0,1-1.86-16.86,38.81,38.81,0,0,1,.21-4.3c.16-1.44.32-2.75.35-4.14a44.37,44.37,0,0,0-.54-8.22A60.64,60.64,0,0,0,151,179h0l-.86-2.17,2.22,0a32.65,32.65,0,0,0,6.56-.58,23.33,23.33,0,0,0,6.25-2.08A13.06,13.06,0,0,0,170,170a12.23,12.23,0,0,0,2-6.21h.85a13.38,13.38,0,0,1-1.69,6.93,14.52,14.52,0,0,1-5.13,5.11,25,25,0,0,1-6.64,2.8,34.85,34.85,0,0,1-7.12,1.19l1.36-2.13h0a60.38,60.38,0,0,1,2.7,8.23,62.42,62.42,0,0,1,1.54,8.47,45.86,45.86,0,0,1,.17,8.61c-.09,1.42-.34,2.91-.55,4.25a39.91,39.91,0,0,0-.38,4.12,93.88,93.88,0,0,0,1.11,16.71C159.07,233.64,160.13,239.17,161.46,244.64Z"/><path class="cls-21" d="M161.36,244.26A158.64,158.64,0,0,1,157.8,228a92.18,92.18,0,0,1-1.47-16.7,40.26,40.26,0,0,1,.29-4.24c.16-1.39.28-2.7.32-4.06a45.77,45.77,0,0,0-.54-8.1,62.25,62.25,0,0,0-4.71-15.5l-.92-2.07,2.3-.13a38.07,38.07,0,0,0,6.37-.92,23.66,23.66,0,0,0,6-2.21,17.11,17.11,0,0,0,2.61-1.77,13.17,13.17,0,0,0,2.13-2.34,12.32,12.32,0,0,0,1.49-2.86,17.06,17.06,0,0,0,.8-3.24h0a.15.15,0,0,1,.17-.12.16.16,0,0,1,.13.13,12.8,12.8,0,0,1-1.2,6.92,13.93,13.93,0,0,1-4.84,5.38,23.47,23.47,0,0,1-6.54,3,28.7,28.7,0,0,1-7.08,1.14l1.38-2.2a51.9,51.9,0,0,1,2.68,8.13,65.6,65.6,0,0,1,1.54,8.35,47.44,47.44,0,0,1,.26,8.51c-.08,1.42-.3,2.86-.51,4.23a38.86,38.86,0,0,0-.43,4.05,100.34,100.34,0,0,0,.69,16.5C159.37,233.33,160.26,238.81,161.36,244.26Z"/></g><g id="Calque_30" data-name="Calque 30"><path class="cls-5" d="M176.41,103.22l4.42-7.16a7.32,7.32,0,0,0,4.81,2.75c2.86.29,6-1.32,6.6-3.5.69-2.57-2-6.56-7.38-7.73-.07-.37-1.11-5.4-5.78-7.3a9.94,9.94,0,0,0-11.21,3c-4-1.45-8-.92-10.25,1.48-.29.31-3,3.3-1.67,6.08A5.25,5.25,0,0,0,161,93.36l.19,10.28a15.59,15.59,0,0,0,15.22-.42Z"/><path class="cls-22" d="M192.32,94.87A8,8,0,0,1,181,92.24,13.18,13.18,0,0,1,165.59,90a7.64,7.64,0,0,1-6.05.92,7.38,7.38,0,0,1-3.85-2.71,4.79,4.79,0,0,0,1.44,4.23,4.67,4.67,0,0,0,3.87,1v1A22.92,22.92,0,0,0,175.81,98l-2.95,6.77a13.34,13.34,0,0,0,1.85-.68,15.71,15.71,0,0,0,1.7-.87l4.42-7.16c2.22,2.79,5.7,3.76,8.3,2.57A6.42,6.42,0,0,0,192.32,94.87Z"/><path class="cls-23" d="M179.31,94.24a9.92,9.92,0,0,1-3,1.52,10.71,10.71,0,0,1-5.85.06,7.82,7.82,0,0,1-4-1.83A6.74,6.74,0,0,1,165,92a10.23,10.23,0,0,0,5.69,3.15,13.18,13.18,0,0,0,3.91,0A28.56,28.56,0,0,0,179.31,94.24Z"/></g></g></svg>