<svg xmlns="http://www.w3.org/2000/svg" viewBox="0 0 324 426.91"><defs><style>.cls-1{fill:#f4f2e4;}.cls-2{fill:#ec672c;}.cls-3{fill:#fff;}.cls-4{fill:#824531;}.cls-5{fill:#935f3a;}.cls-6{fill:#cdcccc;}.cls-7{fill:#dbdbdb;}.cls-8{fill:#ad6849;}.cls-9{fill:#ededed;}.cls-10{fill:#353433;}.cls-11{fill:#999998;}.cls-12{fill:#d8d8d8;}.cls-13{fill:#9c9b9b;}.cls-14{fill:#6c385f;}.cls-15{fill:#ca8765;}.cls-16{fill:#8a634e;}.cls-17{fill:#161515;}.cls-18{fill:#945181;}.cls-19{opacity:0.6;}.cls-20{fill:#edc4b0;}.cls-21{fill:#e84721;}.cls-22{fill:#915843;}.cls-23{fill:#804d39;}.cls-24{fill:#e5e4e4;}.cls-25{fill:#d3d3d3;}.cls-26{fill:#b5b5b5;}.cls-27{fill:#f59f5d;}.cls-28{fill:#ad451c;}.cls-29{fill:#efeded;}.cls-30{fill:#cebfb7;}.cls-31{fill:#d83215;}.cls-32{fill:#ce5b2e;}.cls-33{fill:#bf4f2c;}.cls-34{fill:#010101;}.cls-35{fill:#1d1d1b;}.cls-36{fill:none;}.cls-37{opacity:0.23;}.cls-38{fill:#9c3a19;}.cls-39{fill:#d3cfcd;}</style></defs><g id="Calque_2" data-name="Calque 2"><g id="Calque_23" data-name="Calque 23"><path class="cls-1" d="M27,0C12,.75,0,12.46,0,26.79V23c0-.4.13-.81.2-1.2a8.6,8.6,0,0,1,.25-1A8.77,8.77,0,0,1,.85,19.3c.1-.29.19-.59.27-.88.18-.44.33-.9.53-1.34s.28-.69.45-1A9.35,9.35,0,0,1,2.66,15a5.66,5.66,0,0,1,.56-1.05,23,23,0,0,1,1.31-2A19.94,19.94,0,0,1,6,10c.25-.29.49-.56.76-.83a11.77,11.77,0,0,1,.86-.87l.43-.42.45-.41c.29-.27.6-.54.92-.79s.61-.49.92-.73.84-.63,1.28-.92,1.17-.76,1.8-1.11c.45-.27.93-.51,1.39-.75a4.4,4.4,0,0,1,.62-.3q.66-.31,1.35-.6a7.71,7.71,0,0,1,.8-.3l.81-.31,1.05-.34.37-.1c.37-.12.76-.22,1.12-.3s.62-.15.91-.2a.32.32,0,0,1,.14,0c.27-.07.56-.12.87-.17s.83-.15,1.27-.2A24.49,24.49,0,0,1,27,0Z"/><path class="cls-1" d="M324,23V400.13c0,14.32-12,26-27,26.75l-1.46,0H28.16c-14.35,0-26.19-10-28.16-23V26.79C0,12.46,12,.75,27,0c.49,0,1,0,1.46,0H295.85C310.2,0,322,10,324,23Z"/><path class="cls-1" d="M28.49,0,27,0c.37,0,.75,0,1.13,0Z"/></g><g id="Calque_20" data-name="Calque 20"><circle class="cls-2" cx="162.01" cy="213.45" r="100.74"/><path class="cls-2" d="M324,23V134c-20.9-5.52-158.66-62.54-99.48-111.7C230.8,17.07,238.2,9.41,246.6,0h49.25C310.2,0,322,10,324,23Z"/><path class="cls-3" d="M253.78,42.25a.81.81,0,0,1-.31-1.55,23,23,0,0,1,13.85-1.13.81.81,0,1,1-.36,1.57,21.43,21.43,0,0,0-12.87,1A.85.85,0,0,1,253.78,42.25Z"/><path class="cls-3" d="M262.15,73.54c-11,0-20-7.75-20-17.28,0-5.39,2.83-10.38,7.78-13.68a.81.81,0,0,1,1.12.22.82.82,0,0,1-.23,1.12c-4.48,3-7.05,7.5-7.05,12.34,0,8.64,8.23,15.67,18.36,15.67s18.36-7,18.36-15.67c0-5.59-3.53-10.79-9.23-13.59a.81.81,0,1,1,.71-1.45c6.26,3.07,10.14,8.83,10.14,15C282.13,65.79,273.17,73.54,262.15,73.54Z"/><path class="cls-3" d="M253.65,42a.81.81,0,0,1-.31-1.56,22.53,22.53,0,0,1,8.81-1.4,26.11,26.11,0,0,1,5.05.42.81.81,0,0,1,.64.94.82.82,0,0,1-.94.65,26,26,0,0,0-4.75-.4,21.28,21.28,0,0,0-8.2,1.29A.8.8,0,0,1,253.65,42Z"/><path class="cls-3" d="M267.51,59.74a9.63,9.63,0,0,1-3.87-1,11.44,11.44,0,0,0-9.6-.26,9.85,9.85,0,0,1-5.1.8,14.56,14.56,0,0,1-6.05-2.12,1.38,1.38,0,0,1-.65-1.41,22,22,0,0,1,4.48-10.46,16.89,16.89,0,0,1,3.2-3,.81.81,0,0,1,1.13.18.8.8,0,0,1-.19,1.13A14.94,14.94,0,0,0,248,46.32a20.3,20.3,0,0,0-4.11,9.54,13,13,0,0,0,5.25,1.81,8.16,8.16,0,0,0,4.35-.7,13.08,13.08,0,0,1,10.8.28c1.64.68,2.93,1.23,5.07.58a9.07,9.07,0,0,0,2.09-.95,10.77,10.77,0,0,1,3.47-1.4,15.19,15.19,0,0,1,5.47-.21,19.29,19.29,0,0,0-3.05-7.76,15,15,0,0,0-6.09-5.15.82.82,0,0,1-.39-1.08.83.83,0,0,1,1.08-.39,16.73,16.73,0,0,1,6.73,5.7A20.85,20.85,0,0,1,282,55.32a1.37,1.37,0,0,1-.39,1.2,1.4,1.4,0,0,1-1.21.39,13.53,13.53,0,0,0-5.16.15,9.53,9.53,0,0,0-3,1.22,10.85,10.85,0,0,1-2.42,1.1A7.78,7.78,0,0,1,267.51,59.74Zm12.9-4.17h0Z"/><path class="cls-3" d="M252.24,55.13l-.32,0a2.43,2.43,0,0,1-1.55-4.23c.55-.67.89-1.17,1.66-1.15s1.07.48,1.61,1.14a3.1,3.1,0,0,1,.8,1.4h0a2.57,2.57,0,0,1-.63,2.19A2.1,2.1,0,0,1,252.24,55.13ZM252,51.44c-.1.1-.21.24-.31.36-.35.43-.49.61-.5.71a1.18,1.18,0,0,0,.93,1,.54.54,0,0,0,.5-.15,1,1,0,0,0,.22-.78c0-.12-.13-.26-.46-.67C252.26,51.74,252.12,51.56,252,51.44Z"/><path class="cls-3" d="M264.85,51.23a2.12,2.12,0,0,1-1-.25,1.82,1.82,0,0,1-.67-.65c-.09-.13-.22-.32-.45-.6A5.71,5.71,0,0,0,262,49a1.63,1.63,0,0,1-.62-.93,2.83,2.83,0,0,1,.69-2.25,2.75,2.75,0,0,1,2.15-1.11c1.74,0,2.49,2,2.81,2.88v0l-.76.28.76-.28a3,3,0,0,1,.2,2A2.36,2.36,0,0,1,265.83,51,2.59,2.59,0,0,1,264.85,51.23ZM263,47.71l.1.07a7.28,7.28,0,0,1,.89.92,6.51,6.51,0,0,1,.54.72l.11.15a.9.9,0,0,0,.64,0,.77.77,0,0,0,.46-.42,1.62,1.62,0,0,0-.19-.95l.76-.28-.76.28v0c-.17-.45-.67-1.83-1.29-1.83a1.24,1.24,0,0,0-.89.52,1.43,1.43,0,0,0-.37.89Z"/><path class="cls-3" d="M274.64,53.6c-1.23,0-2.08-1.38-2.4-2a4.12,4.12,0,0,1-.39-1.12,3.17,3.17,0,0,1,.43-2.5,2.32,2.32,0,0,1,2.82-.82,2,2,0,0,1,.92,1,2.88,2.88,0,0,0,.62.83l.35.28a1.43,1.43,0,0,1,.68,1h0c.08.61-.26,1.06-1.06,1.93s-1.23,1.35-1.75,1.41Zm-.41-5a.81.81,0,0,0-.64.34,1.68,1.68,0,0,0-.15,1.27,2.35,2.35,0,0,0,.24.67,2.72,2.72,0,0,0,.9,1.1c.18-.16.53-.54.84-.88s.43-.49.53-.61l-.4-.33a4.35,4.35,0,0,1-.95-1.25c-.13-.24-.15-.25-.19-.27A.48.48,0,0,0,274.23,48.58Zm1.93,2.05h0Z"/><path class="cls-3" d="M252.36,46.87a2.31,2.31,0,0,1-1.29-.46,3.66,3.66,0,0,1-1.48-2.89,3.48,3.48,0,0,1,1-2.51,2.72,2.72,0,0,1,2-.81,3.3,3.3,0,0,1,2.58,2,2.2,2.2,0,0,1,.36,1.42h0a1.77,1.77,0,0,1-.84,1.15,4.2,4.2,0,0,0-.53.44,2.27,2.27,0,0,0-.49.71,1.48,1.48,0,0,1-.85.84A1.39,1.39,0,0,1,252.36,46.87Zm.15-5a1.12,1.12,0,0,0-.75.36,1.87,1.87,0,0,0-.56,1.34,2,2,0,0,0,1,1.7,3.92,3.92,0,0,1,.79-1.11,5.4,5.4,0,0,1,.72-.6l.18-.14a2,2,0,0,0-.12-.26l-.08-.16c-.25-.51-.71-1.12-1.19-1.13Zm2.22,1.7h0Z"/><path class="cls-3" d="M269.5,44.55a1.31,1.31,0,0,1-.39,0c-.32-.08-.42-.17-1-.8l-.27-.28c-1.09-1.1-1.46-1.47-1.55-2.22a2.48,2.48,0,0,1,.12-1.07,3.15,3.15,0,0,1,2.94-2.44,3.25,3.25,0,0,1,3.06,3.42A3.74,3.74,0,0,1,271,44,2.39,2.39,0,0,1,269.5,44.55Zm-.19-5.25a1.54,1.54,0,0,0-1.38,1.26l0,.06a1,1,0,0,0-.05.39c0,.19.21.39,1.08,1.27l.28.28.36.37a1.32,1.32,0,0,0,.48-.29,2.08,2.08,0,0,0,.7-1.53A1.66,1.66,0,0,0,269.31,39.3Zm-2.16,1.06h0Z"/><path class="cls-2" d="M60.35,29A14.82,14.82,0,0,1,65.21,39.8a9,9,0,0,1-5.34,8.66v.48a12,12,0,0,1,2,1.47,13.91,13.91,0,0,1,2.16,2.22,10.4,10.4,0,0,1,2.26,6.58,15.31,15.31,0,0,1-5.48,12.08,20.24,20.24,0,0,1-13.76,4.76,20.05,20.05,0,0,1-13.69-4.79,17.33,17.33,0,0,1-3.63-4.86A10.57,10.57,0,0,1,29,64.61l-.14-.68a12,12,0,0,1-.75-3.7c0-2.64,2.23-4,6.7-4q2.74,0,3.63.69a7.43,7.43,0,0,1,2.06,3.56c.45,1.46,1.71,2.55,3.76,3.28a9.37,9.37,0,0,0,2.88.41q3.63,0,5.34-1.47a4.32,4.32,0,0,0,1.71-3.32,4.16,4.16,0,0,0-1.68-3.25,6,6,0,0,0-4-1.4,22.71,22.71,0,0,1-3.11-.14,5.25,5.25,0,0,1-1.78-.69c-1.24-.59-1.85-2.35-1.85-5.27,0-3.19.84-5.09,2.53-5.68a13.57,13.57,0,0,1,3.56-.34q5.2,0,5.2-2.67a3.76,3.76,0,0,0-1.37-2.74,5.28,5.28,0,0,0-3.8-1.3,7.71,7.71,0,0,0-3.86.82,3.94,3.94,0,0,0-1.78,1.64l-.41.82q-1.57,3.43-4.52,3.43a7.48,7.48,0,0,1-3.77-1.23q-3.42-2-3.42-4.59a15.87,15.87,0,0,1,1.57-4.66A13.14,13.14,0,0,1,33.24,30a14.6,14.6,0,0,1,2.84-2.71,16.94,16.94,0,0,1,4.52-2.12,20.59,20.59,0,0,1,6.47-1Q55.49,24.22,60.35,29Z"/><path class="cls-2" d="M99.74,397.32c-7.83,6.51-17.42,16.82-28.53,29.59h-43c-14.35,0-26.19-10-28.16-23V285.55C20,290.66,159.16,348,99.74,397.32Z"/><path class="cls-3" d="M70.48,377.35a.81.81,0,0,1,.31,1.56A23.07,23.07,0,0,1,56.94,380a.81.81,0,1,1,.36-1.57,21.43,21.43,0,0,0,12.87-1A.85.85,0,0,1,70.48,377.35Z"/><path class="cls-3" d="M62.11,346.06c11,0,20,7.75,20,17.28,0,5.39-2.83,10.38-7.78,13.68a.81.81,0,0,1-1.12-.22.82.82,0,0,1,.23-1.12c4.48-3,7-7.49,7-12.34,0-8.64-8.23-15.66-18.36-15.66s-18.36,7-18.36,15.66c0,5.59,3.53,10.8,9.23,13.59a.81.81,0,0,1-.71,1.45c-6.26-3.07-10.14-8.83-10.14-15C42.13,353.81,51.09,346.06,62.11,346.06Z"/><path class="cls-3" d="M70.61,377.65a.81.81,0,0,1,.31,1.56,22.77,22.77,0,0,1-8.81,1.41,27.84,27.84,0,0,1-5-.42.82.82,0,0,1-.64-.95.81.81,0,0,1,.94-.64,26.68,26.68,0,0,0,4.75.39,21.09,21.09,0,0,0,8.2-1.29A.8.8,0,0,1,70.61,377.65Z"/><path class="cls-3" d="M56.75,359.86a9.63,9.63,0,0,1,3.87,1A11.8,11.8,0,0,0,66.19,362a11.47,11.47,0,0,0,4-.92,9.76,9.76,0,0,1,5.1-.79,14.4,14.4,0,0,1,6.05,2.11,1.38,1.38,0,0,1,.65,1.41,22.1,22.1,0,0,1-4.47,10.46,17.24,17.24,0,0,1-3.21,3,.81.81,0,0,1-1.13-.18A.8.8,0,0,1,73.4,376a15.2,15.2,0,0,0,2.89-2.73,20.37,20.37,0,0,0,4.11-9.55,13,13,0,0,0-5.25-1.81,8.16,8.16,0,0,0-4.35.7,13,13,0,0,1-10.8-.28c-1.64-.68-2.93-1.23-5.07-.58a9.51,9.51,0,0,0-2.09,1,10.77,10.77,0,0,1-3.47,1.4,15.19,15.19,0,0,1-5.47.21A19.29,19.29,0,0,0,47,372.09,15,15,0,0,0,53,377.24a.82.82,0,0,1,.39,1.08.83.83,0,0,1-1.08.39,16.73,16.73,0,0,1-6.73-5.7,20.85,20.85,0,0,1-3.36-8.73,1.37,1.37,0,0,1,.39-1.2,1.4,1.4,0,0,1,1.21-.39,13.53,13.53,0,0,0,5.16-.15,9.53,9.53,0,0,0,3-1.22,10.85,10.85,0,0,1,2.42-1.1A8.13,8.13,0,0,1,56.75,359.86ZM43.85,364h0Z"/><path class="cls-3" d="M72,364.47a1.73,1.73,0,0,1,.32,0,2.42,2.42,0,0,1,1.55,4.22c-.55.67-.89,1.17-1.66,1.16s-1.07-.49-1.61-1.15a3.05,3.05,0,0,1-.8-1.4h0a2.57,2.57,0,0,1,.63-2.19A2.1,2.1,0,0,1,72,364.47Zm.23,3.69c.1-.1.21-.24.31-.36.35-.43.49-.61.5-.71a1.18,1.18,0,0,0-.93-1,.54.54,0,0,0-.5.15,1,1,0,0,0-.22.78c0,.12.13.26.46.67C72,367.86,72.14,368,72.25,368.16Z"/><path class="cls-3" d="M59.41,368.37a2.12,2.12,0,0,1,1,.25,1.82,1.82,0,0,1,.67.65,6.44,6.44,0,0,0,.45.6,5.71,5.71,0,0,0,.72.74,1.63,1.63,0,0,1,.62.93,2.83,2.83,0,0,1-.69,2.25,2.75,2.75,0,0,1-2.15,1.11c-1.74,0-2.49-2-2.81-2.88v0l.76-.28-.76.28a3,3,0,0,1-.2-2,2.36,2.36,0,0,1,1.39-1.41A2.8,2.8,0,0,1,59.41,368.37Zm1.9,3.52-.1-.07a7,7,0,0,1-.89-.91,7.44,7.44,0,0,1-.54-.73l-.11-.15a1,1,0,0,0-.64,0,.77.77,0,0,0-.46.42,1.62,1.62,0,0,0,.19.95l-.76.28.76-.28v0c.17.45.67,1.83,1.29,1.83a1.24,1.24,0,0,0,.89-.52,1.43,1.43,0,0,0,.37-.89Z"/><path class="cls-3" d="M49.62,366c1.23,0,2.08,1.38,2.4,2a4.12,4.12,0,0,1,.39,1.12,3.16,3.16,0,0,1-.43,2.5,2.32,2.32,0,0,1-2.82.82,2,2,0,0,1-.92-.95,2.64,2.64,0,0,0-.62-.83c-.14-.13-.26-.21-.35-.29a1.43,1.43,0,0,1-.68-1h0c-.08-.61.26-1.06,1.06-1.93s1.23-1.35,1.75-1.41Zm.41,5a.81.81,0,0,0,.64-.34,1.67,1.67,0,0,0,.15-1.27,2.35,2.35,0,0,0-.24-.67,2.72,2.72,0,0,0-.9-1.1c-.18.16-.53.54-.84.88s-.43.49-.53.62l.4.32a4.49,4.49,0,0,1,.95,1.25c.13.24.15.26.19.27A.34.34,0,0,0,50,371Zm-1.93-2h0Z"/><path class="cls-3" d="M71.9,372.73a2.31,2.31,0,0,1,1.29.46,3.66,3.66,0,0,1,1.48,2.89,3.48,3.48,0,0,1-1,2.51,2.72,2.72,0,0,1-2,.81,3.3,3.3,0,0,1-2.58-2,2.2,2.2,0,0,1-.36-1.42h0a1.77,1.77,0,0,1,.84-1.15,4.2,4.2,0,0,0,.53-.44,2.27,2.27,0,0,0,.49-.71,1.48,1.48,0,0,1,.85-.84A1.39,1.39,0,0,1,71.9,372.73Zm-.15,5.06a1.17,1.17,0,0,0,.75-.36,1.89,1.89,0,0,0,.56-1.35,2,2,0,0,0-1-1.7,3.92,3.92,0,0,1-.79,1.11,5.4,5.4,0,0,1-.72.6l-.18.15a2.72,2.72,0,0,0,.12.25l.08.16c.25.51.71,1.12,1.19,1.14Zm-2.22-1.71h0Z"/><path class="cls-3" d="M54.76,375.05a1.74,1.74,0,0,1,.39.05c.32.08.42.18,1,.8l.27.28c1.09,1.1,1.46,1.47,1.55,2.22a2.48,2.48,0,0,1-.12,1.07A3.15,3.15,0,0,1,55,381.91a3.25,3.25,0,0,1-3.06-3.42,3.74,3.74,0,0,1,1.41-2.88A2.39,2.39,0,0,1,54.76,375.05ZM55,380.3A1.54,1.54,0,0,0,56.33,379l0-.06a1,1,0,0,0,0-.39c0-.19-.21-.39-1.08-1.27L55,377l-.36-.36a1.25,1.25,0,0,0-.48.28,2.09,2.09,0,0,0-.7,1.53A1.66,1.66,0,0,0,55,380.3Zm2.16-1.06h0Z"/><path class="cls-2" d="M263.91,390.59a14.82,14.82,0,0,1-4.86-10.79,9,9,0,0,1,5.34-8.66v-.48a10.92,10.92,0,0,1-2-1.47,13.91,13.91,0,0,1-2.16-2.22,10.4,10.4,0,0,1-2.26-6.58,15.31,15.31,0,0,1,5.48-12.08,22.11,22.11,0,0,1,27.45,0,17.25,17.25,0,0,1,3.63,4.87,10.52,10.52,0,0,1,.75,1.78l.14.68a12,12,0,0,1,.75,3.7c0,2.64-2.23,4-6.7,4q-2.74,0-3.63-.69a7.43,7.43,0,0,1-2.06-3.56c-.45-1.46-1.71-2.55-3.76-3.28a9.37,9.37,0,0,0-2.88-.41q-3.63,0-5.34,1.47a4.32,4.32,0,0,0-1.71,3.32,4.14,4.14,0,0,0,1.68,3.25,6,6,0,0,0,4,1.4,22.71,22.71,0,0,1,3.11.14,5.25,5.25,0,0,1,1.78.69c1.24.59,1.85,2.35,1.85,5.27,0,3.19-.84,5.09-2.53,5.68a13.57,13.57,0,0,1-3.56.34q-5.21,0-5.2,2.67a3.76,3.76,0,0,0,1.37,2.74,5.28,5.28,0,0,0,3.8,1.3,7.71,7.71,0,0,0,3.86-.82,3.88,3.88,0,0,0,1.78-1.64l.41-.82Q284,377,286.91,377a7.4,7.4,0,0,1,3.77,1.24q3.42,2,3.42,4.58a15.87,15.87,0,0,1-1.57,4.66,13.14,13.14,0,0,1-1.51,2.15,14.6,14.6,0,0,1-2.84,2.71,16.94,16.94,0,0,1-4.52,2.12,20.59,20.59,0,0,1-6.47,1Q268.77,395.38,263.91,390.59Z"/></g><g id="Calque_22" data-name="Calque 22"><path class="cls-4" d="M180.18,293.25c0-1.27,2.08-2.45,4.84-2.89a17,17,0,0,1,3.88-.15l2.84-.25.44,5.16-2.16.18a20,20,0,0,1,3,7.4c.4,2.4.11,3.81-1.85,5.44a22.36,22.36,0,0,1-5.58,3.13,49,49,0,0,1-5.87,1.38,18.24,18.24,0,0,1-4.59.49c-1.71-.18-2.23-1.14-1.43-2.34a28.76,28.76,0,0,1,6.29-7.63,10.28,10.28,0,0,0,2.72-3.18,4.07,4.07,0,0,0-.36-4.15l-1.36.07a1.62,1.62,0,0,0,.29-1.43A2.44,2.44,0,0,0,180.18,293.25Z"/><path class="cls-5" d="M186.89,290.17a8.21,8.21,0,0,1,1.36,0c2.76.29.79,2.39,2.06,5.51.18.46.19.3.66,1.25a19.32,19.32,0,0,1,2.05,6c.16,1.52.23,2.3-.32,3.33a9.45,9.45,0,0,1-3.61,3.38,17.94,17.94,0,0,1-3.54,1.59,36.15,36.15,0,0,1-5.87,1.38,24.8,24.8,0,0,0,6.26-4.76,7.59,7.59,0,0,0,2-6.78C187.58,297.35,187.27,294,186.89,290.17Z"/></g><g id="Calque_21" data-name="Calque 21"><path class="cls-6" d="M173.45,293.25l5.85,10.63S153.73,317,136.9,318.32c-15.36-5.06-3.59-40.4-3.24-41.45v0a181.12,181.12,0,0,1,16.4-22.79l21-.6c4.69,7.27-15.36,33.84-23.4,44a1.63,1.63,0,0,0,1.81,2.56Z"/><path class="cls-7" d="M136.9,318.32c-7.85.63-13.81-1.31-14.39-8.36-.83-10.06,4.78-22.5,11.15-33.09C133.31,277.92,121.54,313.26,136.9,318.32Z"/><path class="cls-6" d="M170.13,322.67c-4.32.07-7.74-1.95-9.45-7.14s-2-11.61-1.32-18.24C159.4,297.9,161,320.85,170.13,322.67Z"/><path class="cls-7" d="M214.52,290l.38,3.61s-3.17,3.19-8,7.46l0,0c-4.24,1.64-22.12,16-23.79,17.38l-.1.08h0c-4.61,2.45-9,4.07-12.81,4.12h0c-9.18-1.82-10.73-24.77-10.77-25.38h0c2.43-24,17-52.08,17-52.08l23.27-6.12c7.21,7-8,42.22-14.23,55.74a1.9,1.9,0,0,0,2.71,2.42Z"/><path class="cls-4" d="M213.25,290.45c-.06-1.83,2-3.45,4.74-4a11.88,11.88,0,0,1,3.89-.06l2.84-.25.64,7.46-2.16.19a38.87,38.87,0,0,1,3.25,10.81c.49,3.48.26,5.5-1.64,7.79a20.08,20.08,0,0,1-5.49,4.29,33.72,33.72,0,0,1-5.83,1.78,12.83,12.83,0,0,1-4.58.53c-1.73-.33-2.29-1.73-1.53-3.44a38.73,38.73,0,0,1,6-10.78,13.08,13.08,0,0,0,2.61-4.5,8.17,8.17,0,0,0-.52-6l-1.35.05a3.18,3.18,0,0,0,.23-2.06A4,4,0,0,0,213.25,290.45Z"/><path class="cls-5" d="M219.86,286.27a5.37,5.37,0,0,1,1.36.05c2.78.52.89,3.48,2.28,8,.21.68.2.44.71,1.83a38.65,38.65,0,0,1,2.29,8.8c.22,2.21.32,3.34-.19,4.8a10.69,10.69,0,0,1-3.5,4.75,14.54,14.54,0,0,1-3.49,2.15,26.45,26.45,0,0,1-5.83,1.78,25.75,25.75,0,0,0,6.09-6.64c2.3-3.84,2-6.77,1.75-9.71C220.82,296.67,220.38,291.75,219.86,286.27Z"/><path class="cls-7" d="M170.14,322.68h0c-9.18-1.82-10.73-24.77-10.77-25.38Z"/><path class="cls-6" d="M206.86,301.09c-6.28,5.57-15.37,12.94-23.91,17.47h0l.1-.08C184.74,317.11,202.62,302.73,206.86,301.09Z"/></g><g id="Calque_14" data-name="Calque 14"><path class="cls-8" d="M151.38,150.15s3.25,21.42,14.8,24.19c-13.52,13.11-34.31,1.34-34.31,1.34,7.47-5.43.4-21.05.4-21.05S144.38,156.5,151.38,150.15Z"/></g><g id="vetement"><path class="cls-9" d="M123.81,176.59c-.64,6.7-3.84,29.45-17.53,32.43,3.11-10.2,11-28.24,13.4-30.38A14.41,14.41,0,0,1,123.81,176.59Z"/><path class="cls-9" d="M199.87,234.81a18.71,18.71,0,0,1,2.4,13c-3.78,21.37-54.49,20-64.54,18.35s-2.92-11.76-2.92-11.76c-7.28-5.09-9.62-23.65-10.34-37.4,9.47-12.54,12.16-37.73,12.16-37.73a14.63,14.63,0,0,1-11.3-3.18c5-1.6,11.07-2.81,11.07-2.81,2.71,7.77,29.25-6,29.25-6s14-6.36,20.28,6.28c4.25,8.6,6.85,32.62,7.15,45.63C193.27,227.39,196,228.23,199.87,234.81Z"/><circle class="cls-10" cx="159.16" cy="247.96" r="2.58"/><circle class="cls-10" cx="151.99" cy="234.36" r="2.58"/><circle class="cls-10" cx="150.51" cy="217.56" r="2.58"/><circle class="cls-10" cx="148.72" cy="202.5" r="2.58"/><circle class="cls-10" cx="140.05" cy="190.63" r="2.58"/><path class="cls-11" d="M129,175.25A35.63,35.63,0,0,0,137.27,196c1.17,1.48,2.59,2.75,3.8,4.31a17.31,17.31,0,0,1,2.69,5.14,29.58,29.58,0,0,1,1,11.46c-.26,3.84-1.14,7.64-1.45,11.38a6.65,6.65,0,0,0,.23,2.63c.12.31.43.79.65,1.19l.7,1.26c.93,1.68,1.8,3.39,2.7,5.08,1.82,3.37,3.58,6.77,5.44,10.11.94,1.66,1.86,3.34,2.88,5,.51.8,1,1.61,1.57,2.38a12,12,0,0,0,.89,1.11,2.87,2.87,0,0,0,1.09.85l0,.11a3.08,3.08,0,0,1-1.22-.81,12.41,12.41,0,0,1-1-1.06,26.38,26.38,0,0,1-1.76-2.3q-1.65-2.37-3.13-4.84c-2-3.28-3.88-6.63-5.68-10L144,233.92l-.67-1.26c-.22-.45-.45-.76-.69-1.34a7.69,7.69,0,0,1-.24-3.06c.16-2,.57-3.84.91-5.72s.71-3.76.94-5.65a24.58,24.58,0,0,0-.77-11.28,14.92,14.92,0,0,0-2.8-4.9c-1.21-1.41-2.74-2.64-4-4.11a31.11,31.11,0,0,1-7.7-21.35Z"/><path class="cls-12" d="M125.79,228.51a1.23,1.23,0,0,0,.49.92,6.76,6.76,0,0,0,.88.7c.62.44,1.29.82,1.94,1.23a12.6,12.6,0,0,0,2.05,1.19,8.61,8.61,0,0,0,2.29.55,22.39,22.39,0,0,0,4.63,0,14,14,0,0,0,4.47-1.14l.06.09a7.53,7.53,0,0,1-4.4,2.15,9.88,9.88,0,0,1-2.49,0,10.76,10.76,0,0,1-2.39-.54c-.77-.27-1.52-.55-2.29-.79s-1.57-.42-2.33-.74a7.36,7.36,0,0,1-2-1.37,4.33,4.33,0,0,1-.81-1,1.32,1.32,0,0,1-.14-1.29Z"/><path class="cls-12" d="M192.08,199.17l.25.1a.85.85,0,0,1,.2.22,1,1,0,0,1,.07.56,3.08,3.08,0,0,1-.33,1,9.41,9.41,0,0,1-1.15,1.68,17.2,17.2,0,0,1-2.92,2.74c-1.09.78-2.25,1.44-3.36,2.14l-3.34,2.15a31.49,31.49,0,0,1-7.18,3.46,23.19,23.19,0,0,1-7.88,1.13v-.1a57.6,57.6,0,0,0,7.55-2.08,71.12,71.12,0,0,0,7.25-2.9,20.61,20.61,0,0,0,3.42-1.94,34.61,34.61,0,0,0,3-2.52c1-.87,2-1.71,2.87-2.62a13.12,13.12,0,0,0,1.27-1.43,3.32,3.32,0,0,0,.46-.79.51.51,0,0,0-.22-.72Z"/><path class="cls-12" d="M197.41,197.18a.46.46,0,0,1,.41.29.84.84,0,0,1-.06.52,3,3,0,0,1-.52.84,11.17,11.17,0,0,1-1.35,1.4,24,24,0,0,1-3.09,2.33c-2.21,1.34-4.49,2.52-6.75,3.74a42.7,42.7,0,0,1-7.13,3,31.12,31.12,0,0,1-7.58,1.42v-.05a66.76,66.76,0,0,0,14.6-4.59,33.63,33.63,0,0,0,6.63-3.83c1.05-.74,2.09-1.47,3.07-2.28a13.13,13.13,0,0,0,1.41-1.28,3.84,3.84,0,0,0,.56-.73c.17-.26.16-.62-.2-.69Z"/><path class="cls-13" d="M172.64,224.73c.61-2.39-5.48-3.23-5.48-3.23s-2.29,2.32.85,3.5"/></g><g id="Calque_11" data-name="Calque 11"><path class="cls-14" d="M161.22,149.44l5.35,6.39c-4.7-3.33-17.13,8.79-16.38-4.17"/><path class="cls-14" d="M153.1,151.17c-3.69-8.16,8.12-1.73,8.12-1.73"/><path class="cls-15" d="M116.48,123.66s-7.22,22,13,38.29,23.73-4.07,23.73-4.07,6.42-17.57-1.36-28.47-5-13.27-18.79-14.51S116.48,123.66,116.48,123.66Z"/><ellipse class="cls-16" cx="123.19" cy="136.03" rx="4.24" ry="7.12" transform="translate(-38.33 48.91) rotate(-19.5)"/><ellipse class="cls-17" cx="123.95" cy="135.76" rx="3.43" ry="7.12" transform="translate(-38.2 49.15) rotate(-19.5)"/><ellipse class="cls-16" cx="139.89" cy="130.64" rx="4.24" ry="7.12" transform="translate(-35.58 54.18) rotate(-19.5)"/><ellipse class="cls-17" cx="140.66" cy="130.37" rx="3.43" ry="7.12" transform="translate(-35.44 54.42) rotate(-19.5)"/><path class="cls-13" d="M133.59,182c-2.35-.38-9.55-3.85-9.62-7.23,0,0,10.16.36,12.66,4.52"/></g><g id="Calque_12" data-name="Calque 12"><path class="cls-18" d="M124.27,117.82s-1,5.35,3.3,3.83,12.17-1.15,13.6.11,3.75,2.63,6,9.91,11.08,26.43,19.4,24.16c0,0-9.3-20-12.56-29.5-2-5.84-4.81-8.85-6.91-9.82-.82-.38-4.34-3-6-3.38-3.17-.79-4.41-2.65-13.76,1.86C117,120,124.27,117.82,124.27,117.82Z"/><g class="cls-19"><path class="cls-20" d="M118.49,121.49a2.84,2.84,0,0,0-.31.75,3.1,3.1,0,0,0-.12.8,10.16,10.16,0,0,0,.06,1.64,3.83,3.83,0,0,1-.26-.81,4,4,0,0,1-.06-.85A2.14,2.14,0,0,1,118.49,121.49Z"/></g><g class="cls-19"><path class="cls-20" d="M119.78,119.62a2.85,2.85,0,0,0-.47,1.25,4.56,4.56,0,0,0,0,1.33,7.63,7.63,0,0,0,.26,1.33c.12.44.26.87.41,1.31a8,8,0,0,1-.6-1.25,6.26,6.26,0,0,1-.32-1.36,3.89,3.89,0,0,1,.07-1.4A2.4,2.4,0,0,1,119.78,119.62Z"/></g><path class="cls-3" d="M147.77,156.44c-1.45.78-3,1.57-4.63,2.35q-2.88,1.38-5.54,2.47a7.36,7.36,0,0,1-2.21-2,6.59,6.59,0,0,1-1.17-3.17A26.55,26.55,0,0,0,143,151.7a8.93,8.93,0,0,1,3,1.93A7.09,7.09,0,0,1,147.77,156.44Z"/><path class="cls-21" d="M143.91,152.11a18.11,18.11,0,0,1-1.54,1.3,20.65,20.65,0,0,1-2.6,1.67c-.23.13-.48.25-.73.38a22.61,22.61,0,0,1-2.51,1,21.38,21.38,0,0,1-2.11.61,6.17,6.17,0,0,0,.76,1.77,6.93,6.93,0,0,0,1.15,1.4,22.24,22.24,0,0,0,2.64-.75,20.59,20.59,0,0,0,2.83-1.27,19,19,0,0,0,2.27-1.46,17.75,17.75,0,0,0,2.62-2.4,7.8,7.8,0,0,0-1.35-1.38A9.15,9.15,0,0,0,143.91,152.11Z"/><path class="cls-15" d="M133.43,141.91s-2.52,9.68.24,15.78c0,0,1.82,4.12,4.76-8.33"/><path class="cls-22" d="M134.83,158.81a.66.66,0,0,1-.23,0,1.48,1.48,0,0,1-1.4-.95c-2.81-6.19-.37-15.71-.27-16.11a.52.52,0,0,1,1,.26c0,.09-2.45,9.57.21,15.43.06.12.23.36.37.35s1.48-.39,3.42-8.59a.51.51,0,0,1,.62-.38.52.52,0,0,1,.38.62C137.14,157.06,135.76,158.56,134.83,158.81Z"/></g><g id="Calque_18" data-name="Calque 18"><ellipse class="cls-23" cx="131.21" cy="175.14" rx="5.84" ry="5.17" transform="matrix(0.96, -0.26, 0.26, 0.96, -41.48, 40.72)"/><ellipse class="cls-23" cx="172.43" cy="225.02" rx="5.84" ry="5.17" transform="matrix(0.96, -0.26, 0.26, 0.96, -53.16, 53.33)"/></g><g id="Calque_19" data-name="Calque 19"><path class="cls-24" d="M199.85,197a12.66,12.66,0,0,1,0,1.63c-6.31,12.34-20.3,24.18-23.48,26.78-5,0-9.45-3.79-9.45-3.79s24.38-20.19,21.15-26.51a17.08,17.08,0,0,0-3.18-4.23,79.08,79.08,0,0,1-16.17-22.69l-.79-1.73C196.42,159.13,199.13,182.77,199.85,197Z"/><path class="cls-12" d="M134.8,254.37c-.41-.78,23.75,4.56,36,4.33a39.86,39.86,0,0,0,9.52-1.31,28.38,28.38,0,0,0,9.66-4.17A21.17,21.17,0,0,0,198.29,243a19.82,19.82,0,0,0,1-8.71c-.83,2.19-5.12,17-19.81,20.57C150.26,261.9,136,256.57,134.8,254.37Z"/><path class="cls-12" d="M199.85,198.62c-.83,13.61-19.93,26.07-19.93,26.07a8.83,8.83,0,0,1-3.55.71C179.55,222.8,193.54,211,199.85,198.62Z"/><path class="cls-12" d="M187.45,192.49c-7.76-1.77-13.67-15.08-13.67-15.08a6.15,6.15,0,0,1-.18-2.32C174.89,177.35,180.78,187.34,187.45,192.49Z"/></g><g id="Calque_16" data-name="Calque 16"><path class="cls-24" d="M124.46,216.74a2,2,0,0,0,0,.24l-.49.64Z"/><path class="cls-12" d="M125.33,176.07c-.52.16-1,.34-1.52.52.12-1.18.16-1.86.16-1.86A9.82,9.82,0,0,0,125.33,176.07Z"/><path class="cls-6" d="M132.93,198c-1.89,6.74-4.61,13.91-8.46,19a2,2,0,0,1,0-.24l-.48.88c-6,10.55-10.7,11-14,8.31,0,0,0,0,0,0C110.62,225.43,129,209.67,132.93,198Z"/><path class="cls-7" d="M136.63,179.25a129.24,129.24,0,0,1-3.7,18.72c-4,11.7-22.31,27.46-22.88,27.94,0,0,0,0,0,0-3.28-2.73-5-8.68-5.06-11a24.37,24.37,0,0,1,1.31-6c13.69-3,16.89-25.73,17.53-32.43.49-.18,1-.36,1.52-.52A14.63,14.63,0,0,0,136.63,179.25Z"/></g><g id="Calque_10" data-name="Calque 10"><path class="cls-9" d="M134.64,114.14l2.41-8.19a7.4,7.4,0,0,0,5.43,1.41c2.88-.48,5.55-2.9,5.53-5.19,0-2.7-3.75-5.87-9.28-5.59-.17-.35-2.53-5-7.61-5.6a10.1,10.1,0,0,0-10.18,5.91c-4.25-.37-8,1.23-9.62,4.18-.21.38-2.1,4.05,0,6.39a5.33,5.33,0,0,0,5.62,1.15l2.93,10a15.79,15.79,0,0,0,7.51-.18A16.06,16.06,0,0,0,134.64,114.14Z"/><path class="cls-25" d="M148,101.72a8.11,8.11,0,0,1-11.75.44,13.63,13.63,0,0,1-7.85,3.55,13.49,13.49,0,0,1-7.86-1.67,7.81,7.81,0,0,1-5.68,2.51,7.47,7.47,0,0,1-4.49-1.62,4.85,4.85,0,0,0,2.54,3.76,4.74,4.74,0,0,0,4-.08l.28,1a23.63,23.63,0,0,0,7.22,1.14,23.28,23.28,0,0,0,8.23-1.53l-1.08,7.42a13.94,13.94,0,0,0,1.63-1.16,16,16,0,0,0,1.44-1.3l2.41-8.19c2.91,2.14,6.58,2.16,8.8.29A6.52,6.52,0,0,0,148,101.72Z"/><path class="cls-26" d="M135.07,104.58a10.14,10.14,0,0,1-2.51,2.28,10.93,10.93,0,0,1-5.7,1.62,8,8,0,0,1-4.45-.71,6.75,6.75,0,0,1-2-1.6,10.46,10.46,0,0,0,6.41,1.56,13.87,13.87,0,0,0,3.83-1A31.58,31.58,0,0,0,135.07,104.58Z"/></g><g id="Calque_17" data-name="Calque 17"><path d="M133.22,179.6l-.53-.15a11.78,11.78,0,0,0,.44-1.39c.08-.29.15-.64.3-1.33.22-1.06.24-1.17.33-1.53a13,13,0,0,1,.43-1.29l.53.14a11,11,0,0,1-.29,1.36c-.11.39-.16.49-.46,1.42-.22.67-.33,1-.43,1.38C133.38,178.79,133.28,179.27,133.22,179.6Z"/><path d="M133.5,179.85a.39.39,0,0,1-.25.32c-.09,0-.13,0-.47-.07s-.33-.06-.4-.13a.4.4,0,0,1-.09-.35c.08-.23.43-.3.68-.26S133.52,179.6,133.5,179.85Z"/><path d="M144.09,176.7l-.38.4c-.22-.25-.56-.62-1-1-.22-.2-.5-.43-1-.88-.83-.7-.92-.76-1.19-1a10.18,10.18,0,0,1-.94-1l.38-.4c.25.2.63.5,1.06.91s.35.36,1,1.06c.49.51.74.77,1,1A14,14,0,0,0,144.09,176.7Z"/><path d="M144.44,176.58a.38.38,0,0,1,.17.37c0,.09-.06.11-.29.38s-.21.26-.29.29a.39.39,0,0,1-.36-.09c-.17-.17-.06-.52.09-.72S144.23,176.44,144.44,176.58Z"/><path class="cls-27" d="M143.45,166.82a.7.7,0,0,1,0,.14s0,0,0,.08v.05a.7.7,0,0,1,0,.12c0,.08,0,.15,0,.23a5.87,5.87,0,0,1-2.14,5.2,3.67,3.67,0,0,1-.32.25s0,0,0,0l-.5.33h0c-.18.09-.35.19-.52.26l-.06,0-.42.16-.53.17-.54.13h0l-.63.11c-.27.06-.54.1-.83.15l-.36.08-.6.09a6.48,6.48,0,0,1-3-.07,6.32,6.32,0,0,1-4.39-4.7c0-.19,0-.39,0-.58a5.78,5.78,0,0,1,1.2-3.55,7.82,7.82,0,0,1,1.34-1.42h0a2.48,2.48,0,0,1,.3-.25l.06,0a8.56,8.56,0,0,1,1.25-.8,7.65,7.65,0,0,1,1-.44c0,1.95.37,4.06,2,1.49,0,0,.57,2.7,1.47,1.51,0,0,.6,1.84,2.71.65l.29-.19a3.11,3.11,0,0,0,1,1h0l.24.11a1.89,1.89,0,0,0,1.8-.22l.08-.06Z"/><path class="cls-2" d="M143.48,167s0,0,0,.08v.05a.7.7,0,0,1,0,.12.89.89,0,0,0,0,.22,4.46,4.46,0,0,1,.05.88,6.18,6.18,0,0,1-.26,1.43,5.81,5.81,0,0,1-1.94,2.9,3.67,3.67,0,0,1-.32.25s0,0,0,0l-.5.33h0c-.18.09-.35.19-.52.26l-.06,0-.42.16-.53.17-.23,0a6,6,0,0,0,2.78-3.13,5.26,5.26,0,0,0,.21-2.59.66.66,0,0,0,0-.21h0a4.18,4.18,0,0,0-.22-.86,1.89,1.89,0,0,0,1.8-.22l.08-.06A.69.69,0,0,1,143.48,167Z"/><path class="cls-28" d="M131.06,165.45a.56.56,0,0,0,.42-.13l.08-.15a2.12,2.12,0,0,0,.18-.37c0-.22-.25-.45-.4-.56a1,1,0,0,1,.06.81A1,1,0,0,1,131.06,165.45Z"/><path class="cls-29" d="M131.51,164.76c0,.46-.51.8-.95.88s-1.17-.25-1.18-.53c0-.12.2-.29.59-.61a2,2,0,0,1,.36-.27.91.91,0,0,1,.84-.11A.7.7,0,0,1,131.51,164.76Z"/><path class="cls-30" d="M131.17,164.12a.61.61,0,0,1,.34.66.93.93,0,0,1-.51.7Z"/><path class="cls-2" d="M143.54,167.21l-.14.18a.75.75,0,0,1-.15.16s0,0,0,0h0a2.11,2.11,0,0,1-.22.17l0,0-.15.08-.06,0h0l0,0a1.31,1.31,0,0,1-.63.09h-.13l-.14,0a5.67,5.67,0,0,0-1.3-.34h-.17a.73.73,0,0,0-.25.08.31.31,0,0,0-.12.05s-.07,0-.09.06h0a.5.5,0,0,0-.14.1,2.22,2.22,0,0,0-.3.31l0,.05a.64.64,0,0,0-.11.16s0,0,0,0a1.45,1.45,0,0,0-.1.18,2,2,0,0,0-.13.25c0,.06-.07.14-.11.24-.3.63-.42.93-.51,1.1a1.17,1.17,0,0,1-.05.11s0,0,0,0l-.06.1a.47.47,0,0,1-.06.09,2.51,2.51,0,0,1-.6.75l-.06,0h0a.94.94,0,0,1-.47.2c-.73.12-1.48-.47-2.08-.94-1.22-1-1.2-1.84-1.84-1.92H133a.37.37,0,0,0-.13,0,.53.53,0,0,0-.21.08,1.18,1.18,0,0,0-.24.17l-.13.13s0,0,0,0c-.24.27-.47.6-.72.91l0,.06a.68.68,0,0,1-.11.12l0,0a1.93,1.93,0,0,1-.62.5h0a1,1,0,0,1-.41.1c-.74,0-1.35-.69-1.71-1.22,0-.19,0-.39,0-.58a5.3,5.3,0,0,1,.1-1.38,5.64,5.64,0,0,1,1-2.24,1.1,1.1,0,0,0,.09-.14,6.91,6.91,0,0,1,1.18-1.25h0a2,2,0,0,1,.37-.28.38.38,0,0,1,.11-.08h0a9.09,9.09,0,0,1,1.12-.69h0a8.41,8.41,0,0,1,1.17-.47s0,0,0,.06c0,1.95.37,4.06,2,1.49,0,0,1.28,2.23,2.17,1,0,0,0,1.82,1.44,1.36a3.7,3.7,0,0,0,.57-.24l.29-.19a3.11,3.11,0,0,0,1,1h0l.24.11a1.89,1.89,0,0,0,1.8-.22Z"/><path class="cls-31" d="M143.45,166.82a.7.7,0,0,1,0,.14s0,0,0,.08v.05a.7.7,0,0,1,0,.12l-.14.18a.67.67,0,0,1-.11.14l0,0,0,0h0a.28.28,0,0,1-.1.09l0,0-.09.05,0,0-.15.08-.06,0h0a1.85,1.85,0,0,1-.67.11h-.13l-.14,0h0a10.21,10.21,0,0,0-.46-1l.24.11a1.89,1.89,0,0,0,1.8-.22l.08-.06Z"/><path class="cls-3" d="M130.26,165.84a.3.3,0,0,1,.32-.05.32.32,0,0,1,.14.4,4.69,4.69,0,0,0-.56.87,5.06,5.06,0,0,0-.38,1,.28.28,0,0,1-.33.16.29.29,0,0,1-.15-.4,4.61,4.61,0,0,1,.39-1.13A5.25,5.25,0,0,1,130.26,165.84Z"/><path class="cls-28" d="M132.44,167.22l.12.2a1.44,1.44,0,0,1,.1.22,1,1,0,0,1,.09.25.35.35,0,0,1,0,.17.18.18,0,0,1-.18,0,.88.88,0,0,1-.19-.49A.94.94,0,0,1,132.44,167.22Z"/><path class="cls-29" d="M132.41,167.43c.07.44.21.54.13.65s-.53.12-.6.11-.62-.13-.69-.57a.7.7,0,0,1,.47-.76.6.6,0,0,1,.61.17C132.39,167.12,132.36,167.17,132.41,167.43Z"/><path class="cls-30" d="M132.26,167a.38.38,0,0,1,.12.11c.12.15.05.29.09.56s.16.36.1.46-.14.13-.38.13Z"/><path class="cls-32" d="M137.51,171.4a4.16,4.16,0,0,0,.73-.9,11.53,11.53,0,0,0,.63-1.34,4.43,4.43,0,0,1,.35-.68,1.79,1.79,0,0,1,.71-.71,1.3,1.3,0,0,1,.54-.13,3.33,3.33,0,0,0-1.08,1c-.33.52-.32.87-.6,1.4A3.58,3.58,0,0,1,137.51,171.4Z"/><path class="cls-32" d="M130.75,170.78a2.93,2.93,0,0,0,.67-.53c.07-.08.19-.24.43-.56a4.21,4.21,0,0,1,.79-.85.92.92,0,0,1,.27-.09.37.37,0,0,1,.13,0,5.37,5.37,0,0,0-.6.56l-.46.55a3.79,3.79,0,0,1-.58.64A1.88,1.88,0,0,1,130.75,170.78Z"/><path class="cls-33" d="M143.54,167.21a.89.89,0,0,0,0,.22h0a1.46,1.46,0,0,1-.28.27,1.36,1.36,0,0,1-.61.21l0,0h0l.06,0,.15-.08,0,0,.12-.08a.28.28,0,0,0,.1-.09h0s0,0,0,0a.75.75,0,0,0,.15-.16Z"/><path class="cls-28" d="M132.51,164.14a.53.53,0,0,0,.32,0A1.12,1.12,0,0,1,133,164c.11-.07.15-.07.18-.12s0-.1,0-.19a1.09,1.09,0,0,0,0-.13.7.7,0,0,0-.1-.23.59.59,0,0,1-.06.35.89.89,0,0,1-.24.25Z"/><path class="cls-29" d="M133.09,163.35h0s0,.08,0,.12a.65.65,0,0,1-.05.21,1.94,1.94,0,0,1-.29.28l-.18.12h0a.23.23,0,0,1-.18.05s0,0,0,0a1.13,1.13,0,0,1-.33-.1,2.48,2.48,0,0,1-.51-.24.11.11,0,0,1-.07-.06v-.06h0a.77.77,0,0,1,.31-.38,1.11,1.11,0,0,1,.44-.24,2.36,2.36,0,0,1,.4-.08.41.41,0,0,1,.16,0,.31.31,0,0,1,.12,0,.58.58,0,0,1,.14.13A.37.37,0,0,1,133.09,163.35Z"/><path class="cls-30" d="M133,163.2a.48.48,0,0,1-.06.63c-.07.09-.1.07-.38.27a.34.34,0,0,1-.13.05h-.11Z"/><path class="cls-28" d="M137.23,168.67a.51.51,0,0,0,.43-.13.76.76,0,0,0,.07-.14,1.89,1.89,0,0,0,.18-.38c0-.21-.24-.45-.4-.55a.84.84,0,0,1-.28,1.2Z"/><path class="cls-29" d="M137.69,168c0,.46-.52.81-.95.88s-1.18-.25-1.18-.53c0-.12.19-.28.59-.61a1.72,1.72,0,0,1,.36-.27,1,1,0,0,1,.83-.11A.71.71,0,0,1,137.69,168Z"/><path class="cls-30" d="M137.34,167.34a.45.45,0,0,1,.17.13.71.71,0,0,1,.18.53,1,1,0,0,1-.51.7Z"/><path class="cls-28" d="M135.5,166.75a.25.25,0,0,0,.27,0s0,0,.07-.09l.18-.27c.06-.16-.07-.4-.14-.52a1,1,0,0,1-.11.66A.64.64,0,0,1,135.5,166.75Z"/><path class="cls-29" d="M135.89,166.28a.69.69,0,0,1-.71.52c-.35,0-.65-.42-.6-.65s.16-.19.45-.37a1.68,1.68,0,0,1,.26-.15c.11,0,.36-.11.51.08A.67.67,0,0,1,135.89,166.28Z"/><path class="cls-30" d="M135.8,165.71a.26.26,0,0,1,.08.13.78.78,0,0,1,0,.46.68.68,0,0,1-.43.46Z"/><ellipse class="cls-32" cx="133.45" cy="171.42" rx="0.81" ry="1.3" transform="matrix(0.99, -0.16, 0.16, 0.99, -25.99, 23.86)"/><ellipse cx="133.54" cy="171.4" rx="0.71" ry="1.3" transform="translate(-25.99 23.88) rotate(-9.32)"/><ellipse class="cls-32" cx="140.09" cy="170.33" rx="0.81" ry="1.3" transform="translate(-25.73 24.92) rotate(-9.32)"/><ellipse cx="140.18" cy="170.31" rx="0.71" ry="1.3" transform="translate(-25.72 24.94) rotate(-9.32)"/><ellipse class="cls-34" cx="137.18" cy="173.09" rx="0.61" ry="0.19" transform="translate(-26.21 24.49) rotate(-9.32)"/><path class="cls-35" d="M137.59,172.76a1.86,1.86,0,0,0-.46,0,1.15,1.15,0,0,0-.63.28.21.21,0,0,0,0,.16c0,.07.08.16.3.2a1.88,1.88,0,0,0,.47,0l.2,0c.26-.07.5-.2.47-.38S137.83,172.79,137.59,172.76Zm-.4.4a.94.94,0,0,1-.45,0,1.51,1.51,0,0,1,.43-.14,1.31,1.31,0,0,1,.45,0A1.24,1.24,0,0,1,137.19,173.16Z"/><path class="cls-36" d="M133.76,162.52s0,0,0,.06c0,1.95.37,4.06,2,1.49"/><path class="cls-36" d="M140.28,166a3.11,3.11,0,0,0,1,1h0l.24.11a1.89,1.89,0,0,0,1.8-.22l.08-.06h0a3.71,3.71,0,0,0,.41-.33"/><g class="cls-37"><path d="M143.45,166.82a.7.7,0,0,1,0,.14s0,0,0,.08v.05a.7.7,0,0,1,0,.12.89.89,0,0,0,0,.22,4.46,4.46,0,0,1,.05.88h0c-.61,0-1.21-.06-1.79-.12s-1.15-.18-1.7-.3l-.26,0h0a21.53,21.53,0,0,1-3.9-1.33l-.1,0h0l-.2-.11c-.28-.12-.56-.26-.82-.4a22.16,22.16,0,0,1-3.34-2.09l-.12-.08a.38.38,0,0,1,.11-.08h0a.77.77,0,0,1,.31-.38,1.11,1.11,0,0,1,.44-.24,2.36,2.36,0,0,1,.4-.08,8.41,8.41,0,0,1,1.17-.47s0,0,0,.06c0,1.95.37,4.06,2,1.49,0,0,1.28,2.23,2.17,1,0,0,0,1.82,1.44,1.36a3.7,3.7,0,0,0,.57-.24l.29-.19a3.11,3.11,0,0,0,1,1h0l.24.11a1.89,1.89,0,0,0,1.8-.22l.08-.06Z"/></g><path d="M169.52,242l-.5.14a12.87,12.87,0,0,0-.32-1.37c-.07-.28-.18-.61-.4-1.25-.32-1-.37-1.08-.47-1.42a11.06,11.06,0,0,1-.26-1.28l.5-.14c.11.29.27.73.42,1.27.1.37.11.48.31,1.39.15.67.22,1,.32,1.36C169.27,241.22,169.42,241.67,169.52,242Z"/><path d="M169.88,242a.39.39,0,0,1,0,.39c-.06.07-.11.06-.43.17s-.3.11-.38.09a.37.37,0,0,1-.25-.25c-.05-.23.21-.46.43-.54S169.77,241.83,169.88,242Z"/><path d="M171.2,241.42l-.51.14a12.37,12.37,0,0,0-.31-1.37c-.08-.28-.19-.6-.4-1.25-.33-1-.38-1.08-.47-1.42a10.93,10.93,0,0,1-.27-1.28l.51-.14a12.07,12.07,0,0,1,.41,1.27c.1.37.11.48.31,1.39.15.67.22,1,.32,1.36C170.94,240.68,171.09,241.12,171.2,241.42Z"/><path d="M171.55,241.49a.39.39,0,0,1-.05.39c-.06.07-.1.06-.43.17s-.3.11-.38.09a.37.37,0,0,1-.25-.25c-.05-.23.21-.46.44-.54S171.45,241.28,171.55,241.49Z"/><path class="cls-27" d="M174.79,230.19a5.94,5.94,0,0,1-2,5.2,8.07,8.07,0,0,1-4.22,1.56,7.91,7.91,0,0,1-3.82.1,6.08,6.08,0,0,1-4.22-4.52c-.52-3.21,2.68-6.56,6.17-7.13C170.62,224.75,174.25,226.9,174.79,230.19Z"/><path class="cls-2" d="M170.27,236.61a6.12,6.12,0,0,0,2.19-1,5.82,5.82,0,0,0,2.17-3,5.16,5.16,0,0,0,.15-2.51c-.47-2-2.51-3.63-5.14-4.18,2.9,2,4.16,5.16,3.28,7.68A5.8,5.8,0,0,1,170.27,236.61Z"/><path class="cls-28" d="M162.82,228.49a.48.48,0,0,0,.41-.12s0,0,.07-.14c.17-.32.17-.32.17-.36,0-.21-.23-.43-.38-.53a.85.85,0,0,1,.06.77A.75.75,0,0,1,162.82,228.49Z"/><path class="cls-29" d="M163.26,227.83c0,.44-.49.77-.91.84s-1.13-.24-1.14-.51c0-.11.19-.27.57-.58a2,2,0,0,1,.35-.26.88.88,0,0,1,.8-.1A.67.67,0,0,1,163.26,227.83Z"/><path class="cls-30" d="M162.93,227.22a.47.47,0,0,1,.16.12.69.69,0,0,1,.17.51.92.92,0,0,1-.49.67Z"/><path class="cls-2" d="M160.5,232.53a5.74,5.74,0,0,1,0-1.88,5.66,5.66,0,0,1,1-2.27,7.76,7.76,0,0,1,5.1-3c3.09-.38,6.35,1.52,8.12,4.79a1.84,1.84,0,0,1-.83.67c-.91.36-1.49-.37-2.27-.26-1.57.24-1.57,3.52-3.12,3.78-.71.12-1.42-.44-2-.9-1.17-.92-1.15-1.77-1.76-1.84-1-.1-1.48,2-2.68,2.06C161.43,233.73,160.85,233,160.5,232.53Z"/><path class="cls-31" d="M167.23,225.33a10.16,10.16,0,0,1,4.1,2.77,9.82,9.82,0,0,1,1.77,2.82,1.63,1.63,0,0,0,.93-.09,1.54,1.54,0,0,0,.76-.64,5.17,5.17,0,0,0-.24-.94,5.89,5.89,0,0,0-2.22-2.73A7.5,7.5,0,0,0,167.23,225.33Z"/><path class="cls-3" d="M162.06,228.87a.3.3,0,0,1,.31-.05.31.31,0,0,1,.13.38,4.91,4.91,0,0,0-.54.84,5.25,5.25,0,0,0-.36,1,.27.27,0,0,1-.32.15.29.29,0,0,1-.15-.39,5.18,5.18,0,0,1,.38-1.07A4.89,4.89,0,0,1,162.06,228.87Z"/><path class="cls-28" d="M164.15,230.19l.11.2a1.11,1.11,0,0,1,.1.21.72.72,0,0,1,.08.24c0,.12,0,.15,0,.16s-.16,0-.17,0a.92.92,0,0,1-.18-.47A.89.89,0,0,1,164.15,230.19Z"/><path class="cls-29" d="M164.12,230.39c.07.43.2.52.12.63s-.51.11-.57.1-.59-.12-.66-.54a.66.66,0,0,1,.45-.73.56.56,0,0,1,.58.16C164.11,230.1,164.08,230.15,164.12,230.39Z"/><path class="cls-30" d="M164,229.94a.37.37,0,0,1,.11.11c.11.14,0,.28.09.53s.15.35.09.45-.13.12-.36.12Z"/><path class="cls-32" d="M169,234.2a4.76,4.76,0,0,0,.7-.86c.1-.17.13-.25.6-1.29a4.17,4.17,0,0,1,.33-.65,1.71,1.71,0,0,1,.68-.68,1.44,1.44,0,0,1,.52-.13,3.18,3.18,0,0,0-1,1c-.32.51-.31.84-.58,1.34A3.36,3.36,0,0,1,169,234.2Z"/><path class="cls-32" d="M162.53,233.61a3,3,0,0,0,.64-.51c.07-.08.19-.23.41-.53a3.93,3.93,0,0,1,.76-.82.91.91,0,0,1,.26-.09l.12,0a5.06,5.06,0,0,0-.57.54c-.12.13-.15.17-.44.52a4.12,4.12,0,0,1-.56.62A2,2,0,0,1,162.53,233.61Z"/><path class="cls-33" d="M174,230.86a1.22,1.22,0,0,0,.59-.2,1,1,0,0,0,.27-.27l0-.2a1.66,1.66,0,0,1-.26.32A1.61,1.61,0,0,1,174,230.86Z"/><path class="cls-28" d="M164.22,227.23a.49.49,0,0,0,.3,0c.06,0,.06-.06.16-.12s.15-.06.18-.11a.47.47,0,0,0,0-.18.27.27,0,0,0,0-.13.49.49,0,0,0-.09-.22.59.59,0,0,1-.05.34.93.93,0,0,1-.24.24A3.28,3.28,0,0,1,164.22,227.23Z"/><path class="cls-29" d="M164.8,226.6c0,.21-.18.35-.34.47a.57.57,0,0,1-.38.18c-.08,0-.14,0-.34-.09-.36-.14-.54-.22-.56-.29s.18-.33.31-.43a1.1,1.1,0,0,1,.41-.23.79.79,0,0,1,.67,0A.49.49,0,0,1,164.8,226.6Z"/><path class="cls-30" d="M164.7,226.34a.5.5,0,0,1,.1.26.54.54,0,0,1-.15.34c-.07.09-.09.07-.36.26a.44.44,0,0,1-.13.05h-.1Z"/><path class="cls-28" d="M168.75,231.58a.47.47,0,0,0,.4-.12l.08-.14a2.12,2.12,0,0,0,.17-.36c0-.2-.24-.43-.38-.53a.94.94,0,0,1,.06.78A.88.88,0,0,1,168.75,231.58Z"/><path class="cls-29" d="M169.19,230.92c0,.44-.5.78-.92.84s-1.13-.24-1.13-.5.19-.27.57-.59a2,2,0,0,1,.34-.26.89.89,0,0,1,.8-.1A.69.69,0,0,1,169.19,230.92Z"/><path class="cls-30" d="M168.85,230.31a.53.53,0,0,1,.17.12.69.69,0,0,1,.17.51.9.9,0,0,1-.5.67Z"/><path class="cls-28" d="M167.09,229.74a.25.25,0,0,0,.26,0,.44.44,0,0,1,.06-.1c.16-.22.16-.22.17-.25a.67.67,0,0,0-.13-.5,1,1,0,0,1-.1.63A.64.64,0,0,1,167.09,229.74Z"/><path class="cls-29" d="M167.46,229.29a.65.65,0,0,1-.69.5c-.33,0-.62-.41-.57-.62s.16-.18.44-.36a1,1,0,0,1,.25-.14.42.42,0,0,1,.49.07A.66.66,0,0,1,167.46,229.29Z"/><path class="cls-30" d="M167.38,228.74a.5.5,0,0,1,.07.13.71.71,0,0,1,0,.44.64.64,0,0,1-.41.44Z"/><path class="cls-28" d="M168.36,227.16a.39.39,0,0,0,.25,0,.72.72,0,0,1,.15-.07c.1,0,.13,0,.16-.07s0-.07.05-.15a.59.59,0,0,0,0-.11.56.56,0,0,0,0-.2.53.53,0,0,1-.11.28,1,1,0,0,1-.23.16Z"/><path class="cls-29" d="M168.94,226.74c0,.18-.21.26-.36.34a.52.52,0,0,1-.34.07c-.06,0-.1,0-.24-.14s-.39-.3-.39-.37.2-.24.32-.31a.94.94,0,0,1,.38-.1.56.56,0,0,1,.52.13A.45.45,0,0,1,168.94,226.74Z"/><path class="cls-30" d="M168.91,226.49a.43.43,0,0,1,0,.25.49.49,0,0,1-.18.26c-.08.06-.09,0-.34.14a.24.24,0,0,1-.11,0l-.08,0Z"/><path class="cls-38" d="M173.86,228.81c0,.05,0,.11,0,.19s0,.16,0,.19a1.16,1.16,0,0,1,0,.21c0,.1,0,.11-.06.12s-.16,0-.17,0a.64.64,0,0,1,0-.42A.56.56,0,0,1,173.86,228.81Z"/><path class="cls-39" d="M173.76,229c-.08.34,0,.46-.1.51s-.52-.1-.57-.14-.51-.3-.42-.64a.64.64,0,0,1,1.15,0C173.85,228.72,173.81,228.75,173.76,229Z"/><path class="cls-38" d="M171.83,227.47a.32.32,0,0,0,.25.08l.08,0a1.23,1.23,0,0,0,.2-.1c.09-.08,0-.27,0-.37a.44.44,0,0,1-.21.37A.45.45,0,0,1,171.83,227.47Z"/><path class="cls-39" d="M172.26,227.37a.66.66,0,0,1-.74.07c-.3-.14-.5-.48-.42-.6s.19-.06.48-.08h.26a.58.58,0,0,1,.44.22A.36.36,0,0,1,172.26,227.37Z"/><path class="cls-28" d="M166.26,226a.23.23,0,0,0,.21,0l.12-.07c.08,0,.11,0,.13-.06a.43.43,0,0,0,.05-.16.51.51,0,0,0,0-.1,1.25,1.25,0,0,0,0-.21.66.66,0,0,1-.1.28s0,.07-.19.16Z"/><path class="cls-29" d="M166.74,225.59a.5.5,0,0,1-.29.34.35.35,0,0,1-.28.08s-.08,0-.2-.14-.31-.29-.31-.36.17-.24.27-.31a.67.67,0,0,1,.31-.11.39.39,0,0,1,.42.12A.48.48,0,0,1,166.74,225.59Z"/><path class="cls-30" d="M166.73,225.34a.63.63,0,0,1,0,.25.4.4,0,0,1-.15.26c-.06.07-.07.05-.27.15a.2.2,0,0,1-.1,0l-.06,0Z"/><ellipse class="cls-32" cx="165.11" cy="234.22" rx="0.78" ry="1.24" transform="translate(-35.74 29.82) rotate(-9.32)"/><ellipse cx="165.21" cy="234.21" rx="0.69" ry="1.24" transform="translate(-35.73 29.83) rotate(-9.32)"/><ellipse class="cls-32" cx="171.49" cy="233.18" rx="0.78" ry="1.24" transform="translate(-35.48 30.84) rotate(-9.32)"/><ellipse cx="171.58" cy="233.16" rx="0.69" ry="1.24" transform="translate(-35.48 30.85) rotate(-9.32)"/><ellipse class="cls-34" cx="168.69" cy="235.83" rx="0.58" ry="0.19" transform="translate(-35.95 30.42) rotate(-9.32)"/><path class="cls-35" d="M169,236.47l-.23.05a1.39,1.39,0,0,1-1-.13l-.17-.13-.07-.26a.59.59,0,0,1,.11-.44,1.63,1.63,0,0,1,1.81-.3l.18.13.06.25h0l0,.22-.14.23A1.19,1.19,0,0,1,169,236.47Z"/></g></g></svg>