<svg id="Calque_1" data-name="Calque 1" xmlns="http://www.w3.org/2000/svg" xmlns:xlink="http://www.w3.org/1999/xlink" viewBox="0 0 345.43 263.6"><defs><style>.cls-1,.cls-15{fill:none;}.cls-2{clip-path:url(#clip-path);}.cls-3{fill:#f59f5d;}.cls-4{fill:#ec672c;}.cls-5{fill:#ad451c;}.cls-6{fill:#f0eded;}.cls-7{fill:#cfbfb7;}.cls-8{fill:#d83215;}.cls-9{fill:#fff;}.cls-10{fill:#ce5c2e;}.cls-11{fill:#bf4f2c;}.cls-12{fill:#9c3a19;}.cls-13{fill:#d3cfcd;}.cls-14{fill:#afa39d;}.cls-15{stroke:#1d1d1b;stroke-linecap:round;stroke-miterlimit:10;}.cls-16{fill:#010101;}</style><clipPath id="clip-path" transform="translate(-81.79 -278.21)"><rect class="cls-1" width="595.28" height="841.89"/></clipPath></defs><title>chouquette</title><g class="cls-2"><path d="M345.68,536.09h-5.14a129.68,129.68,0,0,0,.58-13.74c0-2.79-.21-6.14-.58-12.72-.56-10.07-.74-11.14-.75-14.6a107.54,107.54,0,0,1,.75-12.72h5.14a116.06,116.06,0,0,1,.65,13c0,3.73-.21,4.79-.65,13.88-.32,6.62-.48,10-.5,13.59,0,5.61.25,10.21.5,13.3" transform="translate(-81.79 -278.21)"/><path d="M348.84,537.68a3.72,3.72,0,0,1-1.49,3.51c-.74.51-1.14.32-4.45.48-2.69.13-3.13.29-3.85-.13a3.51,3.51,0,0,1-1.68-3c.11-2.26,3.13-3.79,5.47-4s5.55.83,6,3.1" transform="translate(-81.79 -278.21)"/><path d="M362.85,535.22h-5.14a129.82,129.82,0,0,0,.58-13.74c0-2.79-.21-6.14-.58-12.72-.56-10.07-.74-11.14-.74-14.6a105.55,105.55,0,0,1,.74-12.73h5.14a116.41,116.41,0,0,1,.65,13c0,3.72-.21,4.78-.65,13.87-.32,6.63-.48,10-.5,13.59,0,5.61.26,10.21.5,13.31" transform="translate(-81.79 -278.21)"/><path d="M366,536.81a3.72,3.72,0,0,1-1.49,3.51c-.73.51-1.14.32-4.45.48-2.69.12-3.13.29-3.85-.14a3.45,3.45,0,0,1-1.67-3c.1-2.25,3.13-3.78,5.46-4s5.55.83,6,3.1" transform="translate(-81.79 -278.21)"/><path d="M146.34,533.67H141.2a129.82,129.82,0,0,0,.58-13.74c0-2.79-.21-6.14-.58-12.72-.57-10.07-.74-11.14-.75-14.6a105.72,105.72,0,0,1,.75-12.73h5.14a116.87,116.87,0,0,1,.64,13c0,3.72-.2,4.78-.64,13.87-.32,6.63-.49,10-.5,13.59,0,5.61.25,10.21.5,13.31" transform="translate(-81.79 -278.21)"/><path d="M149.5,535.26a3.69,3.69,0,0,1-1.5,3.5c-.73.52-1.14.33-4.44.49-2.69.12-3.13.28-3.85-.14a3.48,3.48,0,0,1-1.68-3c.11-2.26,3.13-3.79,5.47-4s5.55.83,6,3.1" transform="translate(-81.79 -278.21)"/><path d="M163.51,532.79h-5.14a129.47,129.47,0,0,0,.58-13.73c0-2.8-.21-6.14-.58-12.72-.56-10.07-.74-11.14-.75-14.6a107.7,107.7,0,0,1,.75-12.73h5.14a116.06,116.06,0,0,1,.65,13c0,3.73-.21,4.79-.65,13.88-.32,6.62-.48,10-.5,13.59,0,5.61.25,10.21.5,13.3" transform="translate(-81.79 -278.21)"/><path d="M166.67,534.38a3.72,3.72,0,0,1-1.49,3.51c-.74.52-1.14.33-4.45.48-2.69.13-3.13.29-3.85-.13a3.49,3.49,0,0,1-1.68-3c.11-2.26,3.13-3.79,5.47-4s5.55.83,6,3.1" transform="translate(-81.79 -278.21)"/><path d="M250.24,481H245.1a129.47,129.47,0,0,0,.58-13.73c0-2.8-.21-6.14-.58-12.72-.56-10.07-.74-11.14-.75-14.6a107.7,107.7,0,0,1,.75-12.73h5.14a116.06,116.06,0,0,1,.65,13c0,3.73-.21,4.79-.65,13.88-.32,6.62-.48,10-.5,13.59,0,5.61.25,10.21.5,13.3" transform="translate(-81.79 -278.21)"/><path d="M253.4,482.55a3.7,3.7,0,0,1-1.5,3.5c-.73.52-1.13.33-4.44.48-2.69.13-3.13.29-3.85-.13a3.48,3.48,0,0,1-1.68-3c.11-2.26,3.13-3.79,5.47-4s5.55.82,6,3.1" transform="translate(-81.79 -278.21)"/><path d="M267.41,480.08h-5.14a129.61,129.61,0,0,0,.58-13.73c0-2.8-.21-6.15-.58-12.73-.56-10.06-.73-11.14-.74-14.6a105.28,105.28,0,0,1,.74-12.72h5.14a116.06,116.06,0,0,1,.65,13c0,3.73-.2,4.79-.65,13.88-.32,6.62-.48,10-.5,13.59,0,5.61.26,10.21.5,13.3" transform="translate(-81.79 -278.21)"/><path d="M270.57,481.67a3.72,3.72,0,0,1-1.49,3.51c-.73.52-1.14.32-4.45.48-2.69.13-3.13.29-3.85-.13a3.46,3.46,0,0,1-1.67-3c.1-2.26,3.13-3.79,5.46-4s5.55.83,6,3.1" transform="translate(-81.79 -278.21)"/></g><g class="cls-2"><path class="cls-3" d="M427.16,340.42c0,19.71-13.11,37.85-27.78,46.85-13.08,8-26.32,8.2-43.11,8.43-14.91.2-25.52.35-37-5.16-17.56-8.45-33.51-28.44-33.46-50.12.07-31.77,36.13-58.93,70.67-58.93,39,0,70.67,26.39,70.67,58.93" transform="translate(-81.79 -278.21)"/><path class="cls-4" d="M373.41,395.08a58,58,0,0,0,22.64-5.94c5.79-2.89,18.36-10.38,25.72-25.68,1.24-2.58,6.1-12.57,5.38-23.87-1.29-20.45-18.37-39-42.9-48.42,24.83,23.38,32,56.24,19.52,79.16-8.42,15.48-23.51,22.23-30.36,24.75" transform="translate(-81.79 -278.21)"/><path class="cls-5" d="M314.56,305.17c1.17.26,2.93.44,4.1-.56a7.55,7.55,0,0,0,.92-1.2c2.08-2.8,2.11-2.84,2.24-3.2.7-1.91-1.59-4.5-2.84-5.74a8.85,8.85,0,0,1-.65,7.59,8.21,8.21,0,0,1-3.77,3.11" transform="translate(-81.79 -278.21)"/><path class="cls-6" d="M319.83,299.48c-.8,4.26-6,6.69-10.12,6.69-5.33,0-10.5-4.1-10.12-6.69.17-1.09,2.24-2.31,6.38-4.74a20.14,20.14,0,0,1,3.74-1.94c1.61-.53,5.25-1.72,7.86.26a6.71,6.71,0,0,1,2.26,6.42" transform="translate(-81.79 -278.21)"/><path class="cls-7" d="M317.57,293.06a5.64,5.64,0,0,1,1.41,1.41,6.69,6.69,0,0,1,.8,5.24c-.94,4.1-5.53,5.59-5.78,5.67l3.57-12.32" transform="translate(-81.79 -278.21)"/><path class="cls-4" d="M285.82,340.42a53.55,53.55,0,0,1,3.37-18,55.35,55.35,0,0,1,13.52-20.3c12.55-12.57,33.71-21.43,53.78-20.6,30.36,1.25,58.79,24.69,70.67,58.93a18.68,18.68,0,0,1-9.08,5.19c-9.34,2-13.76-6-21.47-6.08-15.44-.23-20.68,31.37-36,31.45-7,0-13-6.54-17.88-11.89-9.73-10.67-8.22-18.85-14-20.42-9.21-2.52-17.47,17.08-29.06,15.61-6.77-.86-11.32-8.49-13.85-13.86" transform="translate(-81.79 -278.21)"/><path class="cls-8" d="M362,281.7a99.12,99.12,0,0,1,35.13,33.11,97.5,97.5,0,0,1,12.58,30,15.75,15.75,0,0,0,17.46-4.38,50,50,0,0,0-.9-9.43c-3.08-15.91-13.14-25.93-17-29.76C391.65,283.7,368.21,282,362,281.7" transform="translate(-81.79 -278.21)"/><path class="cls-9" d="M306.61,307.62a2.83,2.83,0,0,1,3,0,2.94,2.94,0,0,1,.65,3.9,46.23,46.23,0,0,0-11.5,16.05,2.69,2.69,0,0,1-3.28,1,2.76,2.76,0,0,1-.84-4,43.65,43.65,0,0,1,11.93-16.95" transform="translate(-81.79 -278.21)"/><path class="cls-5" d="M328.59,320.88c.19.53.43,1.23.67,2.06.31,1.07.48,1.88.54,2.17a14.91,14.91,0,0,1,.31,2.44c0,1.26-.16,1.5-.23,1.57-.44.49-1.28.07-1.37,0a10.37,10.37,0,0,1-.8-4.79,9.91,9.91,0,0,1,.88-3.47" transform="translate(-81.79 -278.21)"/><path class="cls-6" d="M328.12,322.78c0,4.2.91,5.31.18,6.22-1.32,1.65-4.19.3-4.68.07s-4.5-2.11-4.5-6.29c0-3,2-5.95,4.5-6.29A4.25,4.25,0,0,1,328,319c.4.94.11,1.38.12,3.83" transform="translate(-81.79 -278.21)"/><path class="cls-7" d="M327.57,318.18a4,4,0,0,1,.79,1.2c.68,1.59,0,2.78,0,5.32,0,2.7.74,3.57.18,4.44-.37.57-1.19,1-3,.57l2.07-11.53" transform="translate(-81.79 -278.21)"/><path class="cls-10" d="M365.19,370a43.44,43.44,0,0,0,8.11-7.19c1.3-1.48,1.62-2.17,7.83-11.48a40.46,40.46,0,0,1,4.21-5.71c2-2.13,4.15-4.46,7.67-5.49a13.2,13.2,0,0,1,5.19-.41,30.29,30.29,0,0,0-11.49,7.81c-3.89,4.33-4.28,7.53-7.66,12-2.35,3.1-6.43,7.2-13.86,10.47" transform="translate(-81.79 -278.21)"/><path class="cls-10" d="M303.68,354a28.81,28.81,0,0,0,6.91-3.87c.84-.64,2.18-1.94,4.84-4.51.76-.73,5.87-5.67,8.63-6.64a10.2,10.2,0,0,1,2.63-.51,9.5,9.5,0,0,1,1.21.05,49.42,49.42,0,0,0-6.38,4.29c-1.36,1.07-1.69,1.44-5,4.33-4.73,4.08-5.54,4.6-6.4,5.05a17.3,17.3,0,0,1-6.4,1.81" transform="translate(-81.79 -278.21)"/><path class="cls-11" d="M418.08,345.61a11.66,11.66,0,0,0,6-1,11.47,11.47,0,0,0,3.09-2.17c0-.66,0-1.33,0-2a16.18,16.18,0,0,1-3.1,2.72,16.42,16.42,0,0,1-6,2.47" transform="translate(-81.79 -278.21)"/><path class="cls-5" d="M351.05,288.78a4.7,4.7,0,0,0,3,0c.64-.23.67-.44,1.74-.87s1.53-.38,1.89-.83a3.27,3.27,0,0,0,.48-1.72,6.38,6.38,0,0,0,0-1.21,6.59,6.59,0,0,0-.53-2.24,5.41,5.41,0,0,1-1.1,3.14,8.89,8.89,0,0,1-2.6,2c-.83.51-1.81,1.1-2.93,1.73" transform="translate(-81.79 -278.21)"/><path class="cls-6" d="M357.63,283.59c-.33,2-2.24,3.1-3.94,4a6.5,6.5,0,0,1-4,1.13c-.75-.09-1.27-.33-3.05-1.41-3.24-2-4.87-3-4.92-3.75-.1-1.53,2.21-2.87,3.58-3.66a11.91,11.91,0,0,1,4.39-1.49c2-.27,4.6-.62,6.42,1.05a4.8,4.8,0,0,1,1.55,4.1" transform="translate(-81.79 -278.21)"/><path class="cls-7" d="M357.14,280.9a4.47,4.47,0,0,1,.49,2.7,5,5,0,0,1-1.95,3c-.83.72-1,.51-3.9,1.87a3.2,3.2,0,0,1-1.3.33,2.81,2.81,0,0,1-1-.13l7.65-7.82" transform="translate(-81.79 -278.21)"/><path class="cls-5" d="M374.78,338.58c1.17.26,2.93.44,4.1-.57.25-.2.25-.28.92-1.19,2.09-2.8,2.11-2.85,2.24-3.2.7-1.91-1.59-4.5-2.83-5.74a8.88,8.88,0,0,1-.65,7.59,8.27,8.27,0,0,1-3.78,3.11" transform="translate(-81.79 -278.21)"/><path class="cls-6" d="M380.06,332.89c-.81,4.26-6,6.69-10.12,6.69-5.34,0-10.51-4.1-10.12-6.69.16-1.09,2.23-2.31,6.38-4.74a19.83,19.83,0,0,1,3.74-1.94c1.6-.53,5.24-1.72,7.86.26a6.73,6.73,0,0,1,2.26,6.42" transform="translate(-81.79 -278.21)"/><path class="cls-7" d="M377.8,326.47a5.63,5.63,0,0,1,1.41,1.41,6.76,6.76,0,0,1,.8,5.23c-.95,4.1-5.53,5.6-5.79,5.67q1.8-6.15,3.58-12.31" transform="translate(-81.79 -278.21)"/><path class="cls-5" d="M379.52,308.22a2.33,2.33,0,0,0,2.55.2,6.27,6.27,0,0,0,.8-.8,15.87,15.87,0,0,0,2-2.19c.82-1.41,0-3.84-.46-5a9.51,9.51,0,0,1-2,5.93,5.53,5.53,0,0,1-2.9,1.88" transform="translate(-81.79 -278.21)"/><path class="cls-6" d="M383.86,304.53a6.49,6.49,0,0,1-7.42,3.71c-3.16-.84-5.34-4.92-4.56-6.92.33-.84,1.82-1.48,4.79-2.76a12,12,0,0,1,2.63-.95c1.06-.17,3.47-.54,4.59,1.45a6.73,6.73,0,0,1,0,5.47" transform="translate(-81.79 -278.21)"/><path class="cls-7" d="M383.89,299.06a4.13,4.13,0,0,1,.53,1.35,7.23,7.23,0,0,1-.64,4.29,6.34,6.34,0,0,1-4.63,3.59l4.74-9.23" transform="translate(-81.79 -278.21)"/><path class="cls-5" d="M349.33,311.43a3.48,3.48,0,0,0,2.37.6c.55-.07.62-.24,1.55-.41s1.29,0,1.67-.36a3,3,0,0,0,.72-1.38,6.6,6.6,0,0,0,.29-1,6.28,6.28,0,0,0,0-2,5.07,5.07,0,0,1-1.5,2.48A7.37,7.37,0,0,1,352,310.5c-.76.29-1.66.61-2.67.93" transform="translate(-81.79 -278.21)"/><path class="cls-6" d="M355.59,308.24c-.68,1.68-2.41,2.22-3.94,2.7a5,5,0,0,1-3.42.21c-.57-.22-.94-.52-2.13-1.78-2.17-2.3-3.25-3.46-3.14-4.13.23-1.33,2.33-2,3.58-2.46a9.37,9.37,0,0,1,3.78-.45c1.66.15,3.77.33,4.87,2.1a4.43,4.43,0,0,1,.4,3.81" transform="translate(-81.79 -278.21)"/><path class="cls-7" d="M355.75,305.84a4.22,4.22,0,0,1-.16,2.4,4.5,4.5,0,0,1-2.16,2.24c-.81.46-.91.25-3.47.87a2.62,2.62,0,0,1-1.11,0,2.15,2.15,0,0,1-.75-.3l7.65-5.25" transform="translate(-81.79 -278.21)"/><path class="cls-12" d="M420.3,325.67a18.3,18.3,0,0,1,.1,1.87,14.65,14.65,0,0,1-.09,1.87,8.37,8.37,0,0,1-.43,2c-.37,1-.66,1.05-.76,1.07-.64.15-1.46-.57-1.55-.65a5.91,5.91,0,0,1,2.73-6.14" transform="translate(-81.79 -278.21)"/><path class="cls-13" d="M419.18,326.87c-1.32,3.16-.69,4.41-1.79,4.74-2,.6-4.8-1.78-5.28-2.19s-4.38-3.74-3-6.87c1-2.24,4.17-3.48,7.06-2.55,2,.64,3.88,2.3,4.14,3.94.13.9-.33,1.09-1.09,2.93" transform="translate(-81.79 -278.21)"/><path class="cls-14" d="M420,323.16a3.3,3.3,0,0,1,.51,1.28c.25,1.51-.9,2.07-1.73,4s-.31,3-1.23,3.41c-.6.26-1.64.15-3.56-1l6-7.64" transform="translate(-81.79 -278.21)"/><path class="cls-12" d="M399.43,305.08a3.2,3.2,0,0,0,2.26,1.15,3.69,3.69,0,0,0,.84-.23,10.44,10.44,0,0,0,2.12-.69c.94-.64.57-2.6.32-3.6a4.45,4.45,0,0,1-2.66,3.25,5,5,0,0,1-2.88.12" transform="translate(-81.79 -278.21)"/><path class="cls-13" d="M403.86,304.29c-1.71,1.67-5.1,1-7.19-.41-2.72-1.82-4.08-5.46-3.09-6.51.42-.45,1.84-.29,4.7,0a13.43,13.43,0,0,1,2.5.4c1,.31,3.19,1,3.91,2.81a3.48,3.48,0,0,1-.83,3.7" transform="translate(-81.79 -278.21)"/><path class="cls-14" d="M404.69,300.59a3.2,3.2,0,0,1,.28,1.12,3.38,3.38,0,0,1-1.2,2.67c-1.74,1.55-4.53.66-4.68.61l5.6-4.4" transform="translate(-81.79 -278.21)"/><path class="cls-5" d="M323,294.71a2.41,2.41,0,0,0,1.93.5c.45-.1.52-.27,1.3-.48s1.06-.09,1.38-.42a3.43,3.43,0,0,0,.66-1.39,7.75,7.75,0,0,0,.28-1,7.11,7.11,0,0,0,.11-2,5.92,5.92,0,0,1-1.34,2.52,6.71,6.71,0,0,1-2.08,1.27c-.64.32-1.39.67-2.24,1" transform="translate(-81.79 -278.21)"/><path class="cls-6" d="M328.29,291.29c-.63,1.69-2.08,2.3-3.36,2.84a3.61,3.61,0,0,1-2.83.35c-.46-.19-.75-.48-1.68-1.68-1.7-2.18-2.54-3.29-2.42-3.95.24-1.33,2-2.12,3.05-2.59a6.73,6.73,0,0,1,3.14-.6c1.36.08,3.1.17,3.93,1.88a5.07,5.07,0,0,1,.17,3.75" transform="translate(-81.79 -278.21)"/><path class="cls-7" d="M328.52,288.9a5.06,5.06,0,0,1-.23,2.39,4.71,4.71,0,0,1-1.88,2.31c-.69.49-.76.28-2.89,1a1.71,1.71,0,0,1-.92.09,1.47,1.47,0,0,1-.6-.26l6.52-5.53" transform="translate(-81.79 -278.21)"/><path class="cls-10" d="M335.17,364c0,6.7-3.4,12.14-7.59,12.14S320,370.67,320,364s3.4-12.15,7.59-12.15,7.59,5.44,7.59,12.15" transform="translate(-81.79 -278.21)"/><path d="M335.17,364c0,6.7-3,12.14-6.69,12.14s-6.69-5.44-6.69-12.14,3-12.15,6.69-12.15,6.69,5.44,6.69,12.15" transform="translate(-81.79 -278.21)"/><path class="cls-10" d="M398.2,364c0,6.7-3.4,12.14-7.59,12.14S383,370.67,383,364s3.4-12.15,7.59-12.15,7.59,5.44,7.59,12.15" transform="translate(-81.79 -278.21)"/><path d="M398.2,364c0,6.7-3,12.14-6.69,12.14s-6.69-5.44-6.69-12.14,3-12.15,6.69-12.15,6.69,5.44,6.69,12.15" transform="translate(-81.79 -278.21)"/></g><g class="cls-2"><path class="cls-3" d="M327.11,374.26c0,19.71-13.1,37.85-27.78,46.85-13.08,8-26.31,8.2-43.1,8.43-14.92.21-25.53.35-37-5.16-17.57-8.45-33.51-28.44-33.47-50.12.08-31.77,36.14-58.93,70.67-58.93,39,0,70.67,26.39,70.67,58.93" transform="translate(-81.79 -278.21)"/><path class="cls-4" d="M273.36,428.92A57.91,57.91,0,0,0,296,423c5.8-2.89,18.36-10.38,25.72-25.68,1.24-2.58,6.1-12.57,5.39-23.87-1.3-20.45-18.37-39-42.9-48.42,24.82,23.38,32,56.24,19.51,79.16-8.42,15.48-23.5,22.23-30.36,24.75" transform="translate(-81.79 -278.21)"/><path class="cls-5" d="M214.51,339c1.17.26,2.93.44,4.1-.56a6.92,6.92,0,0,0,.92-1.2c2.09-2.8,2.11-2.84,2.24-3.2.7-1.91-1.59-4.5-2.83-5.74a8.88,8.88,0,0,1-.65,7.59,8.27,8.27,0,0,1-3.78,3.11" transform="translate(-81.79 -278.21)"/><path class="cls-6" d="M219.79,333.33c-.81,4.25-6,6.68-10.12,6.68-5.34,0-10.51-4.1-10.12-6.68.16-1.1,2.23-2.32,6.38-4.75a20.79,20.79,0,0,1,3.74-1.94c1.6-.53,5.24-1.72,7.86.26a6.75,6.75,0,0,1,2.26,6.43" transform="translate(-81.79 -278.21)"/><path class="cls-7" d="M217.53,326.9a5.64,5.64,0,0,1,1.41,1.41,6.78,6.78,0,0,1,.8,5.24c-1,4.1-5.53,5.59-5.79,5.67q1.8-6.17,3.58-12.32" transform="translate(-81.79 -278.21)"/><path class="cls-4" d="M185.77,374.26a53.9,53.9,0,0,1,3.38-18,55.24,55.24,0,0,1,13.51-20.3c12.55-12.57,33.72-21.43,53.78-20.6,30.36,1.25,58.8,24.69,70.67,58.93a18.69,18.69,0,0,1-9.07,5.19c-9.35,2-13.76-6-21.47-6.08-15.44-.23-20.68,31.37-36,31.45-7,0-13-6.54-17.88-11.89-9.74-10.67-8.23-18.85-14-20.42-9.21-2.51-17.47,17.08-29.06,15.61-6.78-.86-11.32-8.49-13.86-13.86" transform="translate(-81.79 -278.21)"/><path class="cls-8" d="M262,315.54a99.2,99.2,0,0,1,35.12,33.11,97.56,97.56,0,0,1,12.59,30,15.73,15.73,0,0,0,17.45-4.38,50,50,0,0,0-.9-9.43c-3.07-15.91-13.14-25.93-17-29.76-17.62-17.53-41.06-19.25-47.27-19.53" transform="translate(-81.79 -278.21)"/><path class="cls-9" d="M206.57,341.46a2.81,2.81,0,0,1,3,0,2.92,2.92,0,0,1,.65,3.9,46,46,0,0,0-11.49,16.05,2.71,2.71,0,0,1-3.29,1,2.76,2.76,0,0,1-.83-4,44.1,44.1,0,0,1,5.35-9.76,43.4,43.4,0,0,1,6.58-7.19" transform="translate(-81.79 -278.21)"/><path class="cls-5" d="M234.75,348.71c.24.52.53,1.22.82,2.06a21.73,21.73,0,0,1,.65,2.16,11.65,11.65,0,0,1,.38,2.44c.05,1.26-.19,1.5-.27,1.58-.54.48-1.57.06-1.68,0a8.76,8.76,0,0,1-1-4.78,8.52,8.52,0,0,1,1.08-3.47" transform="translate(-81.79 -278.21)"/><path class="cls-6" d="M234.18,350.6c0,4.21,1.1,5.31.22,6.22-1.62,1.65-5.11.3-5.71.07s-5.5-2.1-5.5-6.29a6.54,6.54,0,0,1,5.5-6.29c2.05-.23,4.47.72,5.35,2.46.47,1,.12,1.38.14,3.83" transform="translate(-81.79 -278.21)"/><path class="cls-7" d="M233.51,346a4.15,4.15,0,0,1,1,1.2c.83,1.59,0,2.78,0,5.32,0,2.7.91,3.57.22,4.44-.45.58-1.45,1-3.67.57q1.26-5.76,2.53-11.53" transform="translate(-81.79 -278.21)"/><path class="cls-10" d="M265.15,403.79a43.76,43.76,0,0,0,8.11-7.19c1.29-1.47,1.61-2.17,7.82-11.48a41.91,41.91,0,0,1,4.21-5.71c2-2.13,4.15-4.46,7.67-5.48a13,13,0,0,1,5.19-.42,30.21,30.21,0,0,0-11.49,7.82c-3.88,4.32-4.28,7.53-7.66,12-2.34,3.09-6.42,7.19-13.85,10.46" transform="translate(-81.79 -278.21)"/><path class="cls-10" d="M203.63,387.82a28.62,28.62,0,0,0,6.91-3.87c.84-.64,2.19-1.94,4.85-4.5.76-.74,5.87-5.68,8.63-6.65a9.9,9.9,0,0,1,2.62-.5,8.35,8.35,0,0,1,1.22,0,49.09,49.09,0,0,0-6.38,4.29c-1.37,1.07-1.7,1.44-5,4.33-4.73,4.09-5.53,4.6-6.39,5.05a17.17,17.17,0,0,1-6.41,1.81" transform="translate(-81.79 -278.21)"/><path class="cls-11" d="M318,379.45a11.61,11.61,0,0,0,6-1,11.31,11.31,0,0,0,3.09-2.17c0-.66,0-1.33,0-2A16.08,16.08,0,0,1,324,377a16.42,16.42,0,0,1-6,2.47" transform="translate(-81.79 -278.21)"/><path class="cls-5" d="M233.49,327.32a4.7,4.7,0,0,0,3,0c.64-.22.67-.43,1.74-.87s1.53-.38,1.89-.83a3.23,3.23,0,0,0,.48-1.71,6.48,6.48,0,0,0,.05-1.22,6.59,6.59,0,0,0-.53-2.24,5.48,5.48,0,0,1-1.1,3.15,9,9,0,0,1-2.6,1.95c-.83.52-1.81,1.1-2.93,1.73" transform="translate(-81.79 -278.21)"/><path class="cls-6" d="M240.07,322.14c-.33,2-2.24,3.09-3.94,4a6.56,6.56,0,0,1-4,1.12c-.75-.09-1.27-.33-3-1.41-3.24-2-4.86-3-4.92-3.74-.1-1.54,2.21-2.88,3.58-3.67A12,12,0,0,1,232.1,317c2-.28,4.6-.63,6.42,1.05a4.77,4.77,0,0,1,1.55,4.1" transform="translate(-81.79 -278.21)"/><path class="cls-7" d="M239.58,319.44a4.47,4.47,0,0,1,.49,2.7,5,5,0,0,1-1.95,3.05c-.83.72-1,.51-3.9,1.87a3.16,3.16,0,0,1-1.3.34,3.07,3.07,0,0,1-1-.14l7.65-7.82" transform="translate(-81.79 -278.21)"/><path class="cls-5" d="M274.73,372.42c1.18.26,2.93.44,4.11-.56a8.3,8.3,0,0,0,.92-1.2c2.08-2.8,2.11-2.84,2.24-3.2.7-1.91-1.6-4.5-2.84-5.74a8.84,8.84,0,0,1-.65,7.59,8.22,8.22,0,0,1-3.78,3.11" transform="translate(-81.79 -278.21)"/><path class="cls-6" d="M280,366.73c-.8,4.26-6,6.69-10.12,6.69-5.34,0-10.5-4.1-10.12-6.69.16-1.09,2.24-2.31,6.38-4.74a20.14,20.14,0,0,1,3.74-1.94c1.61-.53,5.25-1.72,7.86.26a6.71,6.71,0,0,1,2.26,6.42" transform="translate(-81.79 -278.21)"/><path class="cls-7" d="M277.75,360.31a5.64,5.64,0,0,1,1.41,1.41A6.69,6.69,0,0,1,280,367c-.95,4.1-5.53,5.59-5.78,5.67l3.57-12.32" transform="translate(-81.79 -278.21)"/><path class="cls-5" d="M279.48,342.06a2.31,2.31,0,0,0,2.54.2,5.55,5.55,0,0,0,.8-.8c1.84-1.9,1.86-1.93,2-2.19.83-1.41,0-3.84-.45-5a9.65,9.65,0,0,1-2,5.93,5.6,5.6,0,0,1-2.9,1.88" transform="translate(-81.79 -278.21)"/><path class="cls-6" d="M283.81,338.38a6.5,6.5,0,0,1-7.41,3.71c-3.16-.85-5.35-4.93-4.57-6.93.34-.84,1.82-1.48,4.79-2.76a12,12,0,0,1,2.63-.95c1.06-.16,3.47-.53,4.6,1.46a6.73,6.73,0,0,1,0,5.47" transform="translate(-81.79 -278.21)"/><path class="cls-7" d="M283.85,332.91a4.19,4.19,0,0,1,.53,1.34,7.23,7.23,0,0,1-.64,4.29,6.35,6.35,0,0,1-4.64,3.59l4.75-9.22" transform="translate(-81.79 -278.21)"/><path class="cls-5" d="M256.28,337.16a3.54,3.54,0,0,0,2.37.6c.55-.07.62-.24,1.55-.42s1.29,0,1.67-.35a3,3,0,0,0,.72-1.38,6,6,0,0,0,.32-3.05,5.11,5.11,0,0,1-1.5,2.49,7.47,7.47,0,0,1-2.46,1.18c-.76.29-1.66.61-2.67.93" transform="translate(-81.79 -278.21)"/><path class="cls-6" d="M262.54,334c-.67,1.68-2.4,2.23-3.94,2.71a5,5,0,0,1-3.41.2c-.58-.21-.95-.51-2.14-1.78-2.17-2.29-3.25-3.45-3.13-4.12.22-1.33,2.33-2,3.57-2.47a9.42,9.42,0,0,1,3.78-.44c1.66.15,3.78.33,4.87,2.1a4.37,4.37,0,0,1,.4,3.8" transform="translate(-81.79 -278.21)"/><path class="cls-7" d="M262.7,331.56a4.22,4.22,0,0,1-.16,2.4,4.45,4.45,0,0,1-2.16,2.25c-.81.46-.91.25-3.47.87a2.59,2.59,0,0,1-1.1,0,2.27,2.27,0,0,1-.75-.3Z" transform="translate(-81.79 -278.21)"/><path class="cls-12" d="M320.26,359.51a18.3,18.3,0,0,1,.1,1.87,16.42,16.42,0,0,1-.1,1.88,7.45,7.45,0,0,1-.43,2c-.36,1-.65,1-.75,1.07-.65.15-1.47-.57-1.55-.65a6,6,0,0,1,.63-4,6.09,6.09,0,0,1,2.1-2.18" transform="translate(-81.79 -278.21)"/><path class="cls-13" d="M319.13,360.71c-1.32,3.16-.68,4.41-1.79,4.74-2,.6-4.8-1.78-5.27-2.19s-4.38-3.74-3-6.87c1-2.24,4.16-3.48,7.06-2.55,2,.64,3.88,2.3,4.13,3.94.14.9-.32,1.09-1.09,2.93" transform="translate(-81.79 -278.21)"/><path class="cls-14" d="M320,357a3.47,3.47,0,0,1,.5,1.28c.25,1.51-.9,2.07-1.73,4s-.31,3-1.22,3.41c-.6.26-1.64.15-3.56-1l6-7.64" transform="translate(-81.79 -278.21)"/><path class="cls-12" d="M299.39,338.93a3.19,3.19,0,0,0,2.26,1.14,3.69,3.69,0,0,0,.83-.23,9.25,9.25,0,0,0,2.12-.69c.95-.64.58-2.6.33-3.6a4.45,4.45,0,0,1-2.67,3.25,5,5,0,0,1-2.87.13" transform="translate(-81.79 -278.21)"/><path class="cls-13" d="M303.82,338.14c-1.72,1.66-5.11,1-7.2-.42-2.71-1.82-4.08-5.46-3.09-6.51.42-.45,1.85-.29,4.7,0a13.43,13.43,0,0,1,2.5.4c1,.31,3.19,1,3.92,2.81a3.52,3.52,0,0,1-.83,3.71" transform="translate(-81.79 -278.21)"/><path class="cls-14" d="M304.65,334.43a3.43,3.43,0,0,1,.28,1.12,3.39,3.39,0,0,1-1.21,2.67c-1.74,1.55-4.53.66-4.68.61l5.61-4.4" transform="translate(-81.79 -278.21)"/><path class="cls-5" d="M251.55,320.69a2.4,2.4,0,0,0,1.93.49c.46-.1.52-.27,1.3-.48s1.07-.09,1.39-.42a3.57,3.57,0,0,0,.66-1.39,8.84,8.84,0,0,0,.27-1,7.09,7.09,0,0,0,.11-2,5.71,5.71,0,0,1-1.34,2.52,6.45,6.45,0,0,1-2.07,1.27c-.65.32-1.4.67-2.25,1" transform="translate(-81.79 -278.21)"/><path class="cls-6" d="M256.85,317.26c-.63,1.69-2.08,2.3-3.36,2.85a3.65,3.65,0,0,1-2.83.34c-.46-.19-.75-.47-1.68-1.68-1.69-2.18-2.54-3.28-2.42-3.95.25-1.33,2-2.12,3.06-2.59a6.81,6.81,0,0,1,3.13-.6c1.36.08,3.1.17,3.93,1.88a5,5,0,0,1,.17,3.75" transform="translate(-81.79 -278.21)"/><path class="cls-7" d="M257.08,314.88a5,5,0,0,1-.23,2.38,4.71,4.71,0,0,1-1.88,2.31c-.68.49-.75.29-2.89,1a1.77,1.77,0,0,1-.91.09,1.67,1.67,0,0,1-.61-.27l6.52-5.52" transform="translate(-81.79 -278.21)"/><path class="cls-10" d="M235.13,397.81c0,6.71-3.4,12.14-7.59,12.14S220,404.52,220,397.81s3.4-12.15,7.59-12.15,7.59,5.44,7.59,12.15" transform="translate(-81.79 -278.21)"/><path d="M235.13,397.81c0,6.71-3,12.14-6.69,12.14s-6.69-5.43-6.69-12.14,3-12.15,6.69-12.15,6.69,5.44,6.69,12.15" transform="translate(-81.79 -278.21)"/><path class="cls-10" d="M298.15,397.81c0,6.71-3.4,12.14-7.59,12.14S283,404.52,283,397.81s3.4-12.15,7.59-12.15,7.59,5.44,7.59,12.15" transform="translate(-81.79 -278.21)"/><path d="M298.15,397.81c0,6.71-3,12.14-6.69,12.14s-6.69-5.43-6.69-12.14,3-12.15,6.69-12.15,6.69,5.44,6.69,12.15" transform="translate(-81.79 -278.21)"/></g><g class="cls-2"><path class="cls-3" d="M425.56,438.7c-2,19.59-17,36.28-32.49,43.71-13.84,6.62-27,5.43-43.74,3.92-14.86-1.34-25.43-2.3-36.26-9-16.59-10.22-30.38-31.76-28.09-53.31,3.36-31.59,42-54.87,76.4-51.29,38.82,4,67.55,33.56,64.18,65.94" transform="translate(-81.79 -278.21)"/><path class="cls-4" d="M366.44,487.49a58.08,58.08,0,0,0,23.13-3.56,56.58,56.58,0,0,0,28.24-22.88c1.5-2.44,7.37-11.87,7.83-23.19.83-20.47-14.23-40.69-37.66-52.6,22.28,25.83,26,59.25,11.22,80.76-10,14.52-25.69,19.67-32.76,21.47" transform="translate(-81.79 -278.21)"/><path class="cls-5" d="M317.21,392c1.15.38,2.87.74,4.14-.14.27-.18.28-.26,1-1.09,2.37-2.58,2.39-2.62,2.56-2.95.9-1.84-1.12-4.65-2.22-6a8.9,8.9,0,0,1-1.44,7.48,8.18,8.18,0,0,1-4.08,2.71" transform="translate(-81.79 -278.21)"/><path class="cls-6" d="M323.05,386.86c-1.24,4.14-6.66,6-10.76,5.6-5.3-.56-10-5.17-9.37-7.7.28-1.07,2.46-2.07,6.84-4.06a20.52,20.52,0,0,1,3.92-1.54c1.65-.36,5.39-1.17,7.79,1.07a6.72,6.72,0,0,1,1.58,6.63" transform="translate(-81.79 -278.21)"/><path class="cls-7" d="M321.47,380.23a5.61,5.61,0,0,1,1.26,1.55,6.7,6.7,0,0,1,.25,5.29c-1.37,4-6.08,5-6.34,5Z" transform="translate(-81.79 -278.21)"/><path class="cls-4" d="M285,424.05a53.83,53.83,0,0,1,5.22-17.59,55.46,55.46,0,0,1,15.55-18.79c13.79-11.2,35.75-17.82,55.63-14.91,30.06,4.39,55.92,30.65,64.18,65.94a18.81,18.81,0,0,1-9.57,4.21c-9.5,1-13.06-7.35-20.72-8.27-15.33-1.83-23.82,29.06-39.07,27.55-7-.69-12.25-7.85-16.55-13.67-8.57-11.63-6.23-19.61-11.81-21.77-8.9-3.45-19.14,15.18-30.52,12.52-6.65-1.56-10.37-9.62-12.34-15.22" transform="translate(-81.79 -278.21)"/><path class="cls-8" d="M366.83,373.54a99,99,0,0,1,31.5,36.57,97.6,97.6,0,0,1,9.41,31.13,15.77,15.77,0,0,0,17.82-2.54,49.79,49.79,0,0,0,.08-9.48c-1.41-16.15-10.38-27.15-13.81-31.36-15.71-19.26-38.85-23.41-45-24.32" transform="translate(-81.79 -278.21)"/><path class="cls-9" d="M309.06,393.58a2.84,2.84,0,0,1,3,.31,2.93,2.93,0,0,1,.24,3.95,46.55,46.55,0,0,0-7.18,6.49,46.07,46.07,0,0,0-5.91,8.28,2.7,2.7,0,0,1-3.38.63,2.76,2.76,0,0,1-.41-4,43.64,43.64,0,0,1,13.62-15.62" transform="translate(-81.79 -278.21)"/><path class="cls-5" d="M325.3,411.38c.18.55.4,1.28.61,2.14.26,1.1.38,1.93.42,2.22a11.16,11.16,0,0,1,.12,2.47c-.08,1.26-.34,1.47-.43,1.54-.59.42-1.57-.1-1.67-.16a8.58,8.58,0,0,1,.95-8.21" transform="translate(-81.79 -278.21)"/><path class="cls-6" d="M324.54,413.21c-.4,4.19.55,5.4-.43,6.21-1.78,1.47-5.11-.23-5.69-.52s-5.24-2.66-4.81-6.83a6.53,6.53,0,0,1,6.12-5.68c2.06,0,4.37,1.18,5.06,3,.38,1,0,1.38-.25,3.82" transform="translate(-81.79 -278.21)"/><path class="cls-7" d="M324.34,408.57a4,4,0,0,1,.84,1.29c.65,1.67-.3,2.76-.59,5.28-.3,2.69.53,3.65-.24,4.45-.51.52-1.55.8-3.72.19Z" transform="translate(-81.79 -278.21)"/><path class="cls-10" d="M360.87,461.65a44.14,44.14,0,0,0,8.81-6.32c1.44-1.33,1.83-2,9-10.6a40.57,40.57,0,0,1,4.78-5.25c2.17-1.92,4.59-4,8.2-4.66a13.09,13.09,0,0,1,5.2.13,30.19,30.19,0,0,0-12.24,6.58c-4.31,3.9-5,7-8.86,11.14-2.65,2.83-7.13,6.49-14.86,9" transform="translate(-81.79 -278.21)"/><path class="cls-10" d="M301.34,439.38a28.66,28.66,0,0,0,7.27-3.13c.9-.55,2.38-1.7,5.29-4,.83-.65,6.42-5,9.27-5.71a10.06,10.06,0,0,1,2.66-.23,7.23,7.23,0,0,1,1.2.17,50.18,50.18,0,0,0-6.79,3.6c-1.46.93-1.83,1.26-5.46,3.79-5.13,3.57-6,4-6.88,4.35a17,17,0,0,1-6.56,1.14" transform="translate(-81.79 -278.21)"/><path class="cls-11" d="M416,442.91a11.55,11.55,0,0,0,6-.41,11.21,11.21,0,0,0,3.3-1.83c.08-.66.15-1.32.23-2a16.55,16.55,0,0,1-3.36,2.38,16.29,16.29,0,0,1-6.21,1.83" transform="translate(-81.79 -278.21)"/><path class="cls-5" d="M333.57,383.71a4.69,4.69,0,0,0,3,.35c.66-.16.71-.36,1.82-.68s1.56-.22,2-.63a3.26,3.26,0,0,0,.65-1.66,7.77,7.77,0,0,0,.18-1.2,6.74,6.74,0,0,0-.3-2.28,5.52,5.52,0,0,1-1.41,3,9,9,0,0,1-2.79,1.67c-.89.43-1.92.91-3.1,1.42" transform="translate(-81.79 -278.21)"/><path class="cls-6" d="M340.65,379.24c-.54,2-2.55,2.84-4.33,3.6a6.56,6.56,0,0,1-4.13.7c-.73-.17-1.23-.46-2.89-1.72-3-2.3-4.53-3.46-4.5-4.23.05-1.54,2.49-2.63,3.94-3.28a12,12,0,0,1,4.52-1c2-.06,4.64-.14,6.27,1.71a4.76,4.76,0,0,1,1.12,4.24" transform="translate(-81.79 -278.21)"/><path class="cls-7" d="M340.44,376.5a4.41,4.41,0,0,1,.21,2.74,5,5,0,0,1-2.25,2.83c-.91.64-1.06.41-4.07,1.46a3.52,3.52,0,0,1-1.34.2,3,3,0,0,1-1-.24l8.41-7" transform="translate(-81.79 -278.21)"/><path class="cls-5" d="M365.05,436.3c1.15.38,2.87.74,4.14-.14.27-.18.28-.26,1-1.09,2.37-2.57,2.39-2.61,2.56-2.95.9-1.84-1.12-4.65-2.22-6a8.9,8.9,0,0,1-1.44,7.48,8.18,8.18,0,0,1-4.08,2.71" transform="translate(-81.79 -278.21)"/><path class="cls-6" d="M370.89,431.19c-1.24,4.14-6.66,6-10.76,5.6-5.3-.55-10-5.17-9.37-7.7C351,428,353.22,427,357.6,425a20.52,20.52,0,0,1,3.92-1.54c1.65-.36,5.39-1.17,7.79,1.07a6.72,6.72,0,0,1,1.58,6.63" transform="translate(-81.79 -278.21)"/><path class="cls-7" d="M369.31,424.56a5.61,5.61,0,0,1,1.26,1.55,6.7,6.7,0,0,1,.25,5.29c-1.37,4-6.08,5-6.34,5l4.83-11.88" transform="translate(-81.79 -278.21)"/><path class="cls-5" d="M354.15,414.66a2.33,2.33,0,0,0,2.51.46,6.56,6.56,0,0,0,.88-.71,14.79,14.79,0,0,0,2.22-2c1-1.32.42-3.82.07-5a9.55,9.55,0,0,1-2.61,5.69,5.61,5.61,0,0,1-3.07,1.57" transform="translate(-81.79 -278.21)"/><path class="cls-6" d="M358.84,411.44a6.49,6.49,0,0,1-7.76,2.92c-3.05-1.17-4.8-5.45-3.82-7.36.42-.8,2-1.29,5.05-2.25a11.85,11.85,0,0,1,2.71-.67c1.07-.05,3.51-.17,4.42,1.92a6.73,6.73,0,0,1-.6,5.44" transform="translate(-81.79 -278.21)"/><path class="cls-7" d="M359.44,406a4.18,4.18,0,0,1,.39,1.4,7.28,7.28,0,0,1-1.08,4.2,6.35,6.35,0,0,1-5,3.09Z" transform="translate(-81.79 -278.21)"/><path class="cls-5" d="M372.72,393.69a3.55,3.55,0,0,0,2.3.84c.55,0,.64-.18,1.59-.25s1.28.09,1.69-.18a3.11,3.11,0,0,0,.87-1.3,6.52,6.52,0,0,0,.39-1,6.3,6.3,0,0,0,.24-2,5.11,5.11,0,0,1-1.76,2.32,7.25,7.25,0,0,1-2.56.92c-.79.21-1.72.43-2.76.65" transform="translate(-81.79 -278.21)"/><path class="cls-6" d="M379.29,391.16c-.85,1.6-2.63,2-4.2,2.28a5,5,0,0,1-3.42-.15c-.55-.27-.89-.61-1.94-2-1.92-2.51-2.87-3.78-2.69-4.43.36-1.3,2.53-1.79,3.81-2.08a9.4,9.4,0,0,1,3.81-.05c1.63.32,3.72.72,4.62,2.59a4.42,4.42,0,0,1,0,3.83" transform="translate(-81.79 -278.21)"/><path class="cls-7" d="M379.69,388.78a4.22,4.22,0,0,1-.4,2.38,4.56,4.56,0,0,1-2.39,2c-.85.37-.92.15-3.54.5a2.6,2.6,0,0,1-1.1-.07,2.15,2.15,0,0,1-.72-.38l8.15-4.44" transform="translate(-81.79 -278.21)"/><path class="cls-12" d="M420.27,423.31a19.56,19.56,0,0,1-.38,3.73,7.48,7.48,0,0,1-.64,1.92c-.46.91-.76,1-.86,1-.66.09-1.4-.72-1.47-.8a6,6,0,0,1,1-3.88,6.17,6.17,0,0,1,2.31-1.95" transform="translate(-81.79 -278.21)"/><path class="cls-13" d="M419,424.39c-1.63,3-1.13,4.31-2.27,4.52-2.06.39-4.58-2.26-5-2.72s-4-4.17-2.31-7.14c1.19-2.14,4.51-3,7.29-1.81,1.89.83,3.62,2.68,3.7,4.35,0,.91-.43,1-1.39,2.8" transform="translate(-81.79 -278.21)"/><path class="cls-14" d="M420.25,420.79a3.48,3.48,0,0,1,.37,1.32c.09,1.53-1.11,2-2.13,3.76s-.63,3-1.57,3.27c-.62.19-1.65,0-3.44-1.38l6.77-7" transform="translate(-81.79 -278.21)"/><path class="cls-12" d="M404.63,405.52a3.24,3.24,0,0,0,2.13,1.38,5.4,5.4,0,0,0,.85-.15,8.56,8.56,0,0,0,2.18-.47c1-.53.84-2.53.7-3.54a4.45,4.45,0,0,1-3,2.95,5,5,0,0,1-2.87-.17" transform="translate(-81.79 -278.21)"/><path class="cls-13" d="M408.94,405.62c-1.88,1.48-5.18.46-7.12-1.16-2.51-2.1-3.49-5.86-2.39-6.8.46-.4,1.86-.1,4.67.5a13.2,13.2,0,0,1,2.44.66c.95.4,3.08,1.33,3.61,3.19a3.51,3.51,0,0,1-1.21,3.61" transform="translate(-81.79 -278.21)"/><path class="cls-14" d="M410.1,401.89a3.31,3.31,0,0,1,.16,1.15,3.37,3.37,0,0,1-1.47,2.53c-1.89,1.36-4.57.19-4.72.12l6-3.8" transform="translate(-81.79 -278.21)"/><path class="cls-5" d="M356,377.58a2.41,2.41,0,0,0,1.87.69c.46,0,.54-.21,1.33-.34s1.07,0,1.43-.28a3.45,3.45,0,0,0,.8-1.32,7.23,7.23,0,0,0,.38-1,7.5,7.5,0,0,0,.32-2,5.89,5.89,0,0,1-1.6,2.37,6.66,6.66,0,0,1-2.2,1c-.67.25-1.45.52-2.33.8" transform="translate(-81.79 -278.21)"/><path class="cls-6" d="M361.58,374.72c-.8,1.62-2.3,2.07-3.64,2.48a3.58,3.58,0,0,1-2.84.05c-.45-.24-.71-.55-1.51-1.84-1.45-2.35-2.18-3.53-2-4.18.38-1.3,2.22-1.9,3.31-2.26a6.78,6.78,0,0,1,3.18-.27c1.35.21,3.06.49,3.71,2.27a5,5,0,0,1-.22,3.75" transform="translate(-81.79 -278.21)"/><path class="cls-7" d="M362.06,372.37a5.09,5.09,0,0,1-.48,2.35,4.62,4.62,0,0,1-2.11,2.1c-.73.42-.78.21-3,.7a1.73,1.73,0,0,1-.92,0,1.82,1.82,0,0,1-.57-.33Z" transform="translate(-81.79 -278.21)"/><path class="cls-10" d="M331.63,452.58c-.7,6.67-4.64,11.73-8.81,11.29s-7-6.19-6.29-12.86,4.64-11.73,8.81-11.29,7,6.19,6.29,12.86" transform="translate(-81.79 -278.21)"/><path d="M331.63,452.58c-.7,6.67-4.24,11.77-7.92,11.39s-6.08-6.1-5.39-12.78,4.24-11.76,7.91-11.38,6.09,6.1,5.4,12.77" transform="translate(-81.79 -278.21)"/><path class="cls-10" d="M394.31,459.11c-.69,6.67-4.64,11.73-8.8,11.29s-7-6.19-6.29-12.86,4.63-11.73,8.8-11.29,7,6.19,6.29,12.86" transform="translate(-81.79 -278.21)"/><path d="M394.31,459.11c-.69,6.67-4.23,11.77-7.91,11.39s-6.09-6.1-5.39-12.78,4.23-11.76,7.91-11.38,6.09,6.1,5.39,12.77" transform="translate(-81.79 -278.21)"/></g><g class="cls-2"><path class="cls-3" d="M223.13,427c0,19.7-13.11,37.84-27.78,46.84-13.08,8-26.32,8.21-43.11,8.43-14.91.21-25.52.35-37-5.16C97.69,468.63,81.74,448.63,81.79,427c.07-31.77,36.13-58.94,70.67-58.94,39,0,70.67,26.39,70.67,58.94" transform="translate(-81.79 -278.21)"/><path class="cls-4" d="M169.38,481.62A58,58,0,0,0,192,475.67,56.51,56.51,0,0,0,217.74,450c1.24-2.58,6.1-12.57,5.38-23.87-1.29-20.45-18.37-39-42.9-48.42,24.83,23.38,32,56.24,19.52,79.16-8.42,15.48-23.51,22.23-30.36,24.76" transform="translate(-81.79 -278.21)"/><path class="cls-5" d="M110.53,391.71c1.17.25,2.93.43,4.1-.57a7.18,7.18,0,0,0,.92-1.19c2.08-2.81,2.11-2.85,2.24-3.2.7-1.92-1.59-4.51-2.84-5.75a8.85,8.85,0,0,1-.65,7.59,8.18,8.18,0,0,1-3.77,3.12" transform="translate(-81.79 -278.21)"/><path class="cls-6" d="M115.8,386c-.8,4.25-6,6.68-10.12,6.68-5.33,0-10.5-4.1-10.12-6.68.17-1.1,2.24-2.31,6.38-4.75a20.79,20.79,0,0,1,3.74-1.94c1.61-.53,5.25-1.72,7.86.26A6.73,6.73,0,0,1,115.8,386" transform="translate(-81.79 -278.21)"/><path class="cls-7" d="M113.54,379.59A5.64,5.64,0,0,1,115,381a6.69,6.69,0,0,1,.8,5.24c-.94,4.1-5.53,5.59-5.78,5.67l3.57-12.32" transform="translate(-81.79 -278.21)"/><path class="cls-4" d="M81.79,427a53.85,53.85,0,0,1,3.37-18,55.35,55.35,0,0,1,13.52-20.3c12.55-12.57,33.71-21.42,53.78-20.6,30.36,1.26,58.79,24.69,70.67,58.94a18.75,18.75,0,0,1-9.08,5.18c-9.34,2-13.75-6-21.47-6.07-15.44-.24-20.68,31.36-36,31.44-7,0-13-6.53-17.88-11.88-9.73-10.68-8.22-18.86-14-20.43-9.21-2.51-17.47,17.08-29.06,15.61C88.87,440,84.32,432.33,81.79,427" transform="translate(-81.79 -278.21)"/><path class="cls-8" d="M158,368.23a99.21,99.21,0,0,1,35.13,33.11,97.85,97.85,0,0,1,12.58,30A15.72,15.72,0,0,0,223.13,427a50.06,50.06,0,0,0-.9-9.44c-3.08-15.91-13.14-25.92-17-29.75-17.62-17.53-41.06-19.26-47.28-19.54" transform="translate(-81.79 -278.21)"/><path class="cls-9" d="M102.58,394.15a2.85,2.85,0,0,1,3,0,3,3,0,0,1,.65,3.91,45,45,0,0,0-6.47,7.19,46,46,0,0,0-5,8.85,2.69,2.69,0,0,1-3.28,1,2.75,2.75,0,0,1-.84-4,43.79,43.79,0,0,1,11.93-17" transform="translate(-81.79 -278.21)"/><path class="cls-5" d="M130.76,401.4c.24.53.54,1.22.83,2.06.37,1.07.58,1.87.65,2.17a11.47,11.47,0,0,1,.38,2.44c0,1.26-.19,1.5-.27,1.57-.54.48-1.58.06-1.68,0a8.6,8.6,0,0,1,.09-8.26" transform="translate(-81.79 -278.21)"/><path class="cls-6" d="M130.2,403.29c0,4.21,1.1,5.32.21,6.22-1.61,1.65-5.11.31-5.71.07s-5.49-2.1-5.49-6.29A6.52,6.52,0,0,1,124.7,397c2.06-.24,4.47.71,5.35,2.45.48,1,.13,1.38.15,3.83" transform="translate(-81.79 -278.21)"/><path class="cls-7" d="M129.52,398.7a3.89,3.89,0,0,1,1,1.2c.82,1.59,0,2.77,0,5.31,0,2.7.9,3.57.22,4.45-.46.57-1.46.95-3.68.57q1.28-5.78,2.53-11.53" transform="translate(-81.79 -278.21)"/><path class="cls-10" d="M161.16,456.49a43.82,43.82,0,0,0,8.11-7.19c1.3-1.48,1.62-2.18,7.83-11.48a41.65,41.65,0,0,1,4.2-5.72c2-2.13,4.16-4.46,7.68-5.48a13.24,13.24,0,0,1,5.19-.42A30.33,30.33,0,0,0,182.68,434c-3.89,4.33-4.28,7.53-7.66,12a33.93,33.93,0,0,1-13.86,10.47" transform="translate(-81.79 -278.21)"/><path class="cls-10" d="M99.65,440.51a28.81,28.81,0,0,0,6.91-3.87c.84-.64,2.18-1.94,4.84-4.5.76-.74,5.87-5.68,8.63-6.64a9.73,9.73,0,0,1,2.63-.51,8.2,8.2,0,0,1,1.21,0,51.62,51.62,0,0,0-6.38,4.29c-1.36,1.08-1.69,1.45-5,4.34-4.73,4.08-5.54,4.59-6.4,5a17.11,17.11,0,0,1-6.4,1.81" transform="translate(-81.79 -278.21)"/><path class="cls-11" d="M214.05,432.14a11.66,11.66,0,0,0,6-1,11.47,11.47,0,0,0,3.09-2.17c0-.66,0-1.32,0-2a16,16,0,0,1-3.09,2.71,16.34,16.34,0,0,1-6,2.47" transform="translate(-81.79 -278.21)"/><path class="cls-5" d="M129.5,380a4.66,4.66,0,0,0,3,0c.63-.22.67-.43,1.73-.86s1.54-.39,1.9-.83a3.3,3.3,0,0,0,.48-1.72,9,9,0,0,0,0-1.21,6.58,6.58,0,0,0-.54-2.24,5.53,5.53,0,0,1-1.09,3.14,9.13,9.13,0,0,1-2.6,1.95c-.83.52-1.82,1.11-2.94,1.73" transform="translate(-81.79 -278.21)"/><path class="cls-6" d="M136.09,374.83c-.33,2-2.25,3.1-3.94,4a6.58,6.58,0,0,1-4,1.12c-.75-.08-1.27-.32-3.06-1.41-3.24-2-4.86-3-4.91-3.74-.11-1.53,2.2-2.87,3.58-3.67a12.07,12.07,0,0,1,4.39-1.48c2-.27,4.6-.62,6.41,1.05a4.78,4.78,0,0,1,1.56,4.1" transform="translate(-81.79 -278.21)"/><path class="cls-7" d="M135.6,372.13a4.55,4.55,0,0,1,.49,2.7,5.08,5.08,0,0,1-2,3.06c-.84.72-1,.51-3.9,1.86a3.27,3.27,0,0,1-1.31.34,3.35,3.35,0,0,1-1-.13l7.65-7.83" transform="translate(-81.79 -278.21)"/><path class="cls-5" d="M170.75,425.11c1.17.26,2.93.44,4.1-.56a7.08,7.08,0,0,0,.92-1.19c2.09-2.81,2.11-2.85,2.24-3.2.7-1.92-1.59-4.51-2.83-5.75a8.88,8.88,0,0,1-.65,7.59,8.22,8.22,0,0,1-3.78,3.11" transform="translate(-81.79 -278.21)"/><path class="cls-6" d="M176,419.43c-.81,4.25-6,6.68-10.12,6.68-5.34,0-10.51-4.1-10.12-6.68.16-1.1,2.23-2.32,6.38-4.75a20.47,20.47,0,0,1,3.74-1.94c1.6-.53,5.24-1.72,7.86.26a6.75,6.75,0,0,1,2.26,6.43" transform="translate(-81.79 -278.21)"/><path class="cls-7" d="M173.77,413a5.64,5.64,0,0,1,1.41,1.41,6.73,6.73,0,0,1,.8,5.24c-.95,4.1-5.53,5.59-5.79,5.67q1.8-6.17,3.58-12.32" transform="translate(-81.79 -278.21)"/><path class="cls-5" d="M175.49,394.75a2.29,2.29,0,0,0,2.55.2c.19-.12.21-.18.8-.8a15.87,15.87,0,0,0,2-2.19c.82-1.41,0-3.83-.45-5a9.66,9.66,0,0,1-2,5.94,5.56,5.56,0,0,1-2.9,1.87" transform="translate(-81.79 -278.21)"/><path class="cls-6" d="M179.83,391.07a6.51,6.51,0,0,1-7.42,3.71c-3.16-.85-5.34-4.93-4.56-6.93.33-.84,1.82-1.48,4.79-2.76a12,12,0,0,1,2.63-.95c1.06-.16,3.47-.53,4.59,1.46a6.73,6.73,0,0,1,0,5.47" transform="translate(-81.79 -278.21)"/><path class="cls-7" d="M179.86,385.6a4.27,4.27,0,0,1,.54,1.34,7.33,7.33,0,0,1-.65,4.3,6.32,6.32,0,0,1-4.63,3.59l4.74-9.23" transform="translate(-81.79 -278.21)"/><path class="cls-5" d="M152.29,389.85a3.52,3.52,0,0,0,2.38.6c.54-.07.61-.24,1.54-.41s1.3,0,1.67-.36a3,3,0,0,0,.73-1.38,6.6,6.6,0,0,0,.29-1,6.28,6.28,0,0,0,0-2,5,5,0,0,1-1.51,2.48,7.14,7.14,0,0,1-2.45,1.18c-.77.29-1.66.61-2.68.93" transform="translate(-81.79 -278.21)"/><path class="cls-6" d="M158.56,386.66c-.68,1.68-2.41,2.22-3.94,2.7a5,5,0,0,1-3.42.21c-.57-.22-.94-.52-2.13-1.78-2.17-2.3-3.25-3.46-3.14-4.13.23-1.33,2.33-2,3.58-2.46a9.37,9.37,0,0,1,3.78-.45c1.66.15,3.77.33,4.87,2.1a4.43,4.43,0,0,1,.4,3.81" transform="translate(-81.79 -278.21)"/><path class="cls-7" d="M158.72,384.25a4.25,4.25,0,0,1-.16,2.41,4.47,4.47,0,0,1-2.17,2.24c-.8.46-.9.25-3.46.87a2.62,2.62,0,0,1-1.11,0,2.36,2.36,0,0,1-.75-.3l7.65-5.26" transform="translate(-81.79 -278.21)"/><path class="cls-12" d="M216.27,412.2a18.3,18.3,0,0,1,.1,1.87,14.86,14.86,0,0,1-.09,1.88,8.13,8.13,0,0,1-.43,2c-.36,1-.66,1.05-.75,1.07-.65.15-1.47-.57-1.56-.64a6.06,6.06,0,0,1,.64-4,6.26,6.26,0,0,1,2.09-2.18" transform="translate(-81.79 -278.21)"/><path class="cls-13" d="M215.15,413.4c-1.32,3.16-.69,4.41-1.79,4.74-2,.6-4.8-1.78-5.28-2.19s-4.38-3.73-3-6.87c1-2.24,4.17-3.48,7.06-2.54,2,.63,3.88,2.29,4.14,3.94.13.89-.33,1.08-1.09,2.92" transform="translate(-81.79 -278.21)"/><path class="cls-14" d="M216,409.7a3.49,3.49,0,0,1,.5,1.27c.25,1.52-.9,2.07-1.73,4s-.31,3-1.23,3.42c-.59.25-1.64.14-3.56-1l6-7.63" transform="translate(-81.79 -278.21)"/><path class="cls-12" d="M195.4,391.62a3.23,3.23,0,0,0,2.26,1.14,4,4,0,0,0,.84-.22,9,9,0,0,0,2.12-.7c.94-.63.57-2.6.32-3.59a4.44,4.44,0,0,1-2.66,3.24,5,5,0,0,1-2.88.13" transform="translate(-81.79 -278.21)"/><path class="cls-13" d="M199.83,390.83c-1.71,1.66-5.1,1-7.2-.41-2.71-1.83-4.07-5.47-3.08-6.52.42-.44,1.84-.29,4.7,0a13.64,13.64,0,0,1,2.5.39c1,.31,3.19,1,3.91,2.81a3.5,3.5,0,0,1-.83,3.71" transform="translate(-81.79 -278.21)"/><path class="cls-14" d="M200.66,387.12a3.26,3.26,0,0,1,.28,1.13,3.34,3.34,0,0,1-1.2,2.66c-1.74,1.55-4.53.66-4.68.61l5.6-4.4" transform="translate(-81.79 -278.21)"/><path class="cls-5" d="M147.57,373.38a2.39,2.39,0,0,0,1.93.49c.45-.09.52-.27,1.29-.47s1.07-.1,1.39-.43a3.43,3.43,0,0,0,.66-1.39,7.35,7.35,0,0,0,.28-1,7.49,7.49,0,0,0,.11-2,5.92,5.92,0,0,1-1.34,2.52,6.85,6.85,0,0,1-2.08,1.28c-.64.31-1.39.66-2.24,1" transform="translate(-81.79 -278.21)"/><path class="cls-6" d="M152.87,370c-.63,1.69-2.08,2.31-3.36,2.85a3.61,3.61,0,0,1-2.83.34c-.47-.19-.76-.47-1.69-1.67-1.69-2.19-2.53-3.29-2.41-4,.24-1.33,2-2.12,3-2.59a6.89,6.89,0,0,1,3.14-.59c1.36.07,3.09.17,3.93,1.87a5.07,5.07,0,0,1,.17,3.75" transform="translate(-81.79 -278.21)"/><path class="cls-7" d="M153.1,367.57a5,5,0,0,1-.23,2.38,4.75,4.75,0,0,1-1.88,2.32c-.69.49-.76.28-2.9,1a1.55,1.55,0,0,1-1.52-.18l6.53-5.52" transform="translate(-81.79 -278.21)"/><path class="cls-10" d="M131.14,450.5c0,6.71-3.4,12.15-7.59,12.15S116,457.21,116,450.5s3.4-12.14,7.59-12.14,7.59,5.43,7.59,12.14" transform="translate(-81.79 -278.21)"/><path d="M131.14,450.5c0,6.71-3,12.15-6.69,12.15s-6.69-5.44-6.69-12.15,3-12.14,6.69-12.14,6.69,5.43,6.69,12.14" transform="translate(-81.79 -278.21)"/><path class="cls-10" d="M194.17,450.5c0,6.71-3.4,12.15-7.59,12.15S179,457.21,179,450.5s3.4-12.14,7.59-12.14,7.59,5.43,7.59,12.14" transform="translate(-81.79 -278.21)"/><path d="M194.17,450.5c0,6.71-3,12.15-6.69,12.15s-6.69-5.44-6.69-12.15,3-12.14,6.69-12.14,6.69,5.43,6.69,12.14" transform="translate(-81.79 -278.21)"/><path class="cls-15" d="M139.23,470.1a28.91,28.91,0,0,0,28.24-.22" transform="translate(-81.79 -278.21)"/><path class="cls-16" d="M359.3,476.69c-.11,1-2.72,1.53-5.84,1.2s-5.57-1.39-5.47-2.38,2.72-1.54,5.84-1.21,5.57,1.39,5.47,2.39" transform="translate(-81.79 -278.21)"/><path class="cls-15" d="M359.3,476.69c-.11,1-2.72,1.53-5.84,1.2s-5.57-1.39-5.47-2.38,2.72-1.54,5.84-1.21S359.4,475.69,359.3,476.69Z" transform="translate(-81.79 -278.21)"/><line class="cls-15" x1="172.08" y1="139.4" x2="182.38" y2="139.4"/></g></svg>