<svg id="Calque_1" data-name="Calque 1" xmlns="http://www.w3.org/2000/svg" xmlns:xlink="http://www.w3.org/1999/xlink" viewBox="0 0 510.37 322.71"><defs><style>.cls-1,.cls-35{fill:none;}.cls-2{clip-path:url(#clip-path);}.cls-3{fill:#1d1d1b;}.cls-4{fill:#575756;}.cls-5{fill:#d8d2d4;}.cls-6{fill:#e79830;}.cls-7{fill:#eaa548;}.cls-8{fill:#e72867;}.cls-9{clip-path:url(#clip-path-3);}.cls-10{fill:url(#Dégradé_sans_nom_2);}.cls-11{opacity:0.64;}.cls-12{clip-path:url(#clip-path-5);}.cls-13{fill:#ed6ca1;}.cls-14{opacity:0.59;}.cls-15{clip-path:url(#clip-path-6);}.cls-16{fill:#f08bb2;}.cls-17{clip-path:url(#clip-path-7);}.cls-18{fill:#f4eff1;}.cls-19{fill:#b21455;}.cls-20{fill:#010101;}.cls-21{fill:#f8f9fa;}.cls-22{fill:#94a2a9;}.cls-23{fill:#c48357;}.cls-24{fill:#cbd7dd;}.cls-25{fill:#ebeef5;}.cls-26{fill:#eaeef5;}.cls-27{fill:#eceef5;}.cls-28{fill:#acb8bd;}.cls-29{fill:#e58d15;}.cls-30{fill:#e6992e;}.cls-31{fill:#c97d16;}.cls-32{fill:#c9d5db;}.cls-33{fill:#dcdce4;}.cls-34{fill:#05090b;}.cls-35{stroke:#1d1d1b;stroke-linecap:round;stroke-miterlimit:10;}</style><clipPath id="clip-path" transform="translate(-601.12 -151.44)"><rect class="cls-1" width="1223.06" height="595.28"/></clipPath><clipPath id="clip-path-3" transform="translate(-601.12 -151.44)"><path class="cls-1" d="M720,290.79c0-24.83,13-45,29.06-45s29.06,20.13,29.06,45-13,45-29.06,45S720,315.62,720,290.79m45.57-133.73c-10.92,1.3-13.83,10.23-29.66,12.43-9.12,1.27-14.72-.77-18.78-1.12-24-2.11-62,48.37-68.66,103-5.25,43.4,8.59,95.72,45.51,124.52,3.53,2.76,32.84,25.07,63.47,21.73,4.58-.5,12.8-1.39,21.25-6.7,13.48-8.46,10.32-17.32,20.53-23.42,7.43-4.43,14.49-3,22.46-1.48s17.13,3,28.43-1.7c4.79-2,10.52-4.36,15-10.12,11.85-15.09-2.79-30.3,4.63-56.09,5.88-20.48,18.4-22.32,16.77-36.73-1.5-13.19-12.21-13.54-17.64-31.51-4.38-14.51,1.45-18-3.27-34-1.7-5.77-5.41-18.35-15.82-26.71-13.57-10.89-22.89-2-45.11-10.7C783,170,779.94,156.93,767.76,156.92a19.34,19.34,0,0,0-2.23.14"/></clipPath><radialGradient id="Dégradé_sans_nom_2" cx="0" cy="595.28" r="1" gradientTransform="matrix(125.21, 0, 0, -125.21, 165.89, 74668.27)" gradientUnits="userSpaceOnUse"><stop offset="0" stop-color="#e23369"/><stop offset="0.54" stop-color="#e2356a"/><stop offset="0.73" stop-color="#e43c6f"/><stop offset="0.87" stop-color="#e64777"/><stop offset="0.98" stop-color="#ea5883"/><stop offset="1" stop-color="#eb5d86"/></radialGradient><clipPath id="clip-path-5" transform="translate(-601.12 -151.44)"><rect class="cls-1" x="659.34" y="180.19" width="209.13" height="212.2"/></clipPath><clipPath id="clip-path-6" transform="translate(-601.12 -151.44)"><rect class="cls-1" x="656.83" y="210.05" width="33.13" height="145.01"/></clipPath><clipPath id="clip-path-7" transform="translate(-601.12 -151.44)"><rect class="cls-1" x="791.49" y="220.45" width="40.72" height="125.37"/></clipPath></defs><title>donut</title><g class="cls-2"><g class="cls-2"><path class="cls-3" d="M784,412.29l43.38,41.52,43.32-16.11L874,465.15c1.44.46,7.13,2.14,10.52-.76,3.2-2.72,2.53-7.93,1.68-13.85a63,63,0,0,0-7.53-21.91l-47.3,15.78L807,419.6Z" transform="translate(-601.12 -151.44)"/><path class="cls-3" d="M773.38,410.43l-29.48,16-18.14,46.34-27.09-46.34c2.68-2.59,4.86-3.16,6.48-3.11,7.71.24,14.92,15.22,18.6,37.36l10.07-37.61,24.29-17.49Z" transform="translate(-601.12 -151.44)"/><path class="cls-4" d="M725.76,472.77a6.61,6.61,0,0,1-4.69,1.31c-3.14-.55-4.75-4.19-6.28-7.24-1.72-3.45,3.84,8.65-14-22.84-3.53-6.23-5.62-10.05-4.25-14.1a9.4,9.4,0,0,1,2.12-3.47l27.09,46.34" transform="translate(-601.12 -151.44)"/><path class="cls-5" d="M610.64,267.74c-.68,2.16,6.76,7.14,14.93,9.52,4.62,1.34,8.56,2.48,12.88.58,3.54-1.56,7.13-5.1,7.79-9.74.82-5.92-3.29-10.25-5-12.05-.74-.78-6.31-6.39-14.62-5.87-5.93.38-13,3.87-13.31,7.91-.22,2.9,3.16,4.89,2.19,7s-4.39,1.25-4.83,2.63" transform="translate(-601.12 -151.44)"/><path class="cls-3" d="M651.19,264.09l-7.13,0a8.26,8.26,0,0,0-7.59-6.41c-4.24,0-8.22,4.12-7.83,9.29-.95,5.06,2.68,9.6,7,9.95A8.25,8.25,0,0,0,644,270.3l5.07-.1Z" transform="translate(-601.12 -151.44)"/><path class="cls-6" d="M781.7,151.44c-73.7,0-133.45,60.69-133.45,135.56S708,422.56,781.7,422.56,915.15,361.87,915.15,287,855.41,151.44,781.7,151.44M749,338.05c-18.44,0-33.39-21.36-33.39-47.71s15-47.71,33.39-47.71,33.4,21.36,33.4,47.71-14.95,47.71-33.4,47.71" transform="translate(-601.12 -151.44)"/><path class="cls-7" d="M745.55,417.53l59.14-130.08L776.53,159.67c9.84.81,15.77,3.69,19.43,6.3a36.24,36.24,0,0,0,7.21,4.46c3.46,1.54,4.5,1.23,10.93,3,6.76,1.83,6.68,2.47,11.19,3.33,5,1,5,.16,10,1.07,5.45,1,5.48,2,12.37,3.7,5.55,1.35,6.47.93,9.9,2.25a29.39,29.39,0,0,1,8.18,4.83,17.18,17.18,0,0,1,4,9.18c.21,2.3-.3,2.72-.22,5.64,0,1.63.19,7,3,11.06s5.11,2.34,8.24,5.86c3.76,4.24,1.07,7.38,4.78,17.35,1.86,5,2.93,5.26,3.46,8.89.84,5.8-1.63,6.87-.59,11.1,1.38,5.61,6.27,6.05,8.18,11.89a15.53,15.53,0,0,1-.29,9.54,21.34,21.34,0,0,0-3,11.06c.13,4.66,1.91,5.64,1.52,8.89-.83,6.93-9.41,6.77-10.84,13.23s6.39,11.5,3.85,19.38a11.67,11.67,0,0,1-1.25,2.67c-1.68.28-4.07,1-5.2,2.89-1.57,2.65.54,5.43-.87,8.24s-5.37,3.48-6.29,3.69c-4.83,1.11-15.81,11.29-41.86,48.21a4.94,4.94,0,0,1-3.25,2.32c-2.64.26-3.53-3.14-6.5-3.69-3.52-.65-4.36,3.71-10.42,5.21-3.88.95-5.29-.41-8.89,1.3-2.29,1.08-2.45,2-4.6,3a14.71,14.71,0,0,1-8.84.84c-4.24-.64-15.56,1.35-44.39,11.2" transform="translate(-601.12 -151.44)"/><path class="cls-8" d="M872.24,317.66c5.89-20.47,18.41-22.31,16.77-36.72-1.5-13.19-12.21-13.54-17.64-31.52-4.38-14.5,1.46-18-3.26-34-1.7-5.77-5.42-18.35-15.82-26.71-13.58-10.9-22.89-2-45.11-10.7-22.93-8.94-25-23.07-39.16-21.39-10.91,1.3-13.82,10.23-29.66,12.43-9.16,1.27-14.64-.82-18.78-1.13-25.06-1.84-68.67,57.09-68.79,122,0,8.21.78,70.33,45.64,105.56,3.64,2.85,32.67,25.09,63.47,21.73,4.58-.5,12.8-1.39,21.26-6.7,13.47-8.46,10.32-17.32,20.52-23.42,15-8.94,28.46,6.14,50.9-3.18,4.78-2,10.51-4.36,15-10.12,11.86-15.09-2.79-30.3,4.63-56.1M751.52,335.3c-16,0-29.06-20.13-29.06-45s13-45,29.06-45,29.06,20.13,29.06,45-13,45-29.06,45" transform="translate(-601.12 -151.44)"/><path class="cls-6" d="M759,292.38c3.47,21.29,18.76,27.37,14.65,40.09-3.58,11.12-19.13,18.55-31.57,16.87-21.62-2.9-34.36-33.4-34.26-56.38s13.1-47.82,34.26-56.39c2.58-1,19.36-7.54,25.73-.66,8.41,9.07-13.4,28.34-8.81,56.47" transform="translate(-601.12 -151.44)"/></g><g class="cls-9"><rect class="cls-10" x="42.06" y="5.49" width="244.97" height="264.05"/></g><g class="cls-2"><g class="cls-11"><g class="cls-12"><path class="cls-13" d="M761.41,180.19c-11-.15-13.6,6.61-29.27,7.81-10.22.77-14.57-1.69-19.51-1.74-22.2-.23-52,48.21-53.25,97.7-1.11,45.79,22.22,95.93,52.44,105.29,15.79,4.89,34.14,2.6,34.14,2.6a84.5,84.5,0,0,0,24.79-7,53.93,53.93,0,0,0,7.89-4.41c7.26-5,12.29-8.75,13.66-9.85,13.43-10.78,34.79.68,46.22-9.54,9-8-.66-18.16,6.94-39.91,7.83-22.4,22.19-23.55,23-40.34.35-7.26-2.31-7.61-12.57-32.52-11.6-28.16-9.33-30.48-15.62-36.87-11-11.14-16.32-2.57-41.2-16.92-5.56-3.2-16.67-10.19-31.87-13.39a27.47,27.47,0,0,0-5.77-.92M749.78,353.68c-27,0-48.94-27.86-48.94-62.24s21.91-62.24,48.94-62.24,48.94,27.87,48.94,62.24-21.91,62.24-48.94,62.24" transform="translate(-601.12 -151.44)"/></g></g><g class="cls-14"><g class="cls-15"><path class="cls-16" d="M656.87,285.8c1.09,39.64,28.31,71,32.53,69.18,3.75-1.63-12.57-28.86-12.58-72.86,0-43.75,16.11-70.5,12.58-72-4.2-1.79-33.7,33.08-32.53,75.68" transform="translate(-601.12 -151.44)"/></g></g><g class="cls-14"><g class="cls-17"><path class="cls-16" d="M831.14,269.54c.48,2.6,6.87,41.34-18.21,66.36-1,1-12.23,12.07-16,9.54-6.53-4.32,24.55-39.79,14.31-73.73-7.43-24.66-13.73-36.29-13.73-36.29-3.21-5.92-7.37-12.56-5.5-14.46,2.15-2.18,10.88,3.26,12.15,4,20.9,13,26.44,41.26,27,44.53" transform="translate(-601.12 -151.44)"/></g></g><path class="cls-18" d="M724.81,172.67c0,.41-4.37-.42-11.28.51-7.26,1-11.48,3.07-11.64,2.67s4.54-3.7,10.77-4.63c6.49-1,12.2,1,12.15,1.45" transform="translate(-601.12 -151.44)"/><path class="cls-18" d="M779,163.49c-.14.33-4.35-2.13-11.12-2.49-5.4-.3-9,.93-9.11.59s4.08-2.4,9.06-2.28c6.39.16,11.32,3.81,11.17,4.18" transform="translate(-601.12 -151.44)"/><path class="cls-18" d="M858.47,206c6.94,12.82,6.24,26.46,5.2,26.67s-1.81-11.1-9.65-25.26C846.64,194.05,838.31,187.64,839,187s12.57,6.18,19.52,19" transform="translate(-601.12 -151.44)"/><path class="cls-18" d="M861.07,320.93c-2.77,14,2.24,26.37,3,26.25s-2.08-9.6,0-23.64c1.89-12.79,6.53-20.73,5.85-21s-6.75,7.63-8.89,18.43" transform="translate(-601.12 -151.44)"/><path class="cls-18" d="M847.19,381.33c.09.46-5,2.58-11.06,2.71-6.78.15-12.46-2.23-12.36-2.71s4.23.67,11.71.66,11.63-1.07,11.71-.66" transform="translate(-601.12 -151.44)"/><path class="cls-19" d="M737,200.47c0,10.6-3.8,19.19-8.49,19.19s-8.5-8.59-8.5-19.19,3.8-19.18,8.5-19.18,8.49,8.59,8.49,19.18" transform="translate(-601.12 -151.44)"/><path class="cls-20" d="M737,200.47c0,10.58-3.25,19.16-7.25,19.16s-7.24-8.58-7.24-19.16,3.24-19.15,7.24-19.15,7.25,8.57,7.25,19.15" transform="translate(-601.12 -151.44)"/><path class="cls-19" d="M787.48,200.47c0,10.6-3.8,19.19-8.49,19.19s-8.49-8.59-8.49-19.19,3.8-19.18,8.49-19.18,8.49,8.59,8.49,19.18" transform="translate(-601.12 -151.44)"/><path class="cls-20" d="M787.48,200.47c0,10.58-3.24,19.16-7.24,19.16S773,211.05,773,200.47s3.25-19.15,7.25-19.15,7.24,8.57,7.24,19.15" transform="translate(-601.12 -151.44)"/><path class="cls-21" d="M777.88,291.2a4.65,4.65,0,0,1,.18-1.24,5.16,5.16,0,0,1,0-1.36,5.54,5.54,0,0,1-.06-.74c0-.27,0-.53,0-.8a5.76,5.76,0,0,1-.12-1.31l-111.06,2.52,2,23.86c19.37,2,39.46,3.59,60.23,4.57,14.73.69,29.18,1,43.37,1.13a5.32,5.32,0,0,1,.59-1.31,9,9,0,0,1,.41-1.47c.29-.89.79-1.7,1.14-2.54a17.53,17.53,0,0,0,1-3.68c.17-.85.74-1.77.83-2.61a6.49,6.49,0,0,1,.53-2c0-.15.06-.3.09-.45a5.67,5.67,0,0,1,.27-1.35,5.87,5.87,0,0,1,.19-1.93l.09-.26a1,1,0,0,0,0-.17c0-1.26.17-2.51.19-3.77a5.11,5.11,0,0,1,.21-1.25,4.88,4.88,0,0,1-.1-.92Z" transform="translate(-601.12 -151.44)"/><path class="cls-21" d="M913.07,294a2.48,2.48,0,0,1,1.4,0c.79,0,1.6-.06,2.38,0,.37,0,.74,0,1.11,0,1.69,0,3.39,0,5.08,0q.12-5.76.26-11.52l-10.15.23c0,3.78-.08,7.55-.16,11.32h.08" transform="translate(-601.12 -151.44)"/><path class="cls-21" d="M919.53,299.84l-3.47-.48c-1-.15-2.12-.13-3.16-.29-.07,3.46-.14,6.92-.16,10.39q5-.63,10-1.3l.18-7.88c-1.13-.16-2.26-.3-3.37-.44" transform="translate(-601.12 -151.44)"/><path class="cls-22" d="M744.87,316.33c-7.13-.06-14.26-.29-21.39-.53-4.91-.17-9.82-.51-14.72-.77-1.72-.1-3.44-.15-5.16-.3-2.89-.25-5.78-.56-8.67-.85l-6.17-.37-5.94-.61c-7.32-.86-14.66-1.55-22-2.62-8.9-1.31-17.81-2.66-26.61-4.51-8.26-1.74-16.37-4.15-24.54-6.27l-2.39-.8c1.17-.36,1.79-.57,2.42-.74,9.64-2.5,19.26-5,28.91-7.49,7.32-1.86,14.66-3.66,22-5.35s14.86-3.27,22.3-4.82c6.17-1.29,12.35-2.5,18.54-3.7,7.36-1.43,14.71-2.91,22.1-4.2,7.68-1.35,15.4-2.54,23.11-3.74q13-2,26.08-4a6.13,6.13,0,0,1-.25-.72,5,5,0,0,1-.74-1.15,5.11,5.11,0,0,1-.64-1.28l-1.46.21c-11.54,1.73-23.07,3.5-34.57,5.43-9.49,1.58-18.94,3.35-28.39,5.16-8.92,1.7-17.83,3.46-26.7,5.4q-17.61,3.84-35.16,8c-7.31,1.73-14.57,3.65-21.84,5.56-6.91,1.81-13.81,3.7-20.69,5.62-.52.14-1.32.88-1.25,1.21a2.58,2.58,0,0,0,1.19,1.73,90,90,0,0,0,9,3.26,377.66,377.66,0,0,0,59.77,11.69q21.39,2.49,42.91,3.82c11.56.75,23.17.89,34.77,1,7.68.07,15.37,0,23.06-.09a4.64,4.64,0,0,1,.51-1.31,5,5,0,0,1,.68-1.68.56.56,0,0,1,0-.22c-9.39.06-18.77.1-28.16,0" transform="translate(-601.12 -151.44)"/><path class="cls-22" d="M945,284.88c-.61-.07-1.23-.15-1.84-.2l-2-.15-.66.74-.35.66c0,.28-.11.55-.17.83-.13,1.67-.32,3.33-.37,5s-.09,3.3-.13,4.95l.39.07a1.61,1.61,0,0,1,.8.43c.63.08,1.26.17,1.88.3,0-1.25,0-2.5,0-3.74.05-3.16.56-6.24,2.49-8.89" transform="translate(-601.12 -151.44)"/><path class="cls-22" d="M936.38,305a34.34,34.34,0,0,1-4.35.82c-4.54.53-9.1.84-13.64,1.32-1.88.2-3.75.43-5.63.64,0,.91,0,1.82,0,2.73l0,.55,4.28-.55c7.37-1,14.69-2.3,22-3.42a11.23,11.23,0,0,0-2.64-2.09" transform="translate(-601.12 -151.44)"/><path class="cls-22" d="M970.81,247.59c-1.84-.12-3.68-.35-5.51-.33-8,.08-16.11.15-24.16.38-10.53.3-21.07.69-31.6,1.11a6,6,0,0,1,.12,1.11c.19.37.36.75.52,1.13.91-.05,1.82-.1,2.72-.13,8.09-.3,16.19-.47,24.28-.6,6.78-.11,13.56-.08,20.34-.14,4.54,0,9.08-.12,13.62-.19l-.33-2.34" transform="translate(-601.12 -151.44)"/><path class="cls-23" d="M970.46,241.72c-.23-2.3,0-2.7,2.33-2.67,18.69.32,37.39.84,56.08.91a236,236,0,0,0,44.69-3.92c6.28-1.19,12.57-2.26,19-1.7,5.91.51,11.41,2,15.16,7.15,7,9.57,3.94,24.31-6.51,30.71-6.88,4.22-14.64,5.8-22.51,6.53-8.68.81-17.4,1.17-26.1,1.73-12.49.8-25,1.5-37.46,2.44-9.35.7-18.69,1.71-28,2.54-2.87.25-5.75.5-8.63.52s-3-.33-3.35-3.06c-.21-1.65-.55-3.28-.84-4.91,0-1.08-.09-2.16-.14-3.24v-.14c0-.31-.07-.62-.11-.92q-1.28-11.47-2.57-22.93a3.5,3.5,0,0,0-.31-.83l-.33-2.34c-.11-2-.15-3.92-.35-5.87m5.61,28.18a2.74,2.74,0,0,0,.21.67c.51,3.64.93,7.3,1.54,10.93.25,1.49,1.62,1.17,2.67,1.09,5.63-.39,11.26-.79,16.89-1.24,5.21-.42,10.41-1,15.63-1.33q13.83-1,27.67-1.9c6.45-.41,12.89-.74,19.34-1.11s12.93-.62,19.38-1.16a48.28,48.28,0,0,0,17.06-4.2c6.11-2.92,10.33-7.34,11.52-14.25,1.14-6.65-1.1-14.86-8-19.1a5.56,5.56,0,0,0-1-.36l-1-.39c-4.16-1.49-8.42-1.1-12.65-.57-12,1.49-23.94,3.53-36,4.44s-24.22.85-36.34,1c-8.46.12-16.93,0-25.39-.13-4,0-7.92-.21-11.88-.34-2-.06-2.25.14-2,2.09q.69,5.63,1.4,11.24.47,7.31.94,14.6" transform="translate(-601.12 -151.44)"/><path class="cls-22" d="M941.15,284.53l2,.15c.61.05,1.23.13,1.84.2,2.28-3.09,5.6-4.17,9.16-4.8l6.84-1.2c-.31-1.42-1.49-1.58-2.56-1.49-2.52.19-5,.6-7.52.84a20.12,20.12,0,0,1-2.79-.13h0l-.51.07-1.25.4-.68.83h0a11.44,11.44,0,0,0-1.75,2.44,1.68,1.68,0,0,1-2.48,1.15l-.43.56Z" transform="translate(-601.12 -151.44)"/><path class="cls-22" d="M948.16,278.1a20.12,20.12,0,0,0,2.79.13c2.51-.24,5-.65,7.52-.84,1.07-.09,2.25.07,2.56,1.49,2.15.67,4.27-.15,6.41-.19s4.56-.45,6.84-.7c0-1.08-.09-2.16-.14-3.24-1,.92-2,1.22-3.16.31l-2.27.5a14.13,14.13,0,0,1-1.57.33c-4.89.45-9.78.83-14.66,1.33a43.52,43.52,0,0,0-4.32.88" transform="translate(-601.12 -151.44)"/><path class="cls-24" d="M776.16,274c0-.15,0-.3-.08-.45s-.1-.27-.15-.41a3.37,3.37,0,0,1-.53-1.25,30.29,30.29,0,0,0-1.51-4.61c0-.09,0-.18-.07-.27a5.61,5.61,0,0,1-.47-1.22,4.77,4.77,0,0,1-.26-.66q-.15-.26-.27-.51-13.05,2-26.08,4c-7.71,1.2-15.43,2.39-23.11,3.74-7.39,1.29-14.74,2.77-22.1,4.2-6.19,1.2-12.37,2.41-18.54,3.7-7.44,1.55-14.89,3.12-22.3,4.82s-14.71,3.49-22,5.35c-9.65,2.44-19.27,5-28.91,7.49-.63.17-1.25.38-2.42.74l2.39.8a3.14,3.14,0,0,1,1-.42c3.64-.23,7.29-.35,10.93-.63,8.68-.67,17.36-1.41,26.05-2.14,6.16-.51,12.33-1.05,18.5-1.55,1.41-.11,2.84-.09,4.26-.13l5.64-.15,6.36-.45a11.48,11.48,0,0,1,2-.54c3.31-.22,6.62-.36,9.94-.53a2.48,2.48,0,0,1,.67-.25c5.49-.4,11-.83,16.45-1.17,5.17-.32,10.34-.54,15.51-.8,3.88-.2,7.76-.37,11.64-.59,3.12-.17,6.24-.41,9.36-.61-.57-2.54,0-3.71,2.2-4.8a3.51,3.51,0,0,0,2-3c.33-2.24,1.44-3.8,3.38-4,5.6-.69,11.18-1.52,16.79-2.05a4.25,4.25,0,0,1,4.46,3,7.69,7.69,0,0,1,0-1.07,3.24,3.24,0,0,1-.4-1.05c-.14-.85-.23-1.7-.33-2.55" transform="translate(-601.12 -151.44)"/><path class="cls-24" d="M974.13,274.61c0-.31-.07-.62-.11-.92q-1.28-11.47-2.57-22.93a3.5,3.5,0,0,0-.31-.83c-4.54.07-9.08.15-13.62.19-6.78.06-13.56,0-20.34.14-8.09.13-16.19.3-24.28.6-.9,0-1.81.08-2.72.13a29.57,29.57,0,0,1,1.92,9.15c.53,6.6.84,13.34.91,20a5.14,5.14,0,0,1,.15,1.21c0,1.9,0,3.81,0,5.72l3.61-.07c5.5-.11,11-.26,16.49-.34,2.25,0,4.51.08,6.76.13.06-.28.11-.55.17-.83l-.43-.7c-3-.65-4-2.66-4.15-5.61-.18-3.65-.72-7.29-1.2-10.93a4.62,4.62,0,0,1,2.24-5,4.89,4.89,0,0,0,2-2.58c.76-2.91,2.13-4.36,5.07-4.7q7.33-.84,14.68-1.65a4.71,4.71,0,0,1,5.08,3.12,3.67,3.67,0,0,0,2.92,2.74,3.77,3.77,0,0,1,2.88,3.12c.56,3.7,1,7.41,1.54,11.12l.12,0a.83.83,0,0,1,.08.22v0c1.15.91,2.19.61,3.16-.31v-.14" transform="translate(-601.12 -151.44)"/><path class="cls-25" d="M773.41,315.05c.29-.89.79-1.7,1.14-2.54a17.56,17.56,0,0,0,1.05-3.68c.16-.85.74-1.77.82-2.61a6.77,6.77,0,0,1,.34-1.51c-1.14-.87-2.19-.43-3.17,1.26a3.4,3.4,0,0,1-2.09,1.63c-.66.07-1.61-.71-2.1-1.36-1.14-1.52-2.49-1.63-3.62-.05a9.7,9.7,0,0,0-.55,1.12c-.87,1.64-2.45,1.77-3.61.3-1.88-2.4-2.9-2.32-4.29.33-1,2-2.4,2-4,.47a45.51,45.51,0,0,0-5.63-4.4,1.74,1.74,0,0,1-.32-2.94c1.48-1.39,1-4.37-.77-5.45-1.26-.77-2.7-1.46-3.25-3l6.09-1.93a1.94,1.94,0,0,0,.21-.29l-.31-.71-1.31-.12c-3.12.2-6.24.44-9.36.61-3.88.22-7.76.4-11.64.59-5.17.26-10.34.48-15.51.8-5.48.34-11,.77-16.45,1.17a2.48,2.48,0,0,0-.67.25,3.38,3.38,0,0,1,.5.5q6.85,10.11,13.67,20.25c.22.33.11.87.15,1.32,4.9.26,9.81.6,14.72.77,7.13.24,14.26.47,21.39.53,9.39.07,18.77,0,28.16,0,.08-.35.31-1,.38-1.25" transform="translate(-601.12 -151.44)"/><path class="cls-26" d="M933.67,303.31a32.94,32.94,0,0,0-6.53-2.77,29.16,29.16,0,0,0-7.36-1.37c-.89,0-2.59-.07-3.52-.08-1.41,0-2.56,0-3.36,0q-.09,4.37-.14,8.72c1.88-.21,3.75-.44,5.63-.64,4.54-.48,9.1-.79,13.63-1.32a34.16,34.16,0,0,0,4.36-.82c-.67-.46-1.58-1.07-2.71-1.7" transform="translate(-601.12 -151.44)"/><path class="cls-26" d="M928.22,294.5a1.86,1.86,0,0,1,1,.07h0a6.43,6.43,0,0,1,1,.14c.2.05.39.12.59.16s.23.05.35.06c-.24,0-.25,0,0,0,.53.07,1,.15,1.56.27l.22,0h.08c.34,0,.69.07,1,.14s.89.3,1.35.41.79.15,1.19.22a8.11,8.11,0,0,1,1.3.27c.15,0,.29.13.44.19l1.1.23c0-1.65.07-3.3.12-4.95s.25-3.33.38-5c-2.25-.05-4.51-.16-6.76-.13-5.5.08-11,.23-16.49.34l-3.61.07c0,2.31-.08,4.63-.12,6.95h.08a2.48,2.48,0,0,1,1.4,0c.79,0,1.6-.06,2.38,0,.37,0,.74,0,1.11,0a65.69,65.69,0,0,1,8.65.25,14.68,14.68,0,0,1,1.61.29" transform="translate(-601.12 -151.44)"/><path class="cls-26" d="M670.45,294.63c-1.42,0-2.85,0-4.26.13-6.17.5-12.34,1-18.5,1.55-8.69.73-17.37,1.47-26.05,2.14-3.64.28-7.29.4-10.93.63a3.14,3.14,0,0,0-1,.42c8.17,2.12,16.28,4.53,24.54,6.27,8.8,1.85,17.71,3.2,26.61,4.51,7.29,1.07,14.63,1.76,22,2.62a28,28,0,0,1-1.94-2.29c-2.24-3.24-4.46-6.49-6.62-9.78-1.34-2-2.55-4.13-3.81-6.2" transform="translate(-601.12 -151.44)"/><path class="cls-27" d="M694.93,313.88a36.08,36.08,0,0,0-2.17-4.41c-2.67-4-5.48-7.94-8.19-11.93-.77-1.12-1.42-2.33-2.12-3.51l-6.36.45a3.85,3.85,0,0,1,.66.61q4.08,6.15,8.14,12.3c1.32,2,2.58,4.08,3.87,6.12l6.17.37" transform="translate(-601.12 -151.44)"/><path class="cls-24" d="M970.77,274.83c-.51-3.71-1-7.42-1.54-11.12a3.77,3.77,0,0,0-2.88-3.12,3.67,3.67,0,0,1-2.92-2.74,4.71,4.71,0,0,0-5.08-3.12q-7.35.81-14.68,1.65c-2.94.34-4.31,1.79-5.07,4.7a4.89,4.89,0,0,1-2,2.58,4.6,4.6,0,0,0-2.23,5c.47,3.64,1,7.28,1.19,10.93.14,2.95,1.12,5,4.15,5.61l.78,0,.66-.75-.06-1c-3.32,0-3.65-.31-4-3.36-.46-4-1.1-7.93-1.34-11.91a4.55,4.55,0,0,1,1.64-3.23c1.47-1.2,2.62-2.44,2.79-4.38a2.63,2.63,0,0,1,2.48-2.63c5.22-.67,10.43-1.39,15.66-2,2.16-.24,3.49,1.14,4,3.15a4.06,4.06,0,0,0,2,2.13c1.65.83,3.53,1.13,3.57,3.65,0,2.32.48,4.64.68,7,.1,1.2.05,2.4.07,3.6l2.27-.5v0a1.8,1.8,0,0,0-.2-.19" transform="translate(-601.12 -151.44)"/><path class="cls-28" d="M940.49,285.27l-.78,0,.43.7.35-.66" transform="translate(-601.12 -151.44)"/><path class="cls-29" d="M1099,237.94l-1-.39a49.38,49.38,0,0,1-5.08,4.85,76.84,76.84,0,0,1-10,6.39,88.74,88.74,0,0,1-10.73,4.2,52.66,52.66,0,0,1-6.53,1.82A65.61,65.61,0,0,1,1058,256c-3.89.35-7.8.49-11.7.72a6.32,6.32,0,0,1-.87,0c-2.35-.15-4.7-.4-7.05-.44-4.22-.07-8.43,0-12.64,0-3.21,0-6.42,0-9.63,0-2.62,0-5.24,0-7.85-.1-2.29-.08-4.58-.28-6.87-.44-3.11-.21-6.32.5-9-.93a11.24,11.24,0,0,1-3,.8c-3-.14-5.92-.59-8.88-.72a45.76,45.76,0,0,0-5.35.35q.47,7.31.94,14.6a2.74,2.74,0,0,0,.21.67c1.38.31,2.75.76,4.14.93,4.67.56,9.35,1,14,1.52a32.92,32.92,0,0,0,4.07.3c3.16-.09,6.32-.27,9.48-.46,4.75-.29,9.51-.61,14.26-.93,4.47-.3,8.93-.65,13.4-.91,7.1-.41,14.22-.65,21.31-1.19,4.31-.33,8.61-1,12.87-1.7,3.24-.56,6.42-1.49,9.62-2.29a44.65,44.65,0,0,0,12.25-5.32,19.81,19.81,0,0,0,7.44-8.32c1.34-2.6,1.36-6,1.52-9,.09-1.78.36-4-1.66-5.22" transform="translate(-601.12 -151.44)"/><path class="cls-30" d="M975.13,255.3a45.76,45.76,0,0,1,5.35-.35c3,.13,5.92.58,8.88.72a11.24,11.24,0,0,0,3-.8c2.68,1.43,5.89.72,9,.93,2.29.16,4.58.36,6.87.44,2.61.09,5.23.09,7.85.1,3.21,0,6.42,0,9.63,0,4.21,0,8.42-.05,12.64,0,2.35,0,4.7.29,7.05.44a6.32,6.32,0,0,0,.87,0c3.9-.23,7.81-.37,11.7-.72a65.61,65.61,0,0,0,7.62-1.2,53.15,53.15,0,0,0,6.53-1.82,88.74,88.74,0,0,0,10.73-4.2,76.84,76.84,0,0,0,10-6.39,49.38,49.38,0,0,0,5.08-4.85c-4.16-1.49-8.42-1.1-12.65-.57-12,1.49-23.94,3.53-36,4.44s-24.23.84-36.34,1c-8.46.12-16.93,0-25.39-.13-4,0-7.92-.21-11.88-.34-2-.06-2.25.14-2,2.09q.69,5.63,1.4,11.24" transform="translate(-601.12 -151.44)"/><path class="cls-31" d="M1099,237.94c2,1.26,1.75,3.44,1.66,5.22-.16,3.06-.18,6.44-1.52,9a19.81,19.81,0,0,1-7.44,8.32,44.65,44.65,0,0,1-12.25,5.32c-3.2.8-6.38,1.73-9.62,2.29-4.26.74-8.56,1.37-12.87,1.7-7.09.54-14.21.78-21.31,1.19-4.47.26-8.93.61-13.4.91-4.75.32-9.51.64-14.26.93-3.16.19-6.32.37-9.48.46a32.92,32.92,0,0,1-4.07-.3c-4.67-.49-9.35-1-14-1.52-1.39-.17-2.76-.62-4.14-.93.5,3.64.93,7.3,1.54,10.93.25,1.49,1.62,1.17,2.67,1.09,5.63-.39,11.26-.79,16.89-1.24,5.21-.42,10.41-1,15.63-1.33q13.83-1,27.67-1.9c6.44-.41,12.89-.74,19.34-1.11s12.93-.62,19.38-1.16a48.28,48.28,0,0,0,17.06-4.2c6.11-2.92,10.33-7.34,11.52-14.25,1.14-6.65-1.1-14.86-8-19.1a5.56,5.56,0,0,0-1-.36" transform="translate(-601.12 -151.44)"/><path class="cls-22" d="M974,273.69c0,.3.07.61.11.92,0-.31-.07-.62-.11-.92" transform="translate(-601.12 -151.44)"/><path class="cls-32" d="M967.14,275.89c-4.89.45-9.78.83-14.66,1.33a43.52,43.52,0,0,0-4.32.88h0l-.51.07-1.25.4-.68.83h0a12.07,12.07,0,0,0-2.29,1.26,17.63,17.63,0,0,0-1.94,2.33l-.43.56c-3.32,0-3.65-.31-4-3.36-.46-4-1.1-7.93-1.34-11.91a4.55,4.55,0,0,1,1.64-3.23c1.47-1.2,2.62-2.44,2.79-4.38a2.63,2.63,0,0,1,2.48-2.63c5.22-.67,10.43-1.39,15.66-2,2.16-.24,3.49,1.14,4,3.15a4.06,4.06,0,0,0,2,2.13c1.65.83,3.53,1.13,3.57,3.65,0,2.32.48,4.64.68,7,.1,1.19.05,2.4.07,3.6a14.13,14.13,0,0,1-1.57.33m-9.75-2.95c2.31-2.6,1.09-7.39-.7-8.86-2.41-2-7.41-2.1-9.68,1a6.41,6.41,0,0,0,1.21,8.92c3.45,2.47,6.49,2,9.17-1.06" transform="translate(-601.12 -151.44)"/><path class="cls-22" d="M945.75,279.39a11.77,11.77,0,0,0-2.29,1.26,17.63,17.63,0,0,0-1.94,2.33,1.68,1.68,0,0,0,2.48-1.15,11.44,11.44,0,0,1,1.75-2.44" transform="translate(-601.12 -151.44)"/><path class="cls-22" d="M946.42,278.57l-.68.83.68-.83" transform="translate(-601.12 -151.44)"/><path class="cls-22" d="M948.18,278.1l-.51.07.51-.07" transform="translate(-601.12 -151.44)"/><path class="cls-27" d="M777.5,300.5l.09-.26a1,1,0,0,0,0-.17,16.1,16.1,0,0,1,.06-1.7c-2-2.92-4.37-5.66-5.19-9.26l-.84-.68-12.05.56c-.22.35-.44.69-.42.67-1.5-.1-2.78-.23-4.06-.26-1.83,0-3.67,0-5.5,0a2.09,2.09,0,0,0-.2.22c.1.24.21.47.31.71a7,7,0,0,1,1,2c.38,3,.53,6.08,1,9.09a9.2,9.2,0,0,0,1.4,2.68c.31-.16.64-.48.93-.45,1.89.14,2.94-1.09,3.63-2.47,1-2.07,4-3.1,6.67-2.46l.5-.06c2.54-1,5.19-.91,7.81-1.11l.07.76-7.87.37-.51,0c-.19.14-.39.4-.58.39-3-.06-5,1.52-6.63,3.9a3.21,3.21,0,0,1-4,1.09,2.63,2.63,0,0,1-2.3-2.68c-.33-3.62-.83-7.21-1.27-10.82l-6.09,1.93c.55,1.57,2,2.26,3.25,3,1.76,1.08,2.25,4.06.77,5.45a1.74,1.74,0,0,0,.32,2.94,45.51,45.51,0,0,1,5.63,4.4c1.57,1.5,2.95,1.49,4-.47,1.39-2.65,2.41-2.73,4.29-.33,1.16,1.47,2.74,1.34,3.61-.3a9.7,9.7,0,0,1,.55-1.12c1.13-1.58,2.48-1.47,3.62.05.49.65,1.44,1.43,2.1,1.36a3.36,3.36,0,0,0,2.08-1.63c1-1.69,2-2.13,3.18-1.26.06-.16.13-.31.19-.47s.06-.31.09-.47a5.59,5.59,0,0,1,.27-1.34,5.87,5.87,0,0,1,.19-1.93" transform="translate(-601.12 -151.44)"/><path class="cls-24" d="M777.45,280.87a4.91,4.91,0,0,1-.59-2.16,4.25,4.25,0,0,0-4.46-3c-5.61.53-11.19,1.36-16.79,2.06-1.94.24-3.05,1.79-3.38,4a3.51,3.51,0,0,1-2,3c-2.24,1.09-2.77,2.26-2.2,4.8l1.31.12.2-.22c-.43-1.33-.32-2.62,1-3.32a6.34,6.34,0,0,0,3.25-4.88A2.39,2.39,0,0,1,756,279c5.15-.62,10.29-1.32,15.44-1.92,2.33-.27,3.3.51,4.3,2.8a4.35,4.35,0,0,0,1.84,2.37,11.91,11.91,0,0,1-.12-1.34v0" transform="translate(-601.12 -151.44)"/><path class="cls-22" d="M970.77,274.83a1.8,1.8,0,0,1,.2.19.83.83,0,0,0-.08-.22l-.12,0" transform="translate(-601.12 -151.44)"/><path class="cls-25" d="M749.48,290.66c.44,3.61.94,7.2,1.27,10.82a2.62,2.62,0,0,0,2.3,2.68h0a9,9,0,0,1-1.4-2.68c-.45-3-.6-6.06-1-9.08a7,7,0,0,0-1-2,1.94,1.94,0,0,1-.21.29" transform="translate(-601.12 -151.44)"/><path class="cls-24" d="M948.22,274c3.45,2.47,6.49,2,9.17-1.06,2.31-2.6,1.09-7.39-.7-8.86-2.41-2-7.41-2.1-9.68,1a6.41,6.41,0,0,0,1.21,8.92" transform="translate(-601.12 -151.44)"/><path class="cls-32" d="M778,287.06a5.33,5.33,0,0,1-.09-1.74,4.54,4.54,0,0,1-.25-1.55,9.83,9.83,0,0,0-.1-1.53,4.38,4.38,0,0,1-1.83-2.37c-1-2.29-2-3.07-4.3-2.8-5.15.6-10.29,1.3-15.44,1.92a2.38,2.38,0,0,0-2.18,2.25,6.34,6.34,0,0,1-3.25,4.88c-1.3.7-1.41,2-1,3.32,1.83,0,3.67-.07,5.5,0,1.28,0,2.56.16,4.06.25l.42-.66a1.91,1.91,0,0,1-.11-.69,6.25,6.25,0,0,1,4.58-4.59,6.16,6.16,0,0,1,6.43,1.62c.7.73.78,2.05,1.15,3.1l.84.68,5.42.1H778c0-.2,0-.41,0-.61a5.83,5.83,0,0,1-.06-.74c0-.27,0-.53,0-.8" transform="translate(-601.12 -151.44)"/><path class="cls-24" d="M771.61,288.43c-.36-1.05-.45-2.37-1.15-3.1a6.15,6.15,0,0,0-6.43-1.62,6.25,6.25,0,0,0-4.58,4.59,1.91,1.91,0,0,0,.11.69l12.05-.56" transform="translate(-601.12 -151.44)"/><path class="cls-25" d="M753.05,304.16a3.21,3.21,0,0,0,4-1.09c1.66-2.38,3.61-4,6.63-3.9.19,0,.39-.25.58-.39h0c-2.7-.64-5.63.39-6.67,2.46-.69,1.38-1.74,2.61-3.63,2.47-.29,0-.62.29-.93.45Z" transform="translate(-601.12 -151.44)"/><path class="cls-25" d="M764.79,298.73l7.87-.37c0-.25,0-.51-.07-.76-2.62.2-5.27.07-7.8,1.11Z" transform="translate(-601.12 -151.44)"/><path class="cls-33" d="M764.28,298.78l.51,0v0l-.51.06Z" transform="translate(-601.12 -151.44)"/><path class="cls-5" d="M942.31,320.83c-1.88,6.15,2.74,12.16,3.08,12.58,5.45,6.86,16.41,8,23.85,3.95,6.45-3.55,11.14-11.55,9.22-15.51-.94-1.92-3.44-2.93-3.08-4.1s3.54-.47,4.25-1.75c1.43-2.58-6.09-12.77-14.2-12.44-1.38.05-2.51.4-11.38,6.78-10.19,7.32-11.18,8.65-11.74,10.49" transform="translate(-601.12 -151.44)"/><path class="cls-3" d="M902.66,302c-1.89-1.1-2.47-2.2-2.64-3a9.33,9.33,0,0,1,.3-3.42s19.34-3.48,28.09-1.75a82.87,82.87,0,0,1,30.44,12.87L946,316.58a33.06,33.06,0,0,0-12.88-13.46c-13.91-7.85-28.47-2-30.43-1.17" transform="translate(-601.12 -151.44)"/><path class="cls-34" d="M762.71,218.82c0,.6-.74.85-1.89,2-1.57,1.5-1.18,2-2.23,2.82a6.23,6.23,0,0,1-5.54.54c-1.43-.5-1.36-1.08-2.81-1.46-1.77-.46-2.29.31-3.74-.11-1.82-.53-3.41-2.45-3.11-3.74.17-.74.83-.69,2.3-2.06s1.31-1.93,2.3-2.63c1.25-.88,2.63-.78,5.06-.62,2.19.14,3.64.24,5.06,1.25,1,.73.9,1.14,2.43,2.27,1.35,1,2.14,1.19,2.17,1.79" transform="translate(-601.12 -151.44)"/><path class="cls-35" d="M762.71,218.82c0,.6-.74.85-1.89,2-1.57,1.5-1.18,2-2.23,2.82a6.23,6.23,0,0,1-5.54.54c-1.43-.5-1.36-1.08-2.81-1.46-1.77-.46-2.29.31-3.74-.11-1.82-.53-3.41-2.45-3.11-3.74.17-.74.83-.69,2.3-2.06s1.31-1.93,2.3-2.63c1.25-.88,2.63-.78,5.06-.62,2.19.14,3.64.24,5.06,1.25,1,.73.9,1.14,2.43,2.27C761.89,218,762.68,218.22,762.71,218.82Z" transform="translate(-601.12 -151.44)"/></g></g></svg>