<svg id="Calque_1" data-name="Calque 1" xmlns="http://www.w3.org/2000/svg" xmlns:xlink="http://www.w3.org/1999/xlink" viewBox="0 0 162.93 184.28"><defs><style>.cls-1,.cls-15{fill:none;}.cls-2{clip-path:url(#clip-path);}.cls-3{opacity:0.57;}.cls-4{clip-path:url(#clip-path-3);}.cls-5{fill:#1d1d1b;}.cls-6{clip-path:url(#clip-path-4);}.cls-7{fill:url(#Dégradé_sans_nom);}.cls-8{clip-path:url(#clip-path-5);}.cls-9{fill:url(#Dégradé_sans_nom_2);}.cls-10{clip-path:url(#clip-path-6);}.cls-11{fill:url(#Dégradé_sans_nom_3);}.cls-12{clip-path:url(#clip-path-7);}.cls-13{fill:url(#Dégradé_sans_nom_4);}.cls-14{fill:#bd1a46;}.cls-15{stroke:#1d1d1b;stroke-miterlimit:10;}.cls-16{fill:#575756;}.cls-17{fill:#d8d2d4;}.cls-18{fill:#e63a2f;}.cls-19{fill:#8dc36b;}.cls-20{fill:#fdc20c;}.cls-21{fill:#e53531;}.cls-22{fill:#efdf7e;}.cls-23{fill:#ead87c;}</style><clipPath id="clip-path" transform="translate(-42.53 -50.9)"><rect class="cls-1" width="214.56" height="286.56"/></clipPath><clipPath id="clip-path-3" transform="translate(-42.53 -50.9)"/><clipPath id="clip-path-4" transform="translate(-42.53 -50.9)"><path class="cls-1" d="M123,66.2a210.67,210.67,0,0,0,8.1,80.76,208.05,208.05,0,0,0,20.48,46.2l11.67-7.89A401.32,401.32,0,0,1,131.76,64.8Z"/></clipPath><linearGradient id="Dégradé_sans_nom" y1="286.56" x2="1" y2="286.56" gradientTransform="translate(40703.41 66.37) rotate(90) scale(141.55)" gradientUnits="userSpaceOnUse"><stop offset="0" stop-color="#f7ec93"/><stop offset="0.02" stop-color="#f7ec93"/><stop offset="0.32" stop-color="#f8e98f"/><stop offset="0.63" stop-color="#fae183"/><stop offset="0.93" stop-color="#fdd36f"/><stop offset="1" stop-color="#fecf69"/></linearGradient><clipPath id="clip-path-5" transform="translate(-42.53 -50.9)"><path class="cls-1" d="M57.69,170.54c-1.77,3.62.24,8.85,5,10.48l71.92,22.86c-3.58-4.27-3.35-10.06-.24-13.1s8.27-2,8.58-1.9L66.75,167a8.7,8.7,0,0,0-2.29-.31,7.49,7.49,0,0,0-6.77,3.89"/></clipPath><linearGradient id="Dégradé_sans_nom_2" y1="286.56" x2="1" y2="286.56" gradientTransform="matrix(-85.9, 0, 0, 85.9, 147.7, -24429.98)" gradientUnits="userSpaceOnUse"><stop offset="0" stop-color="#bd1a46"/><stop offset="0.47" stop-color="#bd1a46"/><stop offset="0.68" stop-color="#e31f53"/><stop offset="1" stop-color="#e31f53"/></linearGradient><clipPath id="clip-path-6" transform="translate(-42.53 -50.9)"><path class="cls-1" d="M92.47,107.66C82.7,122.11,76.61,127.13,71,141.23a94.36,94.36,0,0,0-6.13,25.44L143,188.88a158.54,158.54,0,0,1-12.39-38.59c-2.54-13.89-1.72-20.12-4.28-43.34-3-26.67-4.52-40-9.05-40.73l-.37,0c-4.86,0-7.08,15.84-24.4,41.46"/></clipPath><linearGradient id="Dégradé_sans_nom_3" y1="286.56" x2="1" y2="286.56" gradientTransform="translate(22.34 -22298.54) scale(78.08)" gradientUnits="userSpaceOnUse"><stop offset="0" stop-color="#e62948"/><stop offset="0.26" stop-color="#e62948"/><stop offset="0.71" stop-color="#c81545"/><stop offset="1" stop-color="#c81545"/></linearGradient><clipPath id="clip-path-7" transform="translate(-42.53 -50.9)"><path class="cls-1" d="M131.76,64.8a306.16,306.16,0,0,0,16.44,84.78,301.63,301.63,0,0,0,15,35.69l-11.67,7.89c-4-9.32-7.16-17.42-9.52-23.81-6.42-17.38-7.84-24.36-8.51-30.69-.42-3.92-.06-3-.55-11a314.11,314.11,0,0,0-3.52-31.79A293.85,293.85,0,0,0,123,66.2l-5.71,0c2.23,7.3,6.8,22.94,8.33,34.77.43,3.29.88,7.45.88,7.45.43,3.93.88,8.6,1.5,16.79.79,10.37.61,10,1,13.63a153.31,153.31,0,0,0,3.67,21.29A146.52,146.52,0,0,0,143,188.88c-.31-.08-5.33-1.27-8.58,1.9s-3.34,8.83.24,13.1a18.76,18.76,0,0,0,6.91,2.14c6.48.66,11.6-2.45,16.43-5.48,6.71-4.2,10.23-6,11.43-9.52,1.52-4.37-.25-8.82-3.09-16a67.25,67.25,0,0,0-4.53-9.29c-6.64-11-11.53-25-14.58-33.7C142.29,118,140.52,107,138,91c-1.8-11.2-2.78-20.61-3.34-27.28l-2.86,1.09"/></clipPath><linearGradient id="Dégradé_sans_nom_4" y1="286.56" x2="1" y2="286.56" gradientTransform="translate(68.99 -24141.97) scale(84.54)" gradientUnits="userSpaceOnUse"><stop offset="0" stop-color="#be1646"/><stop offset="0.25" stop-color="#be1646"/><stop offset="0.64" stop-color="#991f49"/><stop offset="1" stop-color="#7b274b"/></linearGradient></defs><title>fraise</title><g class="cls-2"><g class="cls-4"><path class="cls-5" d="M101.86,192.92l15.38,14.72,15.37-5.71,1.15,9.73c.51.16,2.52.76,3.73-.27s.89-2.81.59-4.91a22.35,22.35,0,0,0-2.67-7.77l-16.77,5.6-8.62-8.8Z" transform="translate(-42.53 -50.9)"/></g><g class="cls-6"><rect class="cls-7" x="99.78" y="61.48" width="84.65" height="135.01" transform="translate(-78.81 7.32) rotate(-20.59)"/></g><g class="cls-8"><rect class="cls-9" x="65.3" y="137.94" width="68.28" height="94.66" transform="translate(-152.48 153.51) rotate(-67)"/></g><g class="cls-10"><rect class="cls-11" x="22.34" y="15.29" width="78.08" height="122.68"/></g><g class="cls-12"><rect class="cls-13" x="74.71" y="12.81" width="53.67" height="142.97"/></g><g class="cls-2"><path d="M107.86,129.51c0,5,1.11,9,2.49,9s2.48-4.05,2.48-9-1.11-9-2.48-9-2.49,4-2.49,9" transform="translate(-42.53 -50.9)"/><path class="cls-14" d="M110.13,120.48s-.08,0-.18,0a1.23,1.23,0,0,0-.32.19,2,2,0,0,0-.31.35,5,5,0,0,0-.57,1.08l0,.08a10.79,10.79,0,0,0-.35,1.12c-.21.79-.32,1.48-.32,1.48a32.67,32.67,0,0,0-.38,4.68,37.2,37.2,0,0,0,.3,4.18c.05.31.13.86.29,1.55a13.65,13.65,0,0,0,.42,1.42,6.17,6.17,0,0,0,.45,1,2.62,2.62,0,0,0,.35.49,1.23,1.23,0,0,0,.51.37.91.91,0,0,0,.56,0,1.18,1.18,0,0,0,.53-.35,1.75,1.75,0,0,0,.29-.41,3.34,3.34,0,0,0,.18-.35c.13-.25.16-.27.15-.3s-.86.44-1.43.27c-1.11-.32-1.26-3.34-1.35-5.41,0-.63,0-.66,0-1.58,0-.72,0-1.55,0-3.43a22,22,0,0,1,.28-4,5.94,5.94,0,0,1,.4-1.39c.23-.53.58-1,.49-1.11" transform="translate(-42.53 -50.9)"/><path d="M97.19,128c0,5,1.1,9,2.47,9s2.48-4,2.48-9-1.11-9-2.48-9-2.47,4.05-2.47,9" transform="translate(-42.53 -50.9)"/><path class="cls-14" d="M99.44,119s-.08,0-.18,0a1,1,0,0,0-.32.2,1.82,1.82,0,0,0-.31.34,5.52,5.52,0,0,0-.57,1.09l0,.08a8.7,8.7,0,0,0-.35,1.12c-.21.79-.32,1.47-.32,1.47A32.67,32.67,0,0,0,97,128a37.2,37.2,0,0,0,.3,4.18c0,.32.13.87.29,1.55a11,11,0,0,0,.42,1.42,5.79,5.79,0,0,0,.44,1,3,3,0,0,0,.36.5,1.21,1.21,0,0,0,.51.37,1,1,0,0,0,.57,0,1.13,1.13,0,0,0,.54-.37,3.5,3.5,0,0,0,.26-.37l.21-.37a1.61,1.61,0,0,0,.12-.26c-.08-.14-.86.41-1.42.24-1.11-.32-1.26-3.3-1.35-5.4,0-.63,0-.67,0-1.59s0-1.71,0-3.43a25.53,25.53,0,0,1,.34-4.12,5.32,5.32,0,0,1,.34-1.27c.23-.55.57-1,.49-1.11" transform="translate(-42.53 -50.9)"/><path class="cls-15" d="M108.26,146.16c-.87,4-4.88,5.9-7.66,4.77-2.28-.91-3.78-3.89-3-7" transform="translate(-42.53 -50.9)"/><path class="cls-5" d="M98.09,192.26l-10.45,5.67-6.43,16.43q-4.81-8.21-9.61-16.43a3.14,3.14,0,0,1,2.3-1.1c2.73.08,5.29,5.39,6.59,13.25q1.79-6.68,3.58-13.34l8.61-6.2Z" transform="translate(-42.53 -50.9)"/><path class="cls-16" d="M81.21,214.36a2.37,2.37,0,0,1-1.67.47c-1.11-.2-1.68-1.49-2.22-2.57s1.36,3.07-5-8.1c-1.25-2.21-2-3.56-1.5-5a3.33,3.33,0,0,1,.75-1.23l9.61,16.43" transform="translate(-42.53 -50.9)"/><path class="cls-17" d="M161.23,170.12c-.76,2.5,1.12,4.95,1.26,5.12,2.22,2.79,6.68,3.27,9.7,1.61,2.62-1.45,4.53-4.7,3.75-6.31-.38-.78-1.4-1.19-1.25-1.67s1.44-.19,1.73-.71c.58-1-2.48-5.2-5.78-5.06-.56,0-1,.16-4.63,2.75-4.14,3-4.55,3.53-4.78,4.27" transform="translate(-42.53 -50.9)"/><path class="cls-17" d="M53.47,145.47c-.28.88,2.75,2.91,6.07,3.87,1.88.55,3.49,1,5.24.24a5.37,5.37,0,0,0,3.17-4c.34-2.41-1.34-4.17-2-4.91A8,8,0,0,0,60,138.33c-2.42.15-5.3,1.57-5.42,3.21-.09,1.18,1.29,2,.89,2.86s-1.78.51-2,1.07" transform="translate(-42.53 -50.9)"/><path class="cls-18" d="M81.08,131.15a4.78,4.78,0,0,1,1.16-1,5,5,0,0,1,3-.65,6.24,6.24,0,0,1,3.18.74,6,6,0,0,1,1.07.75,4.18,4.18,0,0,1,1.14,1.81,5.37,5.37,0,0,1-.48,3.67c-.25.62-.22.34-1.13,2s-1.1,2.29-1.76,2.76a3.1,3.1,0,0,1-3.26.2c-.77-.4-1.09-1-2.09-2.6a25.88,25.88,0,0,1-1.47-2.41,5.22,5.22,0,0,1-.46-3.6,4.16,4.16,0,0,1,1.09-1.74" transform="translate(-42.53 -50.9)"/><path class="cls-19" d="M81.11,131.15a2.51,2.51,0,0,0,.88.19,2.41,2.41,0,0,0,1.46-.47,1.65,1.65,0,0,0-.65.82c-.07.21-.17.68,0,.81s.84-.36,1-.47a2.78,2.78,0,0,0,.7-.94,2.86,2.86,0,0,0,.14,1.35c.07.18.35.93.71.92s.49-.55.58-.79a2.62,2.62,0,0,0,.13-1.38,2.61,2.61,0,0,0,.94,1c.09.05.7.41.88.23s0-.53-.1-.66a1.87,1.87,0,0,0-.64-.74c2,.4,2.51.33,2.56.19s-.73-.69-1.08-.9a4.31,4.31,0,0,0-1.26-.52,15,15,0,0,0-1.6-.22,1.81,1.81,0,0,1,0-.58c.19-.71.79-.88.76-1.32S86,127,86,127s-.66.51-1,2.51a4.44,4.44,0,0,0-1,0,4.84,4.84,0,0,0-1.19.36,5,5,0,0,0-.93.59,5.37,5.37,0,0,0-.68.64" transform="translate(-42.53 -50.9)"/><path class="cls-20" d="M85.54,140.07a.58.58,0,0,0-.19.32.66.66,0,0,0,0,.37.21.21,0,0,0,.19.12.18.18,0,0,0,.16-.11.6.6,0,0,0,0-.39.59.59,0,0,0-.21-.31" transform="translate(-42.53 -50.9)"/><path class="cls-20" d="M84.28,138.51a.55.55,0,0,0-.16.33.74.74,0,0,0,.06.37.2.2,0,0,0,.2.1.18.18,0,0,0,.15-.12.55.55,0,0,0,0-.4.53.53,0,0,0-.23-.28" transform="translate(-42.53 -50.9)"/><path class="cls-20" d="M89.66,134.48a.56.56,0,0,0-.23.29.63.63,0,0,0,0,.37.2.2,0,0,0,.16.15.21.21,0,0,0,.18-.09.56.56,0,0,0,.08-.39.65.65,0,0,0-.16-.33" transform="translate(-42.53 -50.9)"/><path class="cls-20" d="M88.4,136.71a.56.56,0,0,0-.23.29.63.63,0,0,0,0,.37.2.2,0,0,0,.17.15.21.21,0,0,0,.18-.09.64.64,0,0,0,.07-.39.58.58,0,0,0-.16-.33" transform="translate(-42.53 -50.9)"/><path class="cls-20" d="M86.73,137.94a.62.62,0,0,0-.23.29.63.63,0,0,0,0,.37.22.22,0,0,0,.17.15.21.21,0,0,0,.18-.09.64.64,0,0,0,.07-.39.52.52,0,0,0-.16-.33" transform="translate(-42.53 -50.9)"/><path class="cls-20" d="M84.83,136.59a.77.77,0,0,0-.19.32.66.66,0,0,0,0,.38.19.19,0,0,0,.35,0,.58.58,0,0,0,0-.4.7.7,0,0,0-.21-.31" transform="translate(-42.53 -50.9)"/><path class="cls-20" d="M81.15,134.9a.59.59,0,0,0-.15.34.57.57,0,0,0,.06.37.19.19,0,0,0,.19.1.22.22,0,0,0,.16-.12.7.7,0,0,0,0-.4.62.62,0,0,0-.24-.29" transform="translate(-42.53 -50.9)"/><path class="cls-20" d="M82.61,137a.59.59,0,0,0-.16.34.67.67,0,0,0,.06.36.19.19,0,0,0,.35,0,.59.59,0,0,0,0-.4.63.63,0,0,0-.24-.28" transform="translate(-42.53 -50.9)"/><path class="cls-20" d="M82.17,132.52a.58.58,0,0,0-.31.21.6.6,0,0,0-.13.34.19.19,0,0,0,.11.19.19.19,0,0,0,.19,0,.65.65,0,0,0,.2-.35.64.64,0,0,0-.06-.37" transform="translate(-42.53 -50.9)"/><path class="cls-20" d="M83.33,135.17a.58.58,0,0,0-.19.32.64.64,0,0,0,0,.37.2.2,0,0,0,.18.12.17.17,0,0,0,.16-.11.6.6,0,0,0,0-.39.59.59,0,0,0-.21-.31" transform="translate(-42.53 -50.9)"/><path class="cls-20" d="M85.45,134.64a.58.58,0,0,0-.19.32.65.65,0,0,0,0,.37.2.2,0,0,0,.19.12.18.18,0,0,0,.16-.1.64.64,0,0,0,0-.4.59.59,0,0,0-.21-.31" transform="translate(-42.53 -50.9)"/><path class="cls-20" d="M88.37,132.41a.65.65,0,0,0-.07.36.59.59,0,0,0,.15.34.19.19,0,0,0,.21.06.22.22,0,0,0,.12-.16.59.59,0,0,0-.11-.38.57.57,0,0,0-.3-.22" transform="translate(-42.53 -50.9)"/><path class="cls-20" d="M86.59,133.05a.58.58,0,0,0-.19.32.66.66,0,0,0,0,.37.21.21,0,0,0,.19.12.17.17,0,0,0,.16-.11.6.6,0,0,0,0-.39.59.59,0,0,0-.21-.31" transform="translate(-42.53 -50.9)"/><path class="cls-20" d="M84,133.09a.58.58,0,0,0-.19.32.57.57,0,0,0,0,.37.18.18,0,0,0,.18.12.19.19,0,0,0,.17-.1.63.63,0,0,0-.18-.71" transform="translate(-42.53 -50.9)"/><path class="cls-20" d="M87.86,134.39a.58.58,0,0,0-.19.32.66.66,0,0,0,0,.37.21.21,0,0,0,.19.12.18.18,0,0,0,.16-.11.6.6,0,0,0,0-.39.59.59,0,0,0-.21-.31" transform="translate(-42.53 -50.9)"/><path class="cls-20" d="M87,136.15a.6.6,0,0,0-.19.32.57.57,0,0,0,0,.37A.19.19,0,0,0,87,137a.2.2,0,0,0,.17-.11.59.59,0,0,0,0-.4.7.7,0,0,0-.2-.31" transform="translate(-42.53 -50.9)"/><path class="cls-21" d="M125.91,141.5a5.48,5.48,0,0,0-.82-1.52,5.72,5.72,0,0,0-2.94-1.93,7.26,7.26,0,0,0-3.68-.52,7.14,7.14,0,0,0-1.45.36,4.7,4.7,0,0,0-2,1.45,6.13,6.13,0,0,0-1,4.09c0,.77.1.46.36,2.65s.22,2.88.73,3.65a3.53,3.53,0,0,0,3.38,1.56c1-.11,1.57-.59,3.29-1.9a24.36,24.36,0,0,0,2.55-2,6,6,0,0,0,2-3.63,4.7,4.7,0,0,0-.44-2.3" transform="translate(-42.53 -50.9)"/><path class="cls-19" d="M125.88,141.48a2.54,2.54,0,0,1-1-.15,2.79,2.79,0,0,1-1.36-1.1,1.79,1.79,0,0,1,.35,1.13c0,.26-.09.8-.35.86s-.73-.73-.82-.89a3.39,3.39,0,0,1-.36-1.28,3.21,3.21,0,0,1-.7,1.37c-.14.16-.75.85-1.13.68s-.3-.78-.3-1.08a3.12,3.12,0,0,1,.44-1.52,2.94,2.94,0,0,1-1.41.65c-.1,0-.9.15-1-.12s.27-.55.38-.66a2.08,2.08,0,0,1,1-.52c-2.32-.4-2.8-.68-2.79-.85s1-.44,1.51-.52a5.18,5.18,0,0,1,1.56,0s.35.05,1.78.43a1.82,1.82,0,0,0,.18-.64c.09-.83-.46-1.26-.26-1.71s.87-.42.87-.42.5.82.07,3.08a6,6,0,0,1,1.06.46,5.13,5.13,0,0,1,1.12.86,6.62,6.62,0,0,1,.75,1,7.39,7.39,0,0,1,.46,1" transform="translate(-42.53 -50.9)"/><path class="cls-20" d="M117.51,149.14a.68.68,0,0,1,.07.42.78.78,0,0,1-.18.38.22.22,0,0,1-.24.06.21.21,0,0,1-.13-.19.74.74,0,0,1,.13-.43.69.69,0,0,1,.35-.24" transform="translate(-42.53 -50.9)"/><path class="cls-20" d="M119.49,148a.71.71,0,0,1,0,.42.78.78,0,0,1-.22.37.21.21,0,0,1-.25,0,.2.2,0,0,1-.11-.19.71.71,0,0,1,.18-.42.67.67,0,0,1,.37-.2" transform="translate(-42.53 -50.9)"/><path class="cls-20" d="M115.43,141.51a.68.68,0,0,1,.13.4.69.69,0,0,1-.13.41.2.2,0,0,1-.23.08.22.22,0,0,1-.16-.16.76.76,0,0,1,.08-.44.64.64,0,0,1,.31-.29" transform="translate(-42.53 -50.9)"/><path class="cls-20" d="M115.85,144.39a.69.69,0,0,1,.13.41.68.68,0,0,1-.13.4.21.21,0,0,1-.23.09.22.22,0,0,1-.16-.16.71.71,0,0,1,.08-.45.76.76,0,0,1,.31-.29" transform="translate(-42.53 -50.9)"/><path class="cls-20" d="M117.12,146.38a.66.66,0,0,1,.12.41.82.82,0,0,1-.12.41.23.23,0,0,1-.23.08.22.22,0,0,1-.16-.16.71.71,0,0,1,.08-.45.76.76,0,0,1,.31-.29" transform="translate(-42.53 -50.9)"/><path class="cls-20" d="M119.69,145.74a.78.78,0,0,1,.07.42.73.73,0,0,1-.18.38.24.24,0,0,1-.25.06.23.23,0,0,1-.13-.18.72.72,0,0,1,.14-.44.65.65,0,0,1,.35-.24" transform="translate(-42.53 -50.9)"/><path class="cls-20" d="M124.29,145.46a.7.7,0,0,1,0,.42.69.69,0,0,1-.22.36.23.23,0,0,1-.25,0,.21.21,0,0,1-.11-.19.71.71,0,0,1,.18-.42.67.67,0,0,1,.37-.2" transform="translate(-42.53 -50.9)"/><path class="cls-20" d="M121.87,147.13a.8.8,0,0,1,0,.42.76.76,0,0,1-.22.36.23.23,0,0,1-.25,0,.21.21,0,0,1-.11-.19.64.64,0,0,1,.18-.42.67.67,0,0,1,.37-.2" transform="translate(-42.53 -50.9)"/><path class="cls-20" d="M124.19,142.5a.7.7,0,0,1,.24.35.74.74,0,0,1,0,.43.2.2,0,0,1-.19.15.23.23,0,0,1-.2-.11.64.64,0,0,1-.06-.45.67.67,0,0,1,.21-.37" transform="translate(-42.53 -50.9)"/><path class="cls-20" d="M121.87,144.84a.7.7,0,0,1,.07.42.73.73,0,0,1-.18.38.24.24,0,0,1-.25.06.23.23,0,0,1-.13-.18.72.72,0,0,1,.14-.44.76.76,0,0,1,.35-.24" transform="translate(-42.53 -50.9)"/><path class="cls-20" d="M119.84,143.41a.79.79,0,0,1,.06.42.7.7,0,0,1-.17.38.22.22,0,0,1-.25,0,.23.23,0,0,1-.13-.18.7.7,0,0,1,.14-.43.6.6,0,0,1,.35-.24" transform="translate(-42.53 -50.9)"/><path class="cls-20" d="M117.65,139.84a.71.71,0,0,1-.07.41.78.78,0,0,1-.3.31.23.23,0,0,1-.25,0,.23.23,0,0,1-.06-.22.67.67,0,0,1,.27-.36.61.61,0,0,1,.41-.11" transform="translate(-42.53 -50.9)"/><path class="cls-20" d="M119.28,141.25a.68.68,0,0,1,.07.42.73.73,0,0,1-.18.38.22.22,0,0,1-.24.06.19.19,0,0,1-.13-.18.75.75,0,0,1,.13-.44.69.69,0,0,1,.35-.24" transform="translate(-42.53 -50.9)"/><path class="cls-20" d="M122,142.35a.78.78,0,0,1,.07.42.73.73,0,0,1-.18.38.24.24,0,0,1-.25.06.23.23,0,0,1-.13-.18.68.68,0,0,1,.49-.68" transform="translate(-42.53 -50.9)"/><path class="cls-20" d="M117.38,142.15a.7.7,0,0,1,.07.42.73.73,0,0,1-.18.38.22.22,0,0,1-.24.06.19.19,0,0,1-.13-.18.69.69,0,0,1,.13-.44.76.76,0,0,1,.35-.24" transform="translate(-42.53 -50.9)"/><path class="cls-20" d="M117.62,144.4a.7.7,0,0,1,.07.42.62.62,0,0,1-.18.38.22.22,0,0,1-.24.06.23.23,0,0,1-.13-.18.76.76,0,0,1,.13-.44.81.81,0,0,1,.35-.24" transform="translate(-42.53 -50.9)"/><path class="cls-22" d="M141.58,141.16a8.07,8.07,0,0,1,1.19,3.83c0,1.31-.39,2.89-.91,2.93-.71.05-.74-2.89-3.26-5.92a6.16,6.16,0,0,1-.83-1.11c-1.19-2.25-.4-5.49.55-5.65.33-.05.47.35,3.26,5.92" transform="translate(-42.53 -50.9)"/><path class="cls-23" d="M149.07,172.7c-.39.43,1.62,2,1.49,4.14-.07,1-.5,2.52-1.21,2.61-1.15.15-2.57-3.46-3.26-5.92-.59-2.12-1.32-6.34-.28-6.75,1.34-.52,5.15,5.41,4.53,6-.24.23-1-.37-1.27-.1" transform="translate(-42.53 -50.9)"/><path class="cls-22" d="M128.58,79.54c-.1-.58-1.27-6.27-.17-6.66.56-.2,1.66,1,2.16,2.28.6,1.5-.18,2,.06,4,.3,2.45,1.63,3.09,1.25,4.93-.15.68-.57,1.72-1.07,1.73-1.09,0-1.93-4.68-2.23-6.28" transform="translate(-42.53 -50.9)"/><path class="cls-22" d="M133.87,112c.29-4.27-.55-6.59-.18-6.66s.53,1.55,2.23,6.28a11.79,11.79,0,0,1,.78,3.41c0,.41.2,3-.61,3.25-.53.17-1.33-.73-1.77-1.47-.88-1.46-.58-2.88-.45-4.81" transform="translate(-42.53 -50.9)"/><path class="cls-5" d="M145.1,162.44a1.94,1.94,0,0,1-1.07-1.23,3.79,3.79,0,0,1,.12-1.39s7.87-1.41,11.43-.71A33.57,33.57,0,0,1,168,164.34l-5.24,4a13.42,13.42,0,0,0-5.24-5.47c-5.65-3.2-11.58-.82-12.38-.48" transform="translate(-42.53 -50.9)"/><path class="cls-5" d="M70,144H67.06A3.36,3.36,0,0,0,64,141.36a3.43,3.43,0,0,0-3.19,3.78,3.39,3.39,0,0,0,2.86,4.05A3.34,3.34,0,0,0,67,146.51l2.07,0Z" transform="translate(-42.53 -50.9)"/></g></g></svg>