{
    "asset": {
        "copyright": "2020 (c) Adobe Inc.",
        "generator": "Adobe Dimension - a39c749b7f1dd68e8fcb597e3575f0bb9d09bfc8",
        "version": "2.0"
    },
    "accessors": [
        {
            "bufferView": 0,
            "componentType": 5126,
            "count": 208128,
            "type": "VEC3",
            "max": [
                0.130964994430542,
                0.18703800439834596,
                0.06701350212097168
            ],
            "min": [
                -0.130964994430542,
                0.0,
                -0.06701350212097168
            ]
        },
        {
            "bufferView": 1,
            "componentType": 5126,
            "count": 208128,
            "type": "VEC3"
        },
        {
            "bufferView": 2,
            "componentType": 5126,
            "count": 208128,
            "type": "VEC2"
        },
        {
            "bufferView": 3,
            "componentType": 5125,
            "count": 312192,
            "type": "SCALAR",
            "max": [
                208127.0
            ],
            "min": [
                0.0
            ]
        }
    ],
    "bufferViews": [
        {
            "buffer": 0,
            "byteOffset": 0,
            "byteLength": 2497536,
            "target": 34962
        },
        {
            "buffer": 0,
            "byteOffset": 2497536,
            "byteLength": 2497536,
            "target": 34962
        },
        {
            "buffer": 0,
            "byteOffset": 4995072,
            "byteLength": 1665024,
            "target": 34962
        },
        {
            "buffer": 0,
            "byteOffset": 6660096,
            "byteLength": 1248768,
            "target": 34963
        }
    ],
    "buffers": [
        {
            "byteLength": 7908864,
            "uri": "packagint_binary.bin"
        }
    ],
    "cameras": [
        {
            "perspective": {
                "znear": 0.000010000000656873454,
                "yfov": 0.6024156808853149,
                "zfar": 2.0,
                "aspectRatio": 1.3333333730697632
            },
            "type": "perspective",
            "name": "render_camera"
        }
    ],
    "images": [
        {
            "name": "composited_baseColor_opacity",
            "uri": "packagint_images\\composited_baseColor_opacity.png",
            "mimeType": "image/png"
        },
        {
            "name": "composited_roughness",
            "uri": "packagint_images\\composited_roughness.png",
            "mimeType": "image/png"
        },
        {
            "name": "normal_image_texture",
            "uri": "packagint_images\\normal_image_texture.png",
            "mimeType": "image/png"
        }
    ],
    "materials": [
        {
            "pbrMetallicRoughness": {
                "baseColorTexture": {
                    "index": 0
                },
                "metallicFactor": 0.0,
                "metallicRoughnessTexture": {
                    "index": 1
                }
            },
            "normalTexture": {
                "index": 2
            },
            "alphaMode": "MASK",
            "name": "Papier brillant 5",
            "doubleSided": true
        }
    ],
    "meshes": [
        {
            "name": "takeaway_box_handles_1507",
            "primitives": [
                {
                    "attributes": {
                        "POSITION": 0,
                        "NORMAL": 1,
                        "TEXCOORD_0": 2
                    },
                    "indices": 3,
                    "material": 0
                }
            ]
        }
    ],
    "nodes": [
        {
            "translation": [
                0.5,
                0.29999998211860659,
                0.5
            ],
            "rotation": [
                -0.12059047073125839,
                0.379409521818161,
                0.04995020851492882,
                0.9159756302833557
            ],
            "scale": [
                1.0,
                1.0,
                0.9999999403953552
            ],
            "camera": 0,
            "name": "render_camera_n3d"
        },
        {
            "translation": [
                0.000052134990255581218,
                -0.06314732879400253,
                -0.00022272109345067292
            ],
            "scale": [
                0.7897506952285767,
                0.7897506952285767,
                0.7897506952285767
            ],
            "mesh": 0,
            "name": "takeaway_box_handles_1507"
        }
    ],
    "samplers": [
        {},
        {},
        {}
    ],
    "scenes": [
        {
            "nodes": [
                0,
                1
            ],
            "name": "scene"
        }
    ],
    "textures": [
        {
            "name": "composited_baseColor_opacity",
            "sampler": 0,
            "source": 0
        },
        {
            "name": "composited_roughness",
            "sampler": 1,
            "source": 1
        },
        {
            "name": "normal_image_texture",
            "sampler": 2,
            "source": 2
        }
    ],
    "scene": 0
}